<svg xmlns="http://www.w3.org/2000/svg" xmlns:svg="http://www.w3.org/2000/svg" xmlns:xlink="http://www.w3.org/1999/xlink" id="Ebene_1" x="0" y="0" version="1.1" viewBox="0 0 283.5 283.5" xml:space="preserve" style="enable-background:new 0 0 283.5 283.5"><style type="text/css">.st0{fill-opacity:.6393}.st0,.st1{fill:#fff}.st2{fill:#f7d358}</style><path id="path3038" d="M68.8,275.4c-13.9-2.3-31.2-11.4-40.2-21.1	C18,242.9,10.9,227.1,9.1,211.2c-1.5-12.8,3.3-31.4,11.2-43.7c4.9-7.7,60.1-63.4,69.6-70.2c3.5-2.5,10.5-6.3,15.6-8.3	c8.5-3.4,10.4-3.7,23.6-3.7c12.8,0,15.5,0.3,23.8,3.3c11.2,4,21.3,10.5,28.5,18.6c10.2,11.3,10.4,10.2-4.4,24.9l-12.9,12.9l-1.4-4.1	c-3.8-10.9-15.8-19.8-28.6-21c-9.8-0.9-17.9,0.9-24.6,5.7c-2.8,2-17.2,15.8-32.1,30.7c-31.5,31.6-33.7,34.8-33.7,49.7	c0,8.1,0.4,9.8,4.4,16.8c7.2,12.9,16.2,18,31.4,18c13.4,0,18.7-2.7,32.5-16.6l10.6-10.7l7.4,2.3c5.3,1.7,11.3,2.4,21.4,2.5	c12.1,0.2,13.8,0.4,12.6,2c-4.2,5.3-40.6,40.4-45.2,43.5c-7.8,5.3-17,9.1-27.1,11.2C82.2,276.9,78.3,277,68.8,275.4	C68.8,275.4,68.8,275.4,68.8,275.4z" class="st0"/><path id="path3040" d="M145.9,200.3c-6.5-1-22.1-6.6-26.2-9.4c-2.2-1.5-4.6-3-5.3-3.2	c-4.7-1.7-18.3-17.5-18.3-21.2c0-1.4,4.9-7.1,12.2-14.1l12.2-11.8l3.1,6.4c8.4,17,31.1,24.1,48,15c4.1-2.2,15.8-13.2,36-33.5	c29.3-29.6,29.9-30.3,31.9-37.5c2.5-9.1,2.5-13.5,0-22.4c-2.1-7.6-8.4-15.8-15.2-20c-6.6-4.1-17.7-5.7-26.4-4	c-9.1,1.8-15.3,6-26.9,18l-8.5,8.9l-5.9-2c-3.8-1.3-11.6-2.3-21.8-2.8l-15.9-0.7l20.9-20.5c23.9-23.5,25.5-24.8,34.4-29.2	c14.9-7.2,31.7-9.3,46.2-5.9c45.4,10.8,68.9,60.7,47.5,101c-5.7,10.8-6.9,12.1-39.5,44.6c-32.1,31.9-37.6,36.2-52.4,41.1	C168,199.9,153.1,201.4,145.9,200.3L145.9,200.3z" class="st0"/><path id="path3042" d="M63.1,273.3c-36.5-10.5-59.4-46.4-51.8-80.9	c3.7-16.6,8-23.5,28.9-45.6c10.4-11,26.2-26.9,35.2-35.2C89,99,93.5,95.5,102,91.4c10-4.8,10.7-5,24.7-5.5	c13.1-0.4,15.3-0.2,23.8,2.7c11.5,3.8,22.8,10.9,30,18.5c9,9.6,9,9.8,2.3,17.9c-3.2,3.8-8.6,9.6-11.9,12.8l-6,5.8l-2.7-5.5	c-5.7-11.8-18.1-18.8-33.1-18.7c-14.5,0-17.4,2-50.3,34.9c-15.8,15.8-28.5,29.1-28.1,29.5c0.4,0.4-0.6,1.9-2.1,3.4	c-6.1,6.1-7.3,22.4-2.4,32.8c4.1,8.8,13,17.4,20.1,19.4c7.6,2.1,24.2,1.2,30.1-1.6c2.5-1.2,9.5-6.9,15.7-12.7l11.1-10.6l6.5,1.7	c3.6,0.9,12.7,2.1,20.2,2.6l13.7,0.9l-22.1,21.6c-24.3,23.8-30,27.7-46.2,31.9C84.1,276,72.7,276.1,63.1,273.3L63.1,273.3z" class="st0"/><path id="path3048" d="M136.3,197.1c-11.8-4-20.4-8.6-26.7-14.4	c-6.3-5.8-12.3-13.6-12.3-16.1c0-1.7,21.3-24.4,22.9-24.4c0.5,0,1.3,1.4,1.7,3.2c0.4,1.7,3.9,6.3,7.8,10.1c5.6,5.6,8.4,7.4,13.9,9	c9.1,2.6,19.8,2,27.5-1.8c7.1-3.4,61.4-57.2,66.4-65.8c4.6-7.9,5.3-21,1.6-30.8c-5.3-13.9-17.9-22.5-33.3-22.5	c-7.2,0-15.9,2.1-15.9,3.9c0,0.6-0.5,0.8-1.1,0.4c-1.5-0.9-6.3,2.9-17.2,13.5l-9.2,9l-5.3-1.3c-2.9-0.7-9.3-1.6-14.2-2	c-4.9-0.4-11.8-1-15.3-1.3l-6.4-0.7l3.4-3.6c1.9-2,12.3-12,23.1-22.3c21-19.9,26-23.1,42.2-27.4c10.2-2.7,27.6-1.8,37.9,1.8	c26.4,9.2,45.2,34.1,47,61.9c0.8,12.7-1.1,21.9-6.9,34c-4.2,8.8-6.8,12.1-22.5,28.1c-27.9,28.5-48.7,48-55.8,52.3	c-10.6,6.4-19.4,8.9-32.8,9.5C146.5,199.8,143.5,199.5,136.3,197.1L136.3,197.1z" class="st1"/><path id="path3818" d="M59.8,271.3c-30.7-10.7-52-41.5-49-70.8	c2.4-23,11-35.2,54.7-77.9C97.6,91.2,105.2,87,129.1,87c16.2,0,24.1,2.1,36,9.4c10.6,6.5,21.8,17.4,21.8,21.2	c0,1.7-20.1,24.7-21.6,24.7c-0.5,0-1.6-1.7-2.5-3.8c-2.4-5.8-8-11.6-14.8-15.1c-5.5-2.9-7.4-3.2-18.7-3.2c-12.4,0-12.7,0.1-18.6,4.1	c-7.5,5.2-50.5,47.4-58.2,57.1c-7.8,9.9-8.6,11.6-9.3,21.4c-0.5,7-0.1,9.9,2,15.5c3.1,8.1,11.8,17.8,18.6,20.6	c5.4,2.3,23.5,2.6,29.6,0.5c4.9-1.6,12.2-7.3,22.2-16.9l7.3-7l12,1.8c6.6,1,15.4,2.2,19.7,2.7l7.7,0.9l-20.7,19.6	c-30,28.3-37.6,32.5-60.2,33.4C70,274.4,67.6,274.1,59.8,271.3L59.8,271.3z" class="st2"/><path id="path3820" d="M135.2,195.9c-15.7-5.7-25.2-12.4-34-24	c-4.1-5.4-4.1-5.4,9.3-19.5l9.1-9.6l3.4,5.4c3.8,6,10.2,12,16.2,15.3c5.6,3,25,3,31.1-0.1c9.6-4.8,65.3-60.5,68.8-68.7	c3-7.2,3.5-17.3,1.3-25.2c-4.6-16.4-17-25.8-34.2-25.8c-14,0-19.1,2.3-32.5,15.1l-11.4,10.8l-8.4-1.5c-4.6-0.8-13.4-1.8-19.5-2.3	c-6.1-0.5-11.1-1.3-11.1-1.7c0-1.7,40.5-38.7,47.3-43.3c3.7-2.5,9.6-5.4,13.1-6.5c8.4-2.7,28.3-3.7,36.6-1.8	c30.9,6.9,53.5,35.3,53.6,67.3c0.1,18.6-5.7,32.1-20.5,48.3c-15,16.4-57.1,56.6-63.7,60.8c-10.2,6.5-18.6,8.9-33.3,9.4	C144.6,198.7,142.1,198.4,135.2,195.9L135.2,195.9L135.2,195.9z" class="st2"/></svg>