<svg xmlns="http://www.w3.org/2000/svg" xmlns:svg="http://www.w3.org/2000/svg" id="Layer_x5F_1_x5F_1" width="100%" height="100%" x="0" y="0" enable-background="new 0 0 270 244" version="1.1" viewBox="0 0 200 244" xml:space="preserve"><metadata id="metadata3071"/><path id="path3057" d="m 173.27371,68.914371 7.09911,-33.213686 c 1.14093,-5.197562 -2.15508,-10.268353 -7.35265,-11.282512 L 70.0831,2.486999 C 64.88554,1.3460709 59.814749,4.6420855 58.800591,9.839647 L 46.123611,68.914371 H 58.166742 L 71.09726,14.40336 l 95.07735,21.550865 -7.73296,32.960146 h 14.83206 z" clip-rule="evenodd" style="fill:#fff;fill-rule:evenodd"/><path id="path3059" d="m 184.30269,100.73359 -7.60619,-0.50708 c 0.38031,-6.46526 0.76062,-11.662821 0.88739,-15.085606 h -15.08561 v -7.606187 h 23.19887 l -0.25354,4.056633 c 0,0 -0.38031,7.732958 -1.14092,19.14224 z m -4.05664,55.01809 -7.60618,-0.63385 c 0.88738,-10.14158 1.77477,-22.18471 2.78893,-35.74908 l 7.60619,0.50708 c -0.88739,13.56437 -1.77478,25.6075 -2.78894,35.87585 z m -20.15639,50.70792 -3.54956,-6.7188 c 8.24004,-4.31018 10.64866,-6.08495 11.28251,-6.59203 0.38031,-0.88739 1.52124,-4.56371 3.04248,-18.8887 l 7.60619,0.88739 c -2.28186,20.40993 -3.8031,21.93117 -4.94403,23.19887 -0.63385,0.38031 -2.28185,2.15509 -13.43759,8.11327 z m -50.83469,22.81856 -2.5354,-7.22588 c 7.73296,-2.78893 20.02963,-7.9865 32.70661,-13.94468 l 3.29601,6.97234 c -12.93052,6.08495 -25.48072,11.40928 -33.46722,14.19822 z M 143.73635,85.140904 h -35.242 v -7.606187 h 35.242 v 7.606187 z m 39.0451,118.022676 C 188.48609,196.95186 195.5852,69.041141 195.5852,69.041141 l -98.50013,0 c 0,0 -0.50708,10.521893 -1.14093,26.241347 1.01416,-0.12677 2.02832,-0.12677 3.16924,-0.12677 29.03029,0 52.4827,23.452412 52.4827,52.482692 0,28.90352 -23.45241,52.4827 -52.4827,52.4827 -1.77477,0 -3.54955,-0.12677 -5.32433,-0.25354 0.38031,23.45241 1.90155,40.6931 5.32433,40.6931 10.77544,-0.25354 77.96343,-31.18537 83.66807,-37.39709 z" clip-rule="evenodd" style="fill:#fff;fill-rule:evenodd"/><path id="path3061" d="M 13.797314,100.73359 C 13.036695,89.324308 12.529616,81.59135 12.529616,81.59135 l -0.25354,-4.056633 h 23.198873 v 7.606187 H 20.516113 l 1.014158,14.958836 -7.732957,0.63385 z m 4.183403,54.51101 C 17.093328,144.97625 16.07917,132.93312 15.191782,119.36875 l 7.606187,-0.50708 c 1.014159,13.56437 1.901547,25.6075 2.788936,35.74908 l -7.606188,0.63385 z m 19.269009,51.34177 c -10.902203,-5.83141 -12.29667,-7.73296 -12.930519,-8.62035 -0.887389,-1.14093 -2.155087,-2.9157 -4.436943,-23.57918 l 7.606188,-0.76062 c 1.648007,15.21238 2.662165,18.8887 3.042475,19.90286 0.380309,0.38031 2.535395,2.15508 10.395123,6.33849 l -3.676324,6.7188 z m 50.961454,22.69179 c -8.3668,-2.91571 -20.91701,-8.11327 -33.593993,-14.07145 l 3.296015,-6.97234 c 12.423438,5.83141 24.720108,10.90221 32.833378,13.69114 l -2.5354,7.35265 z M 89.60565,85.140904 H 54.363648 V 77.534717 H 89.60565 v 7.606187 z m 9.38097,155.292996 0,-40.43956 c -28.90352,0 -52.35593,-23.45241 -52.35593,-52.4827 0,-28.90351 23.32564,-52.355922 52.22916,-52.482692 l 0,-26.114577 H 2.514802 c 0,0 7.606188,128.798109 12.803749,135.643679 4.944022,6.84557 72.892629,36.00262 83.668069,35.87585 z" clip-rule="evenodd" style="fill:#fff;fill-rule:evenodd"/><path id="path3063" d="m 88.84503,170.58375 v -45.89067 l 27.63582,22.94533 -27.63582,22.94534 z M 62.983994,147.63841 c 0,19.77609 15.972996,35.74908 35.749086,35.74908 19.77608,0 35.74908,-15.97299 35.74908,-35.74908 0,-19.77609 -15.973,-35.74908 -35.74908,-35.74908 -19.77609,0 -35.749086,15.97299 -35.749086,35.74908 z" clip-rule="evenodd" style="fill:#fff;fill-rule:evenodd"/><polygon id="polygon3065" points="181.9 80 188 54 113 37 102.9 80" clip-rule="evenodd" transform="matrix(1.2676979,0,0,1.2676979,-72.152606,-32.501464)" style="opacity:.47999998;fill:#fff;fill-opacity:.63926942;fill-rule:evenodd"/></svg>