<svg xmlns="http://www.w3.org/2000/svg" viewBox="0 0 48 48"><defs><style>.cls-1{fill:#442a66}.cls-2{fill:#fff}.cls-3{fill:#fbeb4d}.cls-4{fill:#eab7d5}.cls-5{fill:#d2a0c1}.cls-6{fill:#d19fc1}.cls-7,.cls-8{fill:#070707}.cls-7{stroke:#eab7d5;stroke-miterlimit:10;stroke-width:.34px}</style></defs><title>Luna&amp;amp;Caticon_</title><g id="Ebene_2" data-name="Ebene 2"><g id="Ebene_1-2" data-name="Ebene 1"><rect width="48" height="48" class="cls-1" rx="8.32" ry="8.32"/><path d="M9,5.91l1-1.84-.93-1.9,2.07.42,1.52-1.47L13,3.22l1.87,1-1.92.88-.37,2.08L11.12,5.62,9,5.91Z" class="cls-2"/><path d="M42.27,41.06l-.63-1.32-1.5-.12,1.12-1.13L41.05,37l1.32.62,1.37-.79-.31,1.52,1.06,1L43,39.65l-.72,1.41Z" class="cls-2"/><polygon points="48 12.82 47.87 12.67 48 12.22 48 10.99 46.6 11.64 45.01 10.71 45.1 12.6 43.56 13.9 45.44 14.23 46.08 15.97 46.08 15.97 47.14 14.27 48 14.17 48 12.82" class="cls-3"/><path d="M38.54,44.9l-1.13-.29-.88.76-.07-1.16-1-.6,1.08-.42L36.82,42l.74.9,1.16-.1-.63,1,.45,1.07Z" class="cls-3"/><path d="M2.35,10.85l0-1.41L1.13,8.7l1.45-.5L3,6.83l.88,1.1,1.52-.1L4.52,9,5,10.31,3.57,9.94l-1.22.91Z" class="cls-3"/><path d="M42.77,6.49l-1-1-1.4.34.68-1.37-.64-1.29,1.4.17,1-1.14L43,3.66l1.27.59L43,5l-.23,1.5Z" class="cls-2"/><path d="M4.81,34.71l-1-1L2.43,34l.68-1.37-.64-1.29,1.4.17,1-1.14.18,1.48,1.27.59L5,33.21l-.23,1.5Z" class="cls-2"/><path d="M24,45A21.48,21.48,0,1,1,45.48,23.53,21.5,21.5,0,0,1,24,45Z" class="cls-4"/><path d="M24,2.9A20.63,20.63,0,1,1,3.37,23.53,20.65,20.65,0,0,1,24,2.9M24,1.2A22.32,22.32,0,1,0,46.32,23.53,22.32,22.32,0,0,0,24,1.2Z" class="cls-5"/><path d="M16,7.59A4.22,4.22,0,0,0,14,8.11c-1.7.92-2.5,2.74-1.79,4.06s2.67,1.66,4.37.74,2.5-2.74,1.79-4.06A2.62,2.62,0,0,0,16,7.59Z" class="cls-6"/><path d="M23.94,1.32a21.64,21.64,0,0,0-4.09.42A8.61,8.61,0,0,0,22.1,8.46c3.1,3.41,8.15,3.86,11.29,1a7.3,7.3,0,0,0,2.34-4.76,21.57,21.57,0,0,0-11.79-3.4Z" class="cls-6"/><path d="M4.18,13.34A21.64,21.64,0,0,0,2.45,29.17a11.61,11.61,0,0,0,3.72-5.34c1.49-4.23.58-8.53-2-10.49Z" class="cls-6"/><path d="M36.62,32.56a3,3,0,0,0-.94.19,2.24,2.24,0,0,0-1.59,2.69,2.24,2.24,0,0,0,3,.95,2.24,2.24,0,0,0,1.59-2.69,2,2,0,0,0-2-1.14Z" class="cls-6"/><path d="M33.69,18.36l-7,1.82a20.36,20.36,0,0,0-7-2.3L15,12.25,9.83,20.93h0a4.42,4.42,0,0,0-.4.88c-.82,2.49.68,5.4,3.61,7.72-.24.8-2.22,7.78-1.09,13.49a3.2,3.2,0,0,1-2.42.26c-.35-.2-.36-.79-.3-1.26a15.24,15.24,0,0,0,.18-2.39c0-2-.53-3.33-1.51-4A2.71,2.71,0,0,0,6,35.19a5.16,5.16,0,0,0-2,.76,1.26,1.26,0,1,0,1.28,2.16c.79-.47,1.15-.44,1.18-.41s.4.57.42,1.92a12.71,12.71,0,0,1-.15,2v.06C6.44,44,7.56,45,8.24,45.44a3.82,3.82,0,0,0,2,.49,6.26,6.26,0,0,0,1.52-.2,8.65,8.65,0,0,0,.94-.3c.12.29.25.57.4.84.35.66,3,.74,3,0v-.36h5.16v.36c0,.74,2.68.66,3,0,2-3.73,1.57-9.09.93-12.75,3.72-.12,6.65-1.58,7.47-4.07a4.47,4.47,0,0,0,.22-1.39Z" class="cls-7"/><g id="eyes"><g id="rightEye"><circle cx="16.04" cy="24.03" r="2.87" class="cls-2" transform="translate(-11.73 32) rotate(-72.29)"/><ellipse cx="16.5" cy="24.2" class="cls-8" rx="1.66" ry="1.24" transform="translate(-11.57 32.56) rotate(-72.29)"/></g><g id="leftEye"><circle cx="26.14" cy="27.25" r="2.87" class="cls-2" transform="translate(-7.77 43.86) rotate(-72.29)"/><ellipse cx="25.66" cy="27.12" class="cls-8" rx="1.66" ry="1.24" transform="translate(-7.98 43.31) rotate(-72.29)"/></g></g></g></g></svg>