<svg xmlns="http://www.w3.org/2000/svg" id="Catrobat" viewBox="0 0 1015.36 754.85"><defs><style>.cls-1,.cls-2{stroke:#000}.cls-1{stroke-miterlimit:10}.cls-2{fill:none;stroke-linecap:round;stroke-linejoin:round;stroke-width:47px}.cls-3{fill:#fff}</style></defs><path id="lw" d="M566.44,540.34c14.23-7.46,59.51-9.47,76.37-7.2,37.17,5,65,35.29,70,72.23,11.55-44.72,53.09-74.94,97.75-69,25.54,3.43,47,18,60.54,38.51a94.51,94.51,0,0,1,.78-11.07c6.72-50.1,52.58-85.29,102.39-78.61a90.23,90.23,0,0,1,49,22.84c-9.41-61.16-83.07-146.66-197.66-162-17.69-2.37-42-2.9-58.8-3.08-17.33,72.6-93.63,98.73-193.27,96.31C567.16,492.08,567.57,503.94,566.44,540.34Z" class="cls-1" transform="translate(-8.63 -43.05)"/><path id="rw" d="M377.55,483.09c-8-13.94-45.05-40-60.48-47.18-34-15.81-73.78-5.26-97.88,23.19,14.35-43.91-4.39-91.75-45.24-110.75-23.37-10.86-49.28-10.11-71.75-.14a92.06,92.06,0,0,0,5.29-9.75c21.32-45.83,1.63-100.18-44-121.38A90.3,90.3,0,0,0,9.94,210c40.86-46.47,149-78.86,253.8-30.11,16.18,7.52,36.93,20.15,51.21,29-19.4,72.7,25.74,133.62,111,185.22C402.92,442,396.19,451.81,377.55,483.09Z" class="cls-1" transform="translate(-8.63 -43.05)"/><path id="t" d="M426.63,585.44c-60.15,43.35-125.63,44.78-118-19,0,0,21.95-142.19-58.9-80.47" class="cls-2" transform="translate(-8.63 -43.05)"/><path d="M596.22,347.91H542.79s-45.47-.73-45.47-.27c0-.46-45.47.27-45.47.27H398.42s-58,187.91,0,296.75c6.16,11.58,53.43,13.1,53.43,0v-6.43h90.94v6.43c0,13.1,47.27,11.58,53.43,0C654.18,535.82,596.22,347.91,596.22,347.91Z" class="cls-1" transform="translate(-8.63 -43.05)"/><path id="f" d="M744,348.67c-22.44,67.2-132.27,91.08-245.32,53.34S312.19,279.18,334.62,212,466.9,120.9,580,158.64,766.45,281.46,744,348.67Z" class="cls-1" transform="translate(-8.63 -43.05)"/><polygon id="le" points="738.81 287.6 754.03 110.09 585.5 153.3 738.81 287.6" class="cls-1"/><polygon id="re" points="333.1 153.51 424.95 .86 536.04 134.74 333.1 153.51" class="cls-1"/><path d="M499.09,267.28a50.63,50.63,0,1,1-32.54-63.77A50.62,50.62,0,0,1,499.09,267.28Z" class="cls-3" transform="translate(-8.63 -43.05)"/><path d="M479.7,261.41a21.64,21.64,0,1,1-13.92-27.26A21.64,21.64,0,0,1,479.7,261.41Z" transform="translate(-8.63 -43.05)"/><path d="M676.85,324.91a50.63,50.63,0,1,1-32.55-63.77A50.63,50.63,0,0,1,676.85,324.91Z" class="cls-3" transform="translate(-8.63 -43.05)"/><path d="M640.64,314.33a21.64,21.64,0,1,1-13.92-27.26A21.65,21.65,0,0,1,640.64,314.33Z" transform="translate(-8.63 -43.05)"/><path d="M199.8,797.9q-17.1,0-28.8-11.7a30.9,30.9,0,0,1-8.7-16.05q-1.8-9-1.8-26.55t1.8-26.55a30.34,30.34,0,0,1,8.7-16q11.7-11.7,28.8-11.7c20.55,0,35.7,12,39.3,33.75H218c-2.25-9.15-7.95-15.15-18-15.15-5.7,0-10.2,1.8-13.35,5.55-4.35,4.65-5.25,9.45-5.25,30.15s.9,25.5,5.25,30.15c3.15,3.75,7.65,5.55,13.35,5.55,10.05,0,15.75-6,18-15.15H239.1C235.5,785.9,220.2,797.9,199.8,797.9Z" transform="translate(-8.63 -43.05)"/><path d="M316.2,797l-6.3-18.9H272L265.5,797H243.75L282.6,690.2H299L338,797Zm-24.9-75.3-13.5,38.85h26.55Z" transform="translate(-8.63 -43.05)"/><path d="M383,708.8V797H362.1V708.8H334.2V690.2h76.65v18.6Z" transform="translate(-8.63 -43.05)"/><path d="M484.5,797l-20.85-42.6h-15V797H427.8V690.2h41.85c21.75,0,34.65,14.85,34.65,32.7,0,15-9.15,24.3-19.5,28.05l23.85,46Zm-16.2-88.2H448.65V737H468.3c9.15,0,15.15-5.85,15.15-14.1S477.45,708.8,468.3,708.8Z" transform="translate(-8.63 -43.05)"/><path d="M590.54,786.2c-7.49,7.5-16.64,11.7-28.79,11.7s-21.45-4.2-29-11.7c-10.8-10.8-10.5-24.15-10.5-42.6s-.3-31.8,10.5-42.6c7.5-7.5,16.8-11.7,29-11.7s21.3,4.2,28.79,11.7c10.8,10.8,10.65,24.15,10.65,42.6S601.34,775.4,590.54,786.2ZM575.1,713.6a17.33,17.33,0,0,0-13.35-5.7,17.67,17.67,0,0,0-13.5,5.7c-4,4.5-5.1,9.45-5.1,30s1.05,25.5,5.1,30a17.67,17.67,0,0,0,13.5,5.7,17.33,17.33,0,0,0,13.35-5.7c4-4.5,5.25-9.45,5.25-30S579.15,718.1,575.1,713.6Z" transform="translate(-8.63 -43.05)"/><path d="M667.2,797H622.5V690.2h42.9c20.85,0,33,11.7,33,30a24.7,24.7,0,0,1-13.2,22c6.45,3,14.7,9.75,14.7,24C699.89,786.2,686.25,797,667.2,797Zm-3.45-88.2h-20.4v24.6h20.4c8.85,0,13.79-4.95,13.79-12.3S672.6,708.8,663.75,708.8Zm1.35,43.35H643.35V778.4H665.1c9.44,0,13.94-6,13.94-13.2S674.54,752.15,665.1,752.15Z" transform="translate(-8.63 -43.05)"/><path d="M781.94,797l-6.3-18.9H737.7L731.25,797H709.5l38.84-106.8h16.35l39,106.8ZM757,721.7l-13.5,38.85h26.55Z" transform="translate(-8.63 -43.05)"/><path d="M848.69,708.8V797H827.84V708.8h-27.9V690.2h76.65v18.6Z" transform="translate(-8.63 -43.05)"/></svg>