<svg id="Ebene_1" data-name="Ebene 1" xmlns="http://www.w3.org/2000/svg" viewBox="0 0 47.37 56.1"><defs><style>.cls-1{fill:#b7b7b7;stroke:#afaeae;stroke-miterlimit:10;stroke-width:0.5px;}.cls-2{fill:#ff14ff;}.cls-3{fill:#edff14;}.cls-4{fill:#39ff14;}.cls-5{fill:#185893;}.cls-6{fill:#1560bd;}.cls-7{fill:#eeeeef;}.cls-8{fill:#e8e346;}.cls-9{opacity:0.97;}.cls-10{fill:#e916ef;}.cls-11{fill:#39ed14;}</style></defs><title>EmbroideryDesigner200x200</title><path class="cls-1" d="M110.88,79.11l0-2.79a1.25,1.25,0,0,1,1.3-1.09l6.06-.3a1.23,1.23,0,0,1,1.36.91l.35,2.79" transform="translate(-78.55 -74.5)"/><path class="cls-1" d="M100,78.34l.73-2.8a1.24,1.24,0,0,1,1.52-.75L108,76.11a1.22,1.22,0,0,1,1,1.27l-.43,2.89" transform="translate(-78.55 -74.5)"/><path class="cls-1" d="M85.31,80.07l-.12-2.85a1.24,1.24,0,0,1,1.25-1.15l6-.45a1.23,1.23,0,0,1,1.38.89l.44,2.85" transform="translate(-78.55 -74.5)"/><path class="cls-2" d="M104.62,77c2.8.57,4.95,1.46,4.8,2a.09.09,0,0,1,0,.06c-.33.47-2.64.43-5.32-.11s-4.95-1.47-4.8-2S101.82,76.4,104.62,77Z" transform="translate(-78.55 -74.5)"/><path class="cls-2" d="M109.39,79l-4.71,16.62h0c.15-.54-2-1.43-4.8-2s-5-.59-5.32-.12l4.71-16.61c-.15.53,2,1.43,4.8,2S109.06,79.5,109.39,79Z" transform="translate(-78.55 -74.5)"/><path class="cls-2" d="M99.88,93.65c2.8.57,5,1.46,4.8,2s-2.55.51-5.35-.05-4.77-1.39-4.81-1.93l0-.14C94.89,93.06,97.2,93.11,99.88,93.65Z" transform="translate(-78.55 -74.5)"/><path class="cls-3" d="M89.39,77.07c2.93-.17,5.33.14,5.38.69a.2.2,0,0,1,0,.07c-.13.53-2.39,1.07-5.2,1.23s-5.33-.14-5.38-.69S86.47,77.23,89.39,77.07Z" transform="translate(-78.55 -74.5)"/><path class="cls-3" d="M94.76,77.83l1.43,17h0c0-.55-2.46-.86-5.38-.69s-5,.7-5.2,1.23l-1.43-17c0,.55,2.45.86,5.38.69S94.63,78.36,94.76,77.83Z" transform="translate(-78.55 -74.5)"/><path class="cls-3" d="M90.81,94.18c2.92-.17,5.33.14,5.38.69S93.9,96,91,96.17s-5.11-.11-5.35-.61v-.15C85.77,94.88,88,94.34,90.81,94.18Z" transform="translate(-78.55 -74.5)"/><path class="cls-4" d="M115.18,76.64c2.86-.23,5.22,0,5.29.58a.13.13,0,0,1,0,.06c-.12.54-2.31,1.13-5.06,1.35s-5.22,0-5.28-.59S112.32,76.86,115.18,76.64Z" transform="translate(-78.55 -74.5)"/><path class="cls-4" d="M120.46,77.28l1.89,17h0c-.06-.55-2.43-.81-5.28-.59s-4.92.81-5.06,1.34l-1.89-17c.06.55,2.43.82,5.28.59S120.34,77.82,120.46,77.28Z" transform="translate(-78.55 -74.5)"/><path class="cls-4" d="M117.07,93.71c2.85-.22,5.22,0,5.28.59s-2.21,1.18-5.06,1.41-5,0-5.26-.51l0-.15C112.15,94.52,114.34,93.93,117.07,93.71Z" transform="translate(-78.55 -74.5)"/><path class="cls-5" d="M122.79,121.83c-1.4,1.45-17.9,8.76-20.55,8.78s-19.31-7.12-20.56-8.72-3.13-31.65-3.13-31.65h47.37s-1.72,30.14-3.13,31.59" transform="translate(-78.55 -74.5)"/><path class="cls-6" d="M102.24,130.61c-2.66,0-19.31-6.84-20.56-8.44s-3.13-31.93-3.13-31.93h23.63Z" transform="translate(-78.55 -74.5)"/><path class="cls-7" d="M81.33,97.71l-.3-4.5-.06-1h5.69v1.8H83c0,.79.13,2,.24,3.54Z" transform="translate(-78.55 -74.5)"/><path class="cls-7" d="M113.2,94.05h-8.66v-1.8h8.66Zm-13.27,0H91.28v-1.8h8.65Z" transform="translate(-78.55 -74.5)"/><path class="cls-7" d="M123.16,97.71l-1.87-.12c.1-1.51.17-2.75.22-3.54h-3.7v-1.8h5.69l-.06,1s-.1,1.82-.28,4.51" transform="translate(-78.55 -74.5)"/><path class="cls-7" d="M104.75,128l-.63-1.7c1.91-.64,4.91-1.87,8-3.29l.81,1.63c-3.18,1.44-6.25,2.7-8.21,3.36m-5.17,0c-2.07-.68-5.15-1.91-8.24-3.3l.79-1.64c3,1.37,6.05,2.58,8.06,3.24Zm-12.51-5.33c-2.67-1.37-3-1.83-3.18-2s-.53-.69-1.08-5.55l1.86-.19a25.17,25.17,0,0,0,.75,4.68A13.92,13.92,0,0,0,88,121.05Zm30.14,0-.87-1.59a18.39,18.39,0,0,0,2.75-1.56,22,22,0,0,0,.76-4.46l1.86.2c-.56,4.79-.93,5.17-1.19,5.45s-.56.57-3.31,2m5-11.93-1.87-.15c.22-2.4.45-5.24.68-8.43l1.87.12c-.23,3.21-.46,6.05-.68,8.46m-39.82-.11c-.22-2.42-.46-5.27-.7-8.46l1.87-.13c.24,3.18.48,6,.7,8.43Z" transform="translate(-78.55 -74.5)"/><path class="cls-3" d="M89.29,86.59c.28,1,.51,2,.74,3l.25,3c.1,1,.2,2,.32,3,.06.49.13,1,.22,1.45,0,.13.05.2.07.3l.11.44c0,.27.09.53.11.79.2,2,.26,4,.35,6l.1,3c-.14,1-.24,2-.42,3-.23-1-.38-2-.58-3l-.1-3c-.09-2-.15-4-.35-6,0-.24-.06-.48-.09-.71L90,97.63c0-.15-.09-.32-.11-.44-.11-.52-.17-1-.23-1.53-.13-1-.23-2-.32-3l-.27-3C89.09,88.62,89.16,87.61,89.29,86.59Z" transform="translate(-78.55 -74.5)"/><path class="cls-8" d="M84.78,83.48c.47,0,.94.12,1.41.19l1.35.43,2.68.85,2.68.85,1.35.42c.42.23.85.43,1.26.67-.48,0-.94-.13-1.42-.19l-1.34-.42-2.68-.86-2.69-.85L86,84.15C85.62,83.93,85.19,83.72,84.78,83.48Z" transform="translate(-78.55 -74.5)"/><path class="cls-8" d="M85.36,89.72c.36-.28.73-.51,1.09-.76l1.19-.52,2.38-1,2.38-1.05,1.19-.52c.43-.1.85-.21,1.29-.29-.36.26-.73.5-1.09.75l-1.19.52-2.38,1L87.84,88.9l-1.19.52C86.22,89.52,85.8,89.64,85.36,89.72Z" transform="translate(-78.55 -74.5)"/><path class="cls-8" d="M84.93,87.71c.33-.43.7-.82,1-1.23l1.22-1,2.44-2.09,2.44-2.09,1.22-1c.47-.28.91-.58,1.39-.86-.34.43-.71.83-1.06,1.24l-1.22,1L90,83.72l-2.44,2.09-1.22,1C85.85,87.14,85.4,87.44,84.93,87.71Z" transform="translate(-78.55 -74.5)"/><path class="cls-8" d="M84.35,79c.5.15,1,.33,1.49.5l1.37.72L90,81.63l2.74,1.43,1.38.72c.41.32.84.61,1.25.94-.5-.15-1-.33-1.49-.49l-1.37-.72-2.74-1.44L87,80.63l-1.38-.72C85.18,79.6,84.76,79.3,84.35,79Z" transform="translate(-78.55 -74.5)"/><g class="cls-9"><path class="cls-2" d="M103.33,84.24a41.17,41.17,0,0,1,.14,4.29l-.93,4.08c-.33,1.36-.67,2.72-1.07,4.08a16.88,16.88,0,0,1-.73,2.09,3.6,3.6,0,0,1-.34.62l-.1.17c0,.05,0,0,0,.07a.36.36,0,0,1,0,.09,1.68,1.68,0,0,0-.13.36c0,.15-.1.27-.13.44a78.93,78.93,0,0,0-1.38,8.07l-.52,4.11c-.46,1.34-.9,2.69-1.45,4-.25-1.43-.39-2.84-.53-4.26l.51-4.14A80.45,80.45,0,0,1,98,100a4.3,4.3,0,0,1,.17-.55,2.8,2.8,0,0,1,.23-.61c.07-.13.13-.25.21-.37l.09-.16,0-.06a1.61,1.61,0,0,0,.15-.3,16.91,16.91,0,0,0,.64-1.83c.38-1.3.72-2.64,1-4s.63-2.69.9-4.05C102.08,86.82,102.65,85.52,103.33,84.24Z" transform="translate(-78.55 -74.5)"/></g><line class="cls-2" x1="20.12" y1="5.04" x2="29.1" y2="10.75"/><path class="cls-10" d="M98.67,79.54c.43.15.84.34,1.26.5l1.12.72,2.24,1.43,2.25,1.43,1.12.71c.33.31.67.6,1,.92-.43-.15-.84-.33-1.26-.5L105.27,84,103,82.61l-2.25-1.43-1.12-.71C99.33,80.16,99,79.87,98.67,79.54Z" transform="translate(-78.55 -74.5)"/><line class="cls-2" x1="20.89" y1="2.35" x2="29.79" y2="8.17"/><path class="cls-10" d="M99.44,76.86c.43.15.84.34,1.25.51l1.11.73L104,79.56,106.25,81l1.11.73c.33.31.66.6,1,.93-.43-.16-.83-.34-1.25-.52L106,81.43,103.75,80l-2.22-1.45-1.11-.72C100.09,77.48,99.76,77.19,99.44,76.86Z" transform="translate(-78.55 -74.5)"/><line class="cls-2" x1="17.74" y1="13.08" x2="29.26" y2="9.48"/><path class="cls-10" d="M96.3,87.58c.44-.25.91-.46,1.36-.69l1.44-.45,2.88-.9,2.88-.9,1.44-.45c.5-.07,1-.15,1.51-.21-.45.25-.91.46-1.36.69l-1.44.45-2.88.9-2.88.9-1.44.45C97.31,87.44,96.81,87.53,96.3,87.58Z" transform="translate(-78.55 -74.5)"/><line class="cls-2" x1="18.52" y1="10.85" x2="30.42" y2="5.8"/><path class="cls-10" d="M97.08,85.35c.45-.3.92-.57,1.38-.86l1.49-.63,3-1.26,3-1.26,1.48-.63c.53-.13,1.05-.28,1.59-.4-.46.3-.93.57-1.39.86l-1.49.63-3,1.26-3,1.26L98.66,85C98.13,85.09,97.61,85.24,97.08,85.35Z" transform="translate(-78.55 -74.5)"/><path class="cls-11" d="M110.37,78.53c.47.07.92.17,1.38.25l1.29.48,2.58,1,2.58,1,1.3.48c.4.24.8.46,1.2.72-.47-.07-.92-.17-1.38-.25L118,81.66l-2.58-1-2.58-1-1.3-.48C111.17,79,110.77,78.79,110.37,78.53Z" transform="translate(-78.55 -74.5)"/><path class="cls-11" d="M110.78,84.3c.35-.34.72-.64,1.08-1l1.21-.75,2.42-1.49,2.41-1.49,1.21-.75c.45-.17.88-.37,1.34-.53-.35.34-.72.64-1.08,1l-1.21.74-2.41,1.5L113.33,83l-1.2.75C111.68,83.94,111.24,84.14,110.78,84.3Z" transform="translate(-78.55 -74.5)"/><path class="cls-11" d="M111.47,87.42c.34-.33.7-.62,1-.93l1.18-.72,2.35-1.44,2.36-1.44,1.17-.72c.44-.17.87-.35,1.31-.51-.34.33-.7.62-1,.94l-1.17.72-2.36,1.44L114,86.2l-1.18.72C112.34,87.09,111.92,87.27,111.47,87.42Z" transform="translate(-78.55 -74.5)"/><path class="cls-4" d="M116.3,111c-.27-1-.49-2-.72-3-.08-1-.17-2-.28-3s-.23-2-.4-3a11.07,11.07,0,0,0-.32-1.4c-.09-.27-.1-.21-.29-.65a2.31,2.31,0,0,1-.13-.45l-.08-.41a45.15,45.15,0,0,1-.19-6.13l.07-3c.21-1,.38-2,.63-3,.15,1,.24,2,.37,3l-.07,3a45.28,45.28,0,0,0,.18,6,3,3,0,0,0,.14.6s.28.51.31.74a9.22,9.22,0,0,1,.36,1.54c.18,1,.3,2,.42,3l.28,3C116.52,109,116.44,110,116.3,111Z" transform="translate(-78.55 -74.5)"/><path class="cls-11" d="M110.76,85.22c.47,0,.92,0,1.38,0l1.35.2,2.68.41,2.68.4,1.35.2c.43.15.87.29,1.3.45-.46,0-.92,0-1.38,0l-1.34-.2-2.68-.41-2.69-.4-1.34-.2C111.63,85.52,111.2,85.39,110.76,85.22Z" transform="translate(-78.55 -74.5)"/></svg>