<?xml version="1.0" encoding="utf-8"?>
<!-- Generator: Adobe Illustrator 15.1.0, SVG Export Plug-In . SVG Version: 6.00 Build 0)  -->
<!DOCTYPE svg PUBLIC "-//W3C//DTD SVG 1.1//EN" "http://www.w3.org/Graphics/SVG/1.1/DTD/svg11.dtd">
<svg version="1.1" id="Layer_1" xmlns="http://www.w3.org/2000/svg" xmlns:xlink="http://www.w3.org/1999/xlink" x="0px" y="0px"
	 width="512px" height="512px" viewBox="0 0 512 512" style="enable-background:new 0 0 512 512;" xml:space="preserve">
<style type="text/css">
<![CDATA[
	.st0{opacity:0.68;fill:#FCFCFC;enable-background:new    ;}
	.st1{fill:url(#SVGID_1_);enable-background:new    ;}
	.st2{opacity:0.4;}
	.st3{fill:#FFFFFF;}
	.st4{fill:#060707;}
]]>
</style>
<title>Cat</title>
<rect class="st3" width="512" height="512"/>
<g>
	<linearGradient id="SVGID_1_" gradientUnits="userSpaceOnUse" x1="28.0278" y1="140.251" x2="483.9743" y2="372.5673">
		<stop  offset="0" style="stop-color:#16DBD3"/>
		<stop  offset="0.1249" style="stop-color:#27B8CA"/>
		<stop  offset="0.3493" style="stop-color:#427FBC"/>
		<stop  offset="0.557" style="stop-color:#5752B0"/>
		<stop  offset="0.7412" style="stop-color:#6632A8"/>
		<stop  offset="0.8952" style="stop-color:#701EA3"/>
		<stop  offset="1" style="stop-color:#7317A1"/>
	</linearGradient>
	<path class="st1" d="M256,0C114.8,0,0.4,114.8,0.4,256.4c0,134.7,103.5,245.1,235.1,255.6h41.1c131.6-10.5,235.1-120.9,235.1-255.6
		C511.6,114.8,397.2,0,256,0z"/>
</g>
<g class="st2">
	<path class="st0" d="M256,15.2c-132.8,0-240.4,108-240.4,241.2c0,126.7,97.4,230.5,221.1,240.4h38.7
		c123.8-9.9,221.1-113.7,221.1-240.4C496.4,123.2,388.8,15.2,256,15.2z"/>
</g>
<path d="M165.6,419.8c-6.7,0-12.8-1.4-17.8-4.3c-6.1-3.6-16.1-12.9-13.6-34.1c0-0.1,0-0.2,0-0.3c1-7.2,1.5-14.4,1.4-21.7
	c-0.2-14.8-3.3-20.6-5.1-21.7c-1.2-0.7-5.9-0.3-14.9,6.6c-4,3.1-9.8,2.3-12.9-1.7c-3.1-4-2.3-9.8,1.7-12.9c0,0,0,0,0,0
	c14.1-10.8,26-13.4,35.4-7.8c9.2,5.5,13.9,17.7,14.1,37.4c0.1,8.2-0.5,16.3-1.6,24.4c-1,8.2,0.6,13.5,4.7,15.9
	c7.7,4.6,26.5,1.2,47.5-13.9c4.1-3,9.9-2.1,12.8,2.1c3,4.1,2.1,9.9-2.1,12.8c0,0,0,0,0,0C198.1,413.2,180.2,419.8,165.6,419.8z"/>
<path class="st3" d="M165.7,413.5L165.7,413.5c-1.1,0-2.3,0-3.3-0.1l0.5-5.5c0.9,0.1,1.9,0.1,2.8,0.1h0c2.5,0,5-0.2,7.4-0.7l1,5.4
	C171.3,413.2,168.5,413.5,165.7,413.5z M152.5,410.7c-3.8-1.9-7-4.9-9-8.6l4.8-2.7c1.5,2.8,3.8,5,6.7,6.3L152.5,410.7z M183.3,410.3
	l-1.7-5.2c3.4-1.1,6.7-2.5,9.9-4l2.4,5C190.5,407.7,186.9,409.1,183.3,410.3z M202.2,401.6l-2.8-4.8c3-1.8,6.1-3.8,9-5.9l3.2,4.5
	C208.5,397.7,205.4,399.8,202.2,401.6z M140.5,392.4c-0.2-1.5-0.2-2.9-0.2-4.4c0-1.9,0.1-3.9,0.4-5.8l0-0.1c0,0,0.1-0.5,0.2-1.4
	l5.5,0.7c-0.1,0.8-0.2,1.3-0.2,1.5c-0.2,1.7-0.3,3.4-0.3,5.1c0,1.2,0.1,2.5,0.2,3.7L140.5,392.4z M147.3,372.1l-5.5-0.4
	c0.3-3.7,0.4-7.2,0.4-10.5v-0.3l5.5,0v0.3C147.7,364.6,147.5,368.3,147.3,372.1L147.3,372.1z M141.8,351.9
	c-0.3-3.5-0.9-6.9-1.9-10.3l5.3-1.6c1.1,3.7,1.7,7.5,2.1,11.4L141.8,351.9z M112.4,338.8l-3.3-4.4c3.1-2.3,6.4-4.4,9.8-6.1l2.4,5
	C118.1,334.8,115.2,336.6,112.4,338.8L112.4,338.8z M136.4,334.4c-1.7-2.3-4.5-3.6-7.4-3.4l-0.2-5.5c4.6-0.3,9,1.7,11.9,5.4
	L136.4,334.4z"/>
<path d="M288.8,442c-12.1,0-18.6-3.9-21.5-8.9h-34.7c-2.8,4.9-9.4,8.9-21.5,8.9c-6.1,0-20.9-1-25.9-10.6
	c-29.5-55.4-9.7-142.3-2.8-168.2c-30.3-26.1-43-57.2-34-84c1.3-3.9,3-7.6,5.2-11.1l59-98l53.4,64.3c22.9,3.7,45,11.1,65.5,21.8
	l79.6-20.4l-9.5,110c0,5.8-0.9,11.5-2.8,17c-8.5,25.5-35,42.4-72,46.3c5.5,38,6.9,86.7-12.1,122.4C309.7,440.9,294.9,442,288.8,442
	L288.8,442z"/>
<path class="st3" d="M230,177.3c-15.2-4.8-31.4,3.5-36.3,18.7s3.5,31.4,18.7,36.3c15.2,4.8,31.4-3.5,36.3-18.7l0,0
	C253.6,198.4,245.2,182.1,230,177.3z"/>
<path class="st3" d="M331.5,209.7c-15.2-4.8-31.4,3.5-36.3,18.7c-4.8,15.2,3.5,31.4,18.7,36.3c15.2,4.8,31.4-3.5,36.3-18.7l0,0
	C355.1,230.8,346.7,214.5,331.5,209.7L331.5,209.7z"/>
<path class="st4" d="M231,190.6c-6.5-2.1-14.1,3.4-16.9,12.2c-2.8,8.8,0.2,17.6,6.8,19.7s14.1-3.3,16.9-12.2
	C240.6,201.5,237.5,192.7,231,190.6z"/>
<path class="st4" d="M323,220c-6.5-2.1-14.1,3.3-16.9,12.2c-2.8,8.8,0.2,17.6,6.8,19.7c6.5,2.1,14.1-3.3,16.9-12.2l0,0
	C332.6,230.9,329.6,222,323,220z"/>
<polygon class="st3" points="316.2,293.1 307.4,293.3 308.9,301.9 314.3,301 313.9,298.7 316.2,298.6 "/>
<path class="st3" d="M200.2,261.5l1.3-4.2l-3.5-2.8c-0.8-0.6-1.5-1.2-2.3-1.8l-3.5,4.3c0.8,0.6,1.5,1.2,2.3,1.9l0.5,0.4l-0.2,0.7
	c-0.1,0.3-0.4,1.3-0.8,2.9l5.3,1.5C199.8,262.8,200.1,261.8,200.2,261.5z"/>
<rect x="199.1" y="107.9" transform="matrix(-0.5156 0.8568 -0.8568 -0.5156 404.5576 -7.3703)" class="st3" width="10.5" height="5.5"/>
<path class="st3" d="M166.3,227.6c1.8,3.1,3.9,6.1,6,8.9l4.4-3.3c-2.1-2.7-3.9-5.5-5.7-8.4L166.3,227.6z"/>
<path class="st3" d="M162.3,196.3c0-2.1,0.2-4.2,0.5-6.3l-5.4-0.9c-0.4,2.4-0.6,4.8-0.6,7.2c0,1.3,0.1,2.6,0.2,3.9l5.5-0.4
	C162.4,198.6,162.3,197.4,162.3,196.3z"/>
<path class="st3" d="M185.6,251l3.8-4c-2.5-2.4-4.9-4.8-7.2-7.3l-4.1,3.7C180.4,246,182.9,248.5,185.6,251z"/>
<path class="st3" d="M167.8,176.7l2-3.3l-4.7-2.8l-2,3.3c-1.2,2-2.3,4.1-3.2,6.3l5.1,2.1C165.8,180.3,166.8,178.4,167.8,176.7z"/>
<rect x="179.3" y="140.8" transform="matrix(-0.5156 0.8568 -0.8568 -0.5156 402.7354 59.4352)" class="st3" width="10.5" height="5.5"/>
<rect x="169.4" y="157.2" transform="matrix(-0.5156 0.8568 -0.8568 -0.5156 401.8221 92.8323)" class="st3" width="10.5" height="5.5"/>
<rect x="189.2" y="124.4" transform="matrix(-0.5156 0.8568 -0.8568 -0.5156 403.6465 26.0324)" class="st3" width="10.5" height="5.5"/>
<path class="st3" d="M163.9,207.9l-5.3,1.4c0.9,3.5,2.1,7,3.6,10.3l5-2.2C165.8,214.2,164.7,211.1,163.9,207.9z"/>
<polygon class="st3" points="220.1,96.4 214.1,89.2 209.2,97.2 213.9,100.1 214.8,98.7 215.8,99.9 "/>
<rect x="236.5" y="118.6" transform="matrix(-0.7694 0.6387 -0.6387 -0.7694 502.3601 66.2702)" class="st3" width="5.5" height="10.5"/>
<path class="st3" d="M261.1,150.4c3.4,0.5,6.8,1.1,10.2,1.8l1.1-5.4c-3.5-0.7-7-1.3-10.5-1.8L261.1,150.4z"/>
<rect x="248.8" y="133.4" transform="matrix(-0.7695 0.6386 -0.6386 -0.7695 533.6416 84.7095)" class="st3" width="5.5" height="10.5"/>
<rect x="224.1" y="103.7" transform="matrix(-0.7695 0.6387 -0.6387 -0.7695 471.0952 47.9093)" class="st3" width="5.5" height="10.5"/>
<path class="st3" d="M309.7,158.2c-3.3-1.4-6.6-2.6-10-3.8l-1.8,5.2c3.2,1.1,6.5,2.4,9.7,3.7L309.7,158.2z"/>
<rect x="352.7" y="160.9" transform="matrix(-0.9687 0.2483 -0.2483 -0.9687 745.3854 233.354)" class="st3" width="10.5" height="5.5"/>
<rect x="371.4" y="156.1" transform="matrix(-0.9687 0.2481 -0.2481 -0.9687 780.956 219.4097)" class="st3" width="10.5" height="5.5"/>
<path class="st3" d="M327.4,166.6c-3.1-1.7-6.3-3.3-9.5-4.8l-2.3,5c3.1,1.5,6.2,3,9.3,4.6L327.4,166.6z"/>
<rect x="334" y="165.7" transform="matrix(-0.9687 0.2483 -0.2483 -0.9687 709.798 247.4165)" class="st3" width="10.5" height="5.5"/>
<path class="st3" d="M279.7,154.1c3.3,0.8,6.7,1.8,10,2.8l1.6-5.3c-3.4-1-6.8-2-10.3-2.8L279.7,154.1z"/>
<polygon class="st3" points="389.5,152.8 390.9,158.1 392.5,157.7 392.3,159.3 397.8,159.8 398.7,150.4 "/>
<path class="st3" d="M343.3,289.1l1.5,5.3c3.5-1,6.9-2.1,10.3-3.5l-2.1-5.1C349.9,287.1,346.6,288.2,343.3,289.1z"/>
<path class="st3" d="M360.7,282.3l2.6,4.8c3.2-1.8,6.3-3.8,9.2-6.1l-3.4-4.3C366.5,278.8,363.7,280.7,360.7,282.3z"/>
<path class="st3" d="M375.2,271l4.1,3.6c2.5-2.8,4.6-5.9,6.4-9.2l-4.9-2.5C379.2,265.8,377.3,268.5,375.2,271z"/>
<path class="st3" d="M383.7,255.3l5.3,1.4c1-3.6,1.5-7.4,1.5-11.1l-5.5,0C385,248.8,384.5,252.1,383.7,255.3z"/>
<rect x="383.6" y="228.7" transform="matrix(-8.580770e-002 0.9963 -0.9963 -8.580770e-002 652.8997 -136.1133)" class="st3" width="10.6" height="5.5"/>
<rect x="388.6" y="170.8" transform="matrix(-8.580366e-002 0.9963 -0.9963 -8.580366e-002 600.6388 -203.9361)" class="st3" width="10.6" height="5.5"/>
<rect x="386.9" y="190.1" transform="matrix(-8.580770e-002 0.9963 -0.9963 -8.580770e-002 618.0601 -181.3279)" class="st3" width="10.6" height="5.5"/>
<rect x="385.3" y="209.4" transform="matrix(-8.580770e-002 0.9963 -0.9963 -8.580770e-002 635.4796 -158.7209)" class="st3" width="10.6" height="5.5"/>
<path class="st3" d="M324.8,292.5l0.6,5.5c3.7-0.4,7.2-0.9,10.7-1.5l-1-5.4C331.7,291.7,328.3,292.1,324.8,292.5z"/>
<path class="st3" d="M282.2,416.5h-8.3v5.5h2.8v5.6l1,0.8c1.2,1,3.6,1.8,6.7,2.2l0.7-5.5c-1-0.1-1.9-0.3-2.8-0.6V416.5z"/>
<rect x="234.9" y="416.5" class="st3" width="10.7" height="5.5"/>
<rect x="254.4" y="416.5" class="st3" width="10.7" height="5.5"/>
<path class="st3" d="M217.7,424.6c-0.9,0.3-1.9,0.5-2.8,0.6l0.7,5.5c3-0.4,5.5-1.2,6.7-2.2l1-0.8V422h2.8v-5.5h-8.3L217.7,424.6z"/>
<path class="st3" d="M186.5,367.8l-5.5,0.3c0.2,3.6,0.5,7.2,0.8,10.7l5.5-0.6C186.9,374.8,186.7,371.3,186.5,367.8z"/>
<path class="st3" d="M193.1,291.4l-5.4-1.1c-0.7,3.5-1.3,7-1.9,10.5l5.4,0.9C191.8,298.3,192.4,294.9,193.1,291.4z"/>
<path class="st3" d="M186.2,356.2c0-2.5,0-5,0.1-7.5l-5.5-0.2c-0.1,2.6-0.1,5.2-0.1,7.7c0,1,0,2,0,3l5.5-0.1
	C186.2,358.1,186.2,357.1,186.2,356.2z"/>
<path class="st3" d="M188.4,386.8l-5.5,0.8c0.6,3.6,1.2,7.2,2,10.6l5.4-1.2C189.6,393.7,188.9,390.3,188.4,386.8z"/>
<path class="st3" d="M189.8,310.4l-5.5-0.8c-0.5,3.5-1,7.1-1.4,10.5l5.5,0.7C188.8,317.4,189.3,313.9,189.8,310.4z"/>
<path class="st3" d="M181.2,339.6l5.5,0.3c0.2-3.4,0.5-6.9,0.8-10.4L182,329C181.7,332.6,181.4,336.1,181.2,339.6z"/>
<path class="st3" d="M197.2,272.7l-5.4-1.3c-0.8,3.4-1.6,6.8-2.4,10.4l5.4,1.2C195.6,279.4,196.4,276,197.2,272.7z"/>
<path class="st3" d="M199.5,422.8l-4.9,2.5c0.2,0.3,0.3,0.6,0.5,0.9l0.1,0.1c1.9,3,9.5,4.1,11,4.3l0.6-5.5c-2.5-0.2-4.9-0.8-7.1-1.9
	C199.6,423.1,199.5,422.9,199.5,422.8z"/>
<path class="st3" d="M192.5,405.3l-5.3,1.6c1.1,3.5,2.3,7,3.6,10.2l5.1-2.1C194.6,411.9,193.5,408.7,192.5,405.3z"/>
<path class="st3" d="M313.7,348.7c0.1,2.4,0.1,4.9,0.1,7.2c0,1.1,0,2.1,0,3.2l5.5,0.1c0-1.1,0-2.2,0-3.3c0-2.4,0-4.9-0.1-7.4
	L313.7,348.7z"/>
<path class="st3" d="M312.7,378.2l5.5,0.6c0.4-3.5,0.6-7,0.8-10.7l-5.5-0.3C313.4,371.4,313.1,374.9,312.7,378.2z"/>
<path class="st3" d="M318.9,339.7c-0.2-3.5-0.5-7-0.8-10.6l-5.5,0.5c0.3,3.5,0.6,7,0.8,10.4L318.9,339.7z"/>
<path class="st3" d="M317.1,320.3c-0.4-3.5-0.9-7-1.4-10.5l-5.5,0.8c0.5,3.5,1,7,1.4,10.4L317.1,320.3z"/>
<path class="st3" d="M309.6,397l5.4,1.2c0.8-3.4,1.5-6.9,2-10.6l-5.4-0.9C311.1,390.3,310.4,393.8,309.6,397z"/>
<path class="st3" d="M300.2,423.2c-2.2,1.1-4.6,1.7-7.1,1.9l0.6,5.5c1.5-0.2,9.2-1.2,11.1-4.3l0.1-0.1c0.1-0.3,0.3-0.6,0.4-0.8
	l-4.9-2.5C300.4,422.9,300.3,423.1,300.2,423.2z"/>
<path class="st3" d="M304,415l5.1,2.1c1.3-3.2,2.5-6.7,3.6-10.2l-5.3-1.6C306.4,408.7,305.3,412,304,415z"/>
</svg>
