<?xml version="1.0" encoding="UTF-8" standalone="no"?>
<!-- Generator: Gravit.io --><svg xmlns="http://www.w3.org/2000/svg" xmlns:xlink="http://www.w3.org/1999/xlink"
    style="isolation:isolate" viewBox="0 0 325 400" width="325pt" height="400pt">
    <clipPath id="_clipPath_SS63h8cFVePKHjqnJE92MnZWaWugrV3H">
        <path d=" M 0 0 L 325 0 L 325 400 L 0 400 L 0 0 Z " id="Strecke" fill="rgb(255,255,255)" />
    </clipPath>
    <g clip-path="url(#_clipPath_SS63h8cFVePKHjqnJE92MnZWaWugrV3H)">
        <g id="body">
            <path
                d=" M 135.568 348.479 C 137.637 360.807 134.787 383.086 131.59 391.228 L 132.084 391.145 C 122.883 396.746 103.153 393.974 97.397 392.912 L 94.766 392.339 C 95.342 392.75 98.528 375.485 98.193 370.47 C 96.447 354.032 83.281 342.047 81.618 326.102"
                id="Strecke" fill="rgb(27,31,33)" />
            <path
                d=" M 132.966 350.715 C 134.884 363.28 133.673 379.035 129.213 391.006 C 128.653 392.511 128.743 394.972 130.955 394.6 L 131.449 394.517 C 131.643 392.362 131.838 390.207 132.032 388.053 C 121.917 393.713 106.925 391.272 96.057 388.908 C 95.415 391.176 94.773 393.443 94.131 395.711 C 97.844 394.437 98.27 389.138 98.891 385.885 C 99.895 380.633 101.11 374.951 100.92 369.575 C 100.337 353.1 86.374 340.716 84.322 324.601 C 83.759 320.177 78.547 324.715 78.915 327.603 C 80.658 341.294 89.582 351.771 93.79 364.585 C 95.591 370.07 95.599 374.638 94.799 380.23 C 94.442 382.733 94.026 385.229 93.54 387.71 C 93.389 388.485 93.038 389.491 93.005 390.284 C 92.992 390.602 92.227 392.334 92.893 391.188 C 93.754 390.439 94.615 389.69 95.477 388.941 C 95.452 388.95 95.427 388.958 95.402 388.967 C 93.435 389.642 89.935 394.999 93.477 395.77 C 105.404 398.364 121.034 400.45 132.136 394.236 C 133.917 393.24 136.654 387.11 132.72 387.773 C 132.555 387.8 132.391 387.828 132.226 387.856 C 132.807 389.053 133.388 390.251 133.968 391.449 C 139.044 377.822 140.354 360.542 138.171 346.242 C 137.892 344.412 135.761 345.177 134.832 345.868 C 133.385 346.945 132.703 348.992 132.966 350.715 Z "
                id="Strecke" fill="rgb(2,4,7)" />
            <path
                d=" M 188.322 348.479 C 186.253 360.807 189.103 383.086 192.3 391.228 L 191.806 391.145 C 201.007 396.746 220.737 393.974 226.493 392.912 L 229.124 392.339 C 228.548 392.75 225.362 375.485 225.697 370.47 C 227.443 354.032 240.609 342.047 242.272 326.102"
                id="Strecke" fill="rgb(27,31,33)" />
            <path
                d=" M 185.693 349.146 C 184.494 357.002 184.805 365.046 185.632 372.924 C 186.354 379.8 187.271 386.951 189.697 393.464 C 190.994 391.575 192.292 389.686 193.589 387.797 C 193.425 387.769 193.261 387.741 193.096 387.714 C 190.603 387.294 187.382 392.965 189.931 394.392 C 200.94 400.553 216.661 398.283 228.488 395.711 C 230.231 395.332 233.776 390.044 230.999 389.091 C 231.915 389.406 231.198 389.345 231.023 388.086 C 230.914 387.309 230.665 386.498 230.507 385.73 C 230.009 383.314 229.593 380.877 229.228 378.439 C 228.39 372.837 228.097 368.081 229.876 362.569 C 234.024 349.714 243.153 339.16 244.901 325.434 C 245.521 320.564 240.054 323.542 239.643 326.769 C 237.639 342.512 225.105 354.532 223.166 370.373 C 222.57 375.246 223.58 380.326 224.375 385.129 C 224.663 386.873 225.02 394.821 227.249 395.586 C 228.085 393.38 228.922 391.173 229.759 388.967 C 218.782 391.354 203.905 393.618 193.681 387.897 C 192.626 390.123 191.571 392.349 190.516 394.575 L 191.009 394.658 C 193.331 395.049 195.631 390.949 194.902 388.991 C 190.308 376.657 188.971 360.776 190.951 347.811 C 191.692 342.957 186.181 345.948 185.693 349.146 Z "
                id="Strecke" fill="rgb(2,4,7)" />
            <path
                d=" M 100.432 161.358 C 93.932 195.858 85.932 230.358 73.432 264.358 C 73.432 265.358 72.932 266.358 72.432 267.358 L 72.432 270.358 C 75.932 266.358 80.432 261.858 82.932 258.358 L 82.932 259.358 C 63.432 283.358 75.432 315.858 90.932 339.358 L 92.932 339.858 C 92.432 338.358 92.432 336.858 92.932 335.358 L 91.932 335.858 C 109.932 351.358 133.932 358.358 156.48 357.626 L 169.452 357.767 C 192 358.5 216 351.5 234 336 L 233 335.5 C 233.5 337 233.5 338.5 233 340 L 235 339.5 C 250.5 316 262.5 283.5 243 259.5 L 243 258.5 C 245.5 262 250 266.5 253.5 270.5 L 253.5 267.5 C 253 266.5 252.5 265.5 252.5 264.5 C 240 230.5 232 196 225.5 161.5"
                id="Strecke" fill="rgb(255,255,255)" />
            <path
                d=" M 97.803 162.026 C 94.053 181.846 89.85 201.586 84.631 221.076 C 81.904 231.26 78.884 241.366 75.537 251.364 C 73.305 258.029 69.728 264.761 69.728 271.859 C 69.728 274.74 72.594 273.679 73.812 272.306 C 77.338 268.334 81.125 264.566 84.312 260.306 C 82.951 260.157 81.59 260.008 80.228 259.859 L 80.228 260.859 C 80.669 259.71 81.11 258.56 81.551 257.41 C 71.137 270.681 68.224 286.876 71.487 303.262 C 73.134 311.533 76.182 319.455 79.884 327.011 C 81.795 330.912 83.911 334.711 86.192 338.408 C 87.887 341.157 88.582 342.524 91.642 343.289 C 94.139 343.913 95.946 339.475 95.534 337.622 C 95.543 336.645 95.552 335.668 95.561 334.691 C 95.982 332.796 94.751 331.331 92.88 332.266 C 92.547 332.433 92.213 332.6 91.88 332.766 C 89.951 333.731 88.07 337.43 90.057 339.106 C 101.529 348.784 115.182 355.304 129.801 358.623 C 140.683 361.093 151.577 361.017 162.646 361.138 C 173.851 361.26 184.815 361.004 195.78 358.335 C 210.118 354.846 223.46 348.124 234.736 338.61 C 235.88 337.645 238.059 333.844 235.875 332.752 L 234.875 332.252 C 232.181 330.905 229.947 335.707 230.398 337.736 C 230.389 338.713 230.38 339.69 230.371 340.668 C 230.075 341.999 230.679 343.793 232.365 343.372 C 238.528 341.831 241.55 333.436 244.276 328.204 C 248.373 320.34 251.74 312.09 253.82 303.456 C 255.733 295.515 256.439 287.197 255.197 279.096 C 254.564 274.965 253.427 270.957 251.721 267.14 C 250.908 265.321 250.006 263.546 248.976 261.84 C 248.248 260.635 245.704 258.25 245.704 256.999 C 244.027 258.443 242.351 259.888 240.674 261.332 C 243.861 265.592 247.648 269.36 251.174 273.332 C 253.387 275.825 256.204 270.843 256.204 268.999 C 256.204 261.739 252.279 254.525 250.012 247.663 C 246.81 237.969 243.916 228.174 241.275 218.313 C 236.056 198.824 231.852 179.083 228.103 159.263 C 227.42 155.653 222.38 161.001 222.898 163.736 C 226.53 182.933 230.585 202.054 235.58 220.946 C 238.024 230.189 240.687 239.375 243.615 248.477 C 245.19 253.375 246.842 258.248 248.576 263.092 C 249.668 266.144 250.797 268.796 250.797 272.001 C 252.473 270.556 254.15 269.112 255.826 267.667 C 252.3 263.694 248.513 259.927 245.326 255.667 C 243.298 252.956 240.297 258.334 240.297 260.001 C 240.297 262.586 242.134 264.116 243.496 266.19 C 245.587 269.376 247.224 272.822 248.369 276.455 C 250.575 283.454 250.887 290.897 249.854 298.134 C 247.776 312.694 241.008 326.182 233.052 338.375 C 233.913 337.626 234.774 336.877 235.636 336.128 L 233.636 336.628 C 234.3 337.529 234.965 338.431 235.629 339.332 C 236.111 337.165 236.081 335.415 235.603 333.263 C 234.11 335.091 232.618 336.919 231.125 338.747 C 231.459 338.914 231.792 339.081 232.125 339.247 C 232.505 337.295 232.884 335.342 233.264 333.389 C 222.139 342.775 208.89 349.032 194.688 352.134 C 184.266 354.411 173.87 354.371 163.286 354.255 C 152.856 354.142 142.631 354.088 132.381 351.762 C 118.165 348.535 104.947 342.009 93.807 332.611 C 93.199 334.724 92.592 336.837 91.984 338.95 C 92.317 338.784 92.651 338.617 92.984 338.45 C 92.09 337.642 91.197 336.834 90.303 336.026 C 89.822 338.193 89.851 339.943 90.329 342.095 C 91.627 340.206 92.924 338.317 94.222 336.428 C 91.69 335.795 90.65 332.479 89.279 330.146 C 87.459 327.051 85.75 323.886 84.195 320.65 C 80.752 313.484 78.01 305.878 76.545 298.049 C 75.082 290.234 74.982 281.955 77.338 274.298 C 78.421 270.777 80.016 267.406 82.059 264.341 C 83.802 261.727 85.636 260.111 85.636 256.857 C 85.636 254.102 82.709 254.863 81.551 256.41 C 78.364 260.669 74.577 264.437 71.051 268.41 C 72.413 268.559 73.774 268.708 75.136 268.857 C 75.136 265.935 76.12 263.906 77.131 260.935 C 78.79 256.064 80.516 251.22 82.092 246.32 C 85.017 237.228 87.678 228.05 90.133 218.82 C 95.24 199.629 99.37 180.199 103.061 160.691 C 103.973 155.869 98.399 158.874 97.803 162.026 Z "
                id="Strecke" fill="rgb(2,4,7)" />
            <path
                d=" M 93 195 C 95 185.5 100.5 175.5 100 165.5 C 137 156 186.5 141.5 222.5 163.5 C 223.5 164 227.5 164.5 224.5 165 L 224.5 164 C 229 165.5 234.5 202 234.5 209 C 230 200 219 192.5 209.5 189 C 191.5 182 169.5 180.5 150 181 C 132.5 181.5 103.5 183.5 92.5 198.5"
                id="Strecke" fill="rgb(27,31,33)" />
            <path
                d=" M 95.629 194.332 C 97.97 184.123 102.892 174.693 102.704 163.999 C 101.591 165.623 100.478 167.247 99.365 168.872 C 120.713 163.379 142.19 157.402 164.266 155.788 C 175.037 155 185.963 155.258 196.569 157.432 C 202.051 158.556 207.402 160.211 212.516 162.488 C 214.848 163.526 217.057 164.753 219.302 165.959 C 220.583 166.646 222.575 167.013 223.716 167.819 C 223.88 166.087 224.045 164.355 224.21 162.623 C 224.519 162.291 224.827 161.959 225.136 161.628 L 227.204 163.499 L 227.204 162.499 C 225.678 164.082 224.151 165.664 222.625 167.247 C 224.408 168.084 225.115 172.08 225.604 173.735 C 226.91 178.155 227.837 182.695 228.688 187.221 C 230.117 194.822 231.696 202.739 231.796 210.501 C 233.473 209.056 235.15 207.612 236.826 206.167 C 230.318 194.034 217.147 187.246 204.472 183.379 C 188.952 178.645 172.511 177.382 156.355 177.487 C 135.126 177.625 105.389 178.047 91.12 196.552 C 88.794 199.567 90.819 204.418 93.881 200.448 C 100.625 191.702 112.467 188.601 122.85 186.746 C 134.14 184.73 145.751 184.262 157.201 184.349 C 171.658 184.458 186.337 185.708 200.27 189.757 C 212.757 193.386 225.788 199.926 232.174 211.832 C 233.77 214.808 237.223 208.96 237.204 207.499 C 237.092 198.904 235.307 190.062 233.685 181.657 C 232.779 176.958 231.81 172.214 230.317 167.66 C 229.606 165.492 228.664 161.826 226.375 160.752 C 223.917 159.6 221.796 163.551 221.796 165.501 L 221.796 166.501 C 221.796 167.691 222.621 168.672 223.865 168.372 C 225.227 168.042 226.019 167.519 226.971 166.519 C 228.059 165.377 229.098 162.477 227.466 161.324 C 226.262 160.473 224.368 160.146 223.052 159.463 C 220.79 158.29 218.6 157.032 216.266 155.993 C 211.486 153.864 206.466 152.231 201.368 151.052 C 190.075 148.44 178.371 148.089 166.846 148.926 C 144.299 150.565 122.44 156.517 100.636 162.128 C 98.702 162.625 97.263 165.106 97.296 167.001 C 97.472 176.976 92.564 186.105 90.371 195.667 C 89.277 200.44 94.92 197.424 95.629 194.332 Z "
                id="Strecke" fill="rgb(2,4,7)" />
            <path
                d=" M 100.45 166.482 C 101.62 167.129 97.873 187.662 94.643 195.967 C 93.028 200.12 90.783 203.993 88.727 207.834 C 88.291 208.684 87.478 209.598 87.543 209.975 C 87.543 209.975 79.195 204.232 79.606 197.572 C 80.016 190.912 94.305 171.414 96.307 167.191 C 96.307 167.191 97.239 164.706 100.45 166.482 Z "
                id="Strecke" fill="rgb(27,31,33)" />
            <path
                d=" M 99.756 167.699 C 99.633 167.6 99.746 167.547 99.722 167.969 C 99.695 168.417 99.699 168.866 99.667 169.315 C 99.566 170.709 99.359 172.097 99.146 173.477 C 98.551 177.345 97.781 181.19 96.898 185.003 C 96.089 188.492 95.221 192.003 93.954 195.36 C 92.888 198.188 91.49 200.875 90.06 203.533 C 89.404 204.752 88.77 205.989 88.082 207.189 C 87.539 208.134 86.849 208.954 86.633 210.044 L 88.236 208.758 C 85.789 207.058 83.471 204.756 81.975 202.178 C 79.971 198.725 80.537 195.954 82.111 192.566 C 85.382 185.529 89.932 179.087 94.106 172.572 C 94.92 171.302 95.748 170.035 96.486 168.719 C 96.596 168.521 96.706 168.323 96.81 168.122 C 96.939 167.876 97.353 167.389 97.005 167.719 C 97.879 166.889 98.95 167.334 99.953 167.826 C 100.972 168.326 102.026 165.668 100.947 165.138 C 99.06 164.212 97.102 164.25 95.886 166.144 C 95.773 166.321 95.697 166.507 95.594 166.688 C 95.434 166.973 95.681 166.538 95.436 166.991 C 95.123 167.572 94.784 168.139 94.44 168.703 C 92.305 172.2 90.006 175.598 87.818 179.062 C 85.383 182.917 82.961 186.818 80.984 190.932 C 79.393 194.245 77.99 197.665 79.076 201.366 C 80.244 205.35 83.489 208.856 86.85 211.191 C 87.654 211.75 88.321 210.567 88.452 209.905 C 88.615 209.082 89.861 207.57 90.357 206.656 C 91.133 205.226 91.913 203.799 92.656 202.351 C 93.885 199.957 95.04 197.511 95.925 194.966 C 97.256 191.136 98.217 187.163 99.092 183.208 C 99.962 179.267 100.741 175.29 101.26 171.286 C 101.416 170.076 102.375 166.25 101.143 165.265 C 100.127 164.452 98.896 167.01 99.756 167.699 Z "
                id="Strecke" fill="rgb(2,4,7)" />
            <path
                d=" M 223.674 163.897 C 222.579 164.589 227.369 184.237 230.965 192.088 C 232.763 196.013 235.153 199.632 237.36 203.23 C 237.83 204.028 238.668 204.866 238.627 205.234 C 238.627 205.234 246.376 199.206 245.601 192.787 C 244.826 186.368 229.898 168.319 227.722 164.348 C 227.722 164.348 226.68 161.997 223.674 163.897 Z "
                id="Strecke" fill="rgb(27,31,33)" />
            <path
                d=" M 223.246 163.124 C 221.756 164.465 222.632 167.342 222.936 168.991 C 223.638 172.794 224.601 176.555 225.644 180.277 C 226.703 184.054 227.847 187.837 229.323 191.474 C 230.304 193.891 231.539 196.193 232.864 198.437 C 233.666 199.794 234.501 201.131 235.332 202.47 C 235.685 203.038 236.02 203.62 236.388 204.177 C 236.735 204.703 237.417 205.331 237.578 205.95 C 237.73 206.536 238.348 206.573 238.791 206.225 C 241.476 204.115 243.917 201.353 245.406 198.27 C 247.193 194.572 246.868 191.287 245.105 187.73 C 241.317 180.088 235.685 173.39 230.75 166.483 C 230.006 165.441 229.353 164.345 228.636 163.291 C 227.326 161.368 225.277 161.907 223.51 162.906 C 222.459 163.501 222.257 165.782 223.838 164.888 C 225.426 163.989 226.25 164.495 227.042 165.791 C 227.64 166.769 228.321 167.701 228.989 168.632 C 231.076 171.541 233.225 174.405 235.307 177.318 C 237.532 180.432 239.728 183.584 241.666 186.887 C 243.141 189.401 244.979 192.33 244.503 195.371 C 243.958 198.85 240.959 202.282 238.463 204.243 C 238.867 204.335 239.272 204.426 239.676 204.518 C 239.43 203.57 238.673 202.816 238.157 201.999 C 237.38 200.768 236.617 199.526 235.857 198.284 C 234.44 195.967 233.063 193.615 231.937 191.141 C 230.466 187.913 229.398 184.497 228.393 181.102 C 227.331 177.516 226.378 173.893 225.58 170.239 C 225.277 168.851 224.99 167.457 224.778 166.051 C 224.706 165.573 224.625 165.089 224.599 164.606 C 224.592 164.489 224.611 164.284 224.571 164.171 C 224.368 163.585 225.443 163.463 224.102 164.67 C 225.167 163.711 224.618 161.888 223.246 163.124 Z "
                id="Strecke" fill="rgb(2,4,7)" />
        </g>
        <g id="left_ear">
            <path
                d=" M 109.667 35.5 C 108 25.5 95.667 15.167 87.334 10.5 C 72.667 2.5 56 13.834 51 28.167 C 47 39.834 48.667 54.5 57.667 63.834 C 68.334 74.834 82 68.167 93 62.5"
                id="Strecke" fill="rgb(27,31,33)" />
            <path
                d=" M 110.968 34.382 C 109.587 27.755 105.179 22.351 100.345 17.817 C 95.402 13.18 89.318 8.275 82.581 6.699 C 69.32 3.597 56.436 13.517 51.06 25.035 C 45.344 37.282 46.435 53.753 55.498 64.15 C 66.138 76.357 80.9 70.27 93.026 64.046 C 94.302 63.391 94.947 59.941 92.974 60.954 C 81.994 66.59 68.344 72.658 58.327 61.867 C 49.483 52.341 47.807 36.404 53.617 24.907 C 59.259 13.742 72.877 5.871 85.057 11.45 C 94.796 15.909 106.108 25.783 108.366 36.618 C 108.743 38.429 111.253 35.749 110.968 34.382 Z "
                id="Strecke" fill="rgb(2,4,7)" />
        </g>
        <g id="right_ear">
            <path
                d=" M 205.667 33.5 C 210.667 19.834 218.334 5.167 235.334 3.5 C 250.334 2.167 264.667 18.167 262.667 32.5 C 261.334 43.167 256 56.5 245.334 59.5 C 236.334 61.834 228 58.5 219.667 56.834"
                id="Strecke" fill="rgb(27,31,33)" />
            <path
                d=" M 206.856 33.611 C 210.547 23.665 215.483 12.971 225.406 7.903 C 236.649 2.162 249.162 6.349 256.427 16.225 C 263.503 25.843 262.248 38.288 256.526 48.313 C 248.301 62.725 233.628 57.941 220.312 55.118 C 218.913 54.822 217.346 58.194 219.022 58.549 C 227.433 60.332 236.384 63.645 245.017 61.186 C 250.574 59.604 254.836 55.398 257.8 50.584 C 264.155 40.263 266.749 26.505 260.286 15.7 C 253.347 4.099 239.797 -1.403 227.144 3.974 C 215.029 9.123 208.806 21.726 204.479 33.39 C 203.611 35.728 206.185 35.42 206.856 33.611 Z "
                id="Strecke" fill="rgb(2,4,7)" />
        </g>
        <g id="head">
            <path
                d=" M 167 188.5 C 264.666 157.5 252.334 125.833 252.334 125.833 C 251.668 98.833 214 38.167 214 38.167 C 202.666 24.834 167 18.834 167 18.834 L 173 3.834 L 153.562 19.834 C 153.562 19.834 117.896 25.834 106.562 39.167 C 106.562 39.167 68.894 99.833 68.228 126.833 C 68.228 126.833 55.896 158.5 153.562 189.5 C 153.562 189.5 162.485 189.959 167 188.5 Z "
                id="Strecke" fill="rgb(255,255,255)" />
            <path
                d=" M 166.364 191.872 C 192.02 183.668 220.31 173.779 240.523 155.151 C 247.95 148.307 255.451 138.85 255.536 128.212 C 255.627 116.694 251.289 104.799 246.983 94.257 C 238.983 74.673 228.755 55.902 217.833 37.807 C 213.112 29.987 204.003 25.949 195.749 22.84 C 186.909 19.51 177.608 16.988 168.29 15.403 C 168.652 16.62 169.014 17.838 169.377 19.055 L 175.377 4.055 C 176.362 1.591 174.659 -0.749 172.263 1.223 C 169.024 3.89 165.784 6.556 162.544 9.223 C 160.415 10.976 158.285 12.729 156.155 14.482 C 155.421 15.087 154.634 15.662 153.936 16.309 C 152.599 17.547 152.684 16.616 154.166 16.467 C 144.445 17.444 134.132 20.967 125.142 24.563 C 116.324 28.09 107.873 32.597 102.877 40.895 C 97.397 49.998 92.192 59.274 87.277 68.693 C 80.539 81.604 74.07 94.874 69.553 108.747 C 67.761 114.25 65.905 120.181 65.663 126.009 C 65.642 126.533 65.48 128.959 65.844 126.628 C 65.835 126.687 65.796 126.743 65.786 126.803 C 65.694 127.349 65.435 127.868 65.351 128.42 C 63.836 138.319 69.41 147.303 76.121 154.124 C 85.835 163.999 98.222 171.045 110.63 176.951 C 120.716 181.752 131.147 185.81 141.703 189.447 C 145.716 190.829 149.876 192.814 154.146 192.988 C 158.169 193.151 162.473 192.945 166.364 191.872 C 169.049 191.131 171.275 184.124 167.635 185.128 C 159.258 187.439 152.509 185.401 144.582 182.651 C 135.64 179.549 126.797 176.132 118.176 172.219 C 106.465 166.904 94.829 160.705 84.975 152.346 C 79.883 148.027 74.924 142.779 72.216 136.578 C 71.505 134.95 70.725 132.28 70.57 131.104 C 70.477 130.4 70.449 129.694 70.43 128.986 C 70.394 127.594 70.442 128.546 70.482 127.829 C 70.547 126.627 70.67 126.625 70.596 127.081 C 71.299 122.76 71.683 118.453 72.818 114.174 C 76.281 101.119 82.218 88.616 88.274 76.597 C 93.426 66.372 98.964 56.338 104.787 46.48 C 105.922 44.557 106.952 42.206 108.392 40.484 C 111.291 37.015 117.03 34.323 121.34 32.391 C 128.163 29.333 135.414 27.185 142.663 25.401 C 145.918 24.6 149.809 24.41 152.926 23.206 C 156.681 21.755 160.204 17.582 163.25 15.075 C 166.745 12.198 170.241 9.321 173.736 6.444 L 170.622 3.612 L 164.622 18.612 C 164.133 19.836 164.015 21.976 165.71 22.264 C 172.929 23.492 180.121 25.324 187.074 27.606 C 195.313 30.309 206.521 33.975 211.867 41.312 C 215.364 46.112 218.093 51.744 221 56.903 C 226.433 66.546 231.618 76.342 236.328 86.359 C 242.909 100.357 247.714 114.139 250.05 129.369 C 250.059 129.429 250.056 129.069 250.1 129.95 C 250.129 130.53 250.136 131.105 250.113 131.685 C 250.097 132.096 249.689 134.449 249.552 134.914 C 248.265 139.301 245.591 143.084 242.348 146.64 C 235.608 154.029 226.903 159.599 218.211 164.392 C 202.222 173.207 184.987 179.58 167.635 185.128 C 164.995 185.972 162.813 193.007 166.364 191.872 Z "
                id="Strecke" fill="rgb(2,4,7)" />
            <path
                d=" M 192 71.834 C 166 82.5 175 136.5 202.667 138.834 C 218 140.167 233 132.5 234.667 116.167 C 236 100.5 229.334 88.834 217.334 79.5 C 208.334 72.5 201.667 71.167 191.667 71.834"
                id="Strecke" fill="rgb(27,31,33)" />
            <path
                d=" M 191.974 70.288 C 169.794 79.927 171.771 113.986 184.509 130.297 C 192.613 140.674 205.715 143.067 217.888 138.583 C 233.009 133.014 238.55 117.699 235.229 102.661 C 233.207 93.5 227.65 85.799 220.6 79.775 C 212.096 72.509 203.435 69.487 192.312 70.119 C 190.857 70.201 189.463 73.638 191.022 73.549 C 198.692 73.114 205.664 74.068 212.286 78.218 C 218.763 82.277 224.654 87.885 228.549 94.5 C 236.556 108.099 235.671 128.024 219.514 134.796 C 208.81 139.282 196.242 138.038 188.298 129.21 C 181.665 121.838 178.372 111.551 177.945 101.763 C 177.455 90.519 180.908 78.211 192.026 73.38 C 193.354 72.803 194.02 69.399 191.974 70.288 Z "
                id="Strecke" fill="rgb(2,4,7)" />
            <path
                d=" M 132.077 73.251 C 158.077 83.918 149.077 137.918 121.41 140.251 C 106.077 141.584 91.077 133.918 89.41 117.584 C 88.077 101.918 94.743 90.251 106.743 80.918 C 115.743 73.918 122.41 72.584 132.41 73.251"
                id="Strecke" fill="rgb(27,31,33)" />
            <path
                d=" M 131.14 74.875 C 150.324 83.212 149.081 111.575 139.559 126.686 C 133.227 136.734 122.979 140.292 111.457 137.986 C 95.375 134.768 87.988 120.399 91.464 104.862 C 93.44 96.028 99.018 88.803 105.929 83.164 C 113.762 76.773 121.751 74.398 131.766 74.967 C 133.222 75.049 134.694 71.629 133.056 71.536 C 124.319 71.04 116.646 72.487 109.318 77.466 C 102.266 82.256 95.949 88.643 92.102 96.314 C 85.423 109.634 85.75 128.373 99.348 137.166 C 110.351 144.282 126.072 144.144 135.752 134.965 C 143.999 127.144 148.091 115.31 148.782 104.172 C 149.567 91.53 145.565 77.081 133.015 71.627 C 131.576 71.002 129.776 74.282 131.14 74.875 Z "
                id="Strecke" fill="rgb(2,4,7)" />
        </g>
        <g id="nose">
            <path
                d=" M 149.667 146.834 C 155.333 145.166 164 144.834 170.334 145.834 C 167.667 148.166 164 149.834 161.667 151.834 C 158.667 150.166 153.667 148.166 150 147.834"
                id="Strecke" fill="rgb(27,31,33)" />
            <path
                d=" M 149.349 148.52 C 155.927 146.73 162.963 146.591 169.689 147.549 C 169.781 146.541 169.873 145.535 169.966 144.528 C 167.227 146.749 164.065 148.344 161.299 150.528 C 161.734 150.422 162.169 150.316 162.604 150.21 C 158.872 148.228 154.853 146.665 150.645 146.118 C 149.207 145.932 147.688 149.332 149.355 149.549 C 153.374 150.072 157.166 151.564 160.729 153.457 C 161.19 153.703 161.674 153.424 162.035 153.139 C 164.801 150.955 167.959 149.364 170.702 147.139 C 171.343 146.618 172.44 144.326 170.979 144.118 C 164.069 143.134 156.743 143.308 149.985 145.147 C 148.64 145.514 147.526 149.016 149.349 148.52 Z "
                id="Strecke" fill="rgb(2,4,7)" />
        </g>
        <g id="right_eye">
            <path
                d=" M 209.292 106.257 C 209.292 113.146 204.416 118.731 198.403 118.731 C 192.388 118.731 187.512 113.146 187.512 106.257 C 187.512 99.368 192.388 93.784 198.403 93.784 C 204.416 93.784 209.292 99.368 209.292 106.257 Z "
                id="Strecke" fill="rgb(255,255,255)" />
            <path
                d=" M 207.177 106.748 C 207.177 113.285 202.551 118.584 196.845 118.584 C 191.138 118.584 186.512 113.285 186.512 106.748 C 186.512 100.212 191.138 94.913 196.845 94.913 C 202.551 94.913 207.177 100.212 207.177 106.748 Z "
                id="Strecke" fill="rgb(2,4,7)" />
            <path
                d=" M 207.177 106.748 C 207.177 113.285 202.551 118.584 196.845 118.584 C 191.138 118.584 186.512 113.285 186.512 106.748 C 186.512 100.212 191.138 94.913 196.845 94.913 C 202.551 94.913 207.177 100.212 207.177 106.748 Z "
                id="Strecke" fill="none" vector-effect="non-scaling-stroke" stroke-width="0.65" stroke="rgb(2,4,7)"
                stroke-linejoin="miter" stroke-linecap="square" stroke-miterlimit="3" />
            <path
                d=" M 200.151 97.981 C 199.374 98.094 198.617 98.96 198.09 99.487 C 197.27 100.307 196.515 101.147 195.859 102.105 C 195.492 102.641 195.189 103.883 195.896 104.291 C 196.663 104.734 197.452 103.749 197.808 103.23 C 197.442 103.763 197.785 103.282 197.871 103.175 C 197.986 103.03 198.105 102.89 198.227 102.75 C 198.357 102.601 198.491 102.453 198.626 102.308 C 198.695 102.234 198.765 102.16 198.834 102.087 C 198.687 102.238 198.685 102.241 198.827 102.097 C 199.08 101.85 199.332 101.6 199.602 101.371 C 199.709 101.28 200.095 101.044 199.632 101.321 C 199.924 101.146 199.406 101.369 199.515 101.353 C 200.902 101.152 202.073 97.703 200.151 97.981 Z "
                id="Strecke" fill="rgb(249,249,249)" />
            <path
                d=" M 200.465 99.362 C 199.459 100.349 198.288 101.189 197.477 102.36 C 197.051 102.974 196.469 104.025 197.004 104.75 C 197.502 105.424 198.504 104.818 198.857 104.308 C 199.04 104.044 199.244 103.799 199.461 103.563 C 199.289 103.75 199.477 103.55 199.557 103.472 C 199.68 103.354 199.805 103.239 199.931 103.124 C 200.353 102.739 200.793 102.373 201.201 101.973 C 201.801 101.384 202.4 100.431 202.134 99.549 C 201.891 98.743 200.967 98.869 200.465 99.362 Z "
                id="Strecke" fill="rgb(249,249,249)" />
            <path
                d=" M 201.193 100.438 C 201.309 100.269 201.159 100.475 201.119 100.526 C 201.01 100.666 200.902 100.805 200.791 100.943 C 200.587 101.196 200.378 101.443 200.171 101.693 C 199.704 102.256 199.272 102.834 198.859 103.438 C 198.492 103.974 198.189 105.216 198.896 105.624 C 199.663 106.067 200.452 105.083 200.808 104.563 C 200.692 104.732 200.842 104.526 200.882 104.475 C 200.99 104.335 201.099 104.196 201.21 104.058 C 201.413 103.805 201.622 103.558 201.829 103.308 C 202.296 102.745 202.728 102.167 203.142 101.563 C 203.509 101.027 203.812 99.785 203.105 99.377 C 202.338 98.934 201.549 99.918 201.193 100.438 Z "
                id="Strecke" fill="rgb(249,249,249)" />
        </g>
        <g id="right_hand">
            <path
                d=" M 229.49 93.129 C 226.16 94.206 225.505 148.828 229.644 171.782 C 231.714 183.259 235.54 194.331 238.899 205.227 C 239.593 207.629 241.223 210.385 240.869 211.32 C 240.869 211.32 265.189 200.748 267.469 183.433 C 269.749 166.118 242.805 108.876 239.777 97.025 C 239.777 97.025 238.629 90.174 229.49 93.129 Z "
                id="Strecke" fill="rgb(27,31,33)" />
            <path
                d=" M 228.889 90.818 C 224.089 93.329 224.45 101.444 224.14 105.962 C 223.425 116.383 223.42 126.871 223.651 137.31 C 223.886 147.901 224.341 158.567 225.762 169.074 C 226.706 176.057 228.392 182.907 230.353 189.668 C 231.539 193.757 232.827 197.815 234.103 201.877 C 234.644 203.599 235.131 205.347 235.72 207.052 C 236.276 208.661 237.638 210.763 237.643 212.49 C 237.647 214.124 239.239 214.635 240.633 214.022 C 249.075 210.304 257.314 204.715 263.28 197.65 C 270.436 189.173 271.792 180.36 269.566 169.87 C 264.785 147.333 254.542 126.029 246.267 104.643 C 245.019 101.419 244.048 98.112 242.878 94.874 C 240.743 88.964 235.02 88.998 229.726 90.427 C 226.576 91.277 224.517 97.11 229.254 95.832 C 234.012 94.546 235.827 96.422 237.03 100.344 C 237.938 103.306 239.094 106.199 240.217 109.084 C 243.726 118.096 247.426 127.033 250.918 136.052 C 254.65 145.694 258.281 155.413 261.134 165.358 C 263.305 172.924 266.148 181.822 262.861 189.459 C 259.102 198.194 248.952 205.161 241.104 208.618 C 242.101 209.128 243.098 209.639 244.094 210.15 C 244.087 207.505 242.611 205.024 241.81 202.541 C 240.603 198.798 239.44 195.036 238.286 191.276 C 236.133 184.264 234.11 177.186 232.823 169.957 C 231.142 160.524 230.638 150.87 230.288 141.312 C 229.918 131.216 229.855 121.098 230.22 111.002 C 230.358 107.167 230.543 103.326 230.932 99.507 C 231.064 98.208 231.178 96.887 231.432 95.605 C 231.494 95.293 231.68 94.77 231.654 94.448 C 231.515 92.778 234.409 93.18 230.091 95.44 C 233.521 93.645 233.308 88.506 228.889 90.818 Z "
                id="Strecke" fill="rgb(2,4,7)" />
        </g>
        <g id="left_eye">
            <path
                d=" M 134.122 108.154 C 134.122 115.103 129.202 120.737 123.137 120.737 C 117.07 120.737 112.151 115.103 112.151 108.154 C 112.151 101.205 117.07 95.572 123.137 95.572 C 129.202 95.572 134.122 101.205 134.122 108.154 Z "
                id="Strecke" fill="rgb(255,255,255)" />
            <path
                d=" M 135.122 108.901 C 135.122 115.438 130.496 120.736 124.789 120.736 C 119.082 120.736 114.456 115.438 114.456 108.901 C 114.456 102.365 119.082 97.066 124.789 97.066 C 130.496 97.066 135.122 102.365 135.122 108.901 Z "
                id="Strecke" fill="rgb(2,4,7)" />
            <path
                d=" M 135.122 108.901 C 135.122 115.438 130.496 120.736 124.789 120.736 C 119.082 120.736 114.456 115.438 114.456 108.901 C 114.456 102.365 119.082 97.066 124.789 97.066 C 130.496 97.066 135.122 102.365 135.122 108.901 Z "
                id="Strecke" fill="none" vector-effect="non-scaling-stroke" stroke-width="0.65" stroke="rgb(2,4,7)"
                stroke-linejoin="miter" stroke-linecap="square" stroke-miterlimit="3" />
            <path
                d=" M 128.693 100.938 C 128.544 101.161 128.398 101.385 128.245 101.605 C 128.387 101.4 127.979 101.968 127.935 102.026 C 127.633 102.428 127.317 102.837 126.966 103.195 C 126.374 103.797 125.764 104.726 126.033 105.619 C 126.273 106.415 127.206 106.311 127.702 105.806 C 128.831 104.656 129.748 103.402 130.642 102.063 C 131.002 101.522 131.316 100.287 130.605 99.877 C 129.843 99.437 129.042 100.414 128.693 100.938 Z "
                id="Strecke" fill="rgb(249,249,249)" />
            <path
                d=" M 130.299 101.528 C 129.485 102.304 128.585 102.923 128.026 103.937 C 127.712 104.507 127.319 105.694 128.063 106.124 C 128.791 106.544 129.671 105.613 129.974 105.062 C 130.11 104.816 129.946 105.145 129.893 105.159 C 129.936 105.148 130.037 104.991 130.068 104.954 C 129.977 105.065 129.89 105.121 130.044 104.988 C 130.133 104.912 130.218 104.832 130.307 104.756 C 130.549 104.55 130.805 104.358 131.035 104.139 C 131.642 103.56 132.232 102.59 131.968 101.715 C 131.723 100.901 130.806 101.044 130.299 101.528 Z "
                id="Strecke" fill="rgb(249,249,249)" />
            <path
                d=" M 129.648 103.917 C 129.672 103.757 129.669 103.768 129.638 103.951 C 129.703 103.739 129.701 103.726 129.633 103.914 C 129.662 103.848 129.691 103.781 129.721 103.715 C 129.609 103.896 129.625 103.877 129.769 103.659 C 129.778 103.667 129.502 103.98 129.491 103.994 C 129.352 104.141 129.358 104.138 129.508 103.984 C 129.439 104.054 129.369 104.125 129.299 104.195 C 128.703 104.791 128.098 105.73 128.366 106.618 C 128.607 107.419 129.536 107.305 130.035 106.805 C 131.274 105.565 132.288 104.243 132.352 102.416 C 132.379 101.624 131.638 101.23 130.974 101.621 C 130.179 102.088 129.68 103.007 129.648 103.917 Z "
                id="Strecke" fill="rgb(249,249,249)" />
        </g>
        <g id="left_hand">
            <path
                d=" M 94.143 94.5 C 97.515 95.435 100.475 149.981 97.309 173.089 C 95.726 184.643 92.371 195.867 89.475 206.895 C 88.883 209.324 87.371 212.146 87.764 213.065 C 87.764 213.065 63.019 203.53 60.01 186.327 C 57.001 169.124 81.504 110.795 84.029 98.826 C 84.029 98.826 84.887 91.933 94.143 94.5 Z "
                id="Strecke" fill="rgb(27,31,33)" />
            <path
                d=" M 93.118 98.019 C 92.745 97.843 93 97.638 93.194 98.727 C 93.399 99.884 93.683 101.025 93.873 102.187 C 94.465 105.797 94.784 109.456 95.083 113.099 C 95.923 123.307 96.303 133.563 96.376 143.805 C 96.442 153.181 96.368 162.647 95.188 171.962 C 94.195 179.81 92.273 187.501 90.251 195.137 C 89.322 198.638 88.462 202.172 87.44 205.646 C 86.634 208.383 85.377 210.889 85.492 213.797 L 88.789 209.546 C 81.525 206.708 74.223 202.26 68.845 196.609 C 61.641 189.039 61.396 181.642 63.341 172.058 C 67.383 152.156 75.043 132.987 81.703 113.863 C 83.001 110.136 84.338 106.405 85.413 102.606 C 85.574 102.036 85.733 101.466 85.876 100.891 C 86.053 100.184 86.811 98.694 86.128 99.746 C 87.847 97.1 90.845 97.581 93.696 98.223 C 96.594 98.876 97.659 91.468 94.589 90.777 C 89.222 89.568 84.261 90.855 82.32 96.418 C 82.139 96.937 82.059 97.455 81.908 97.981 C 81.673 98.802 82.037 97.544 81.69 98.848 C 81.246 100.518 80.729 102.167 80.197 103.811 C 76.891 114.014 73.107 124.061 69.646 134.211 C 65.796 145.505 62.004 156.911 59.477 168.587 C 57.443 177.987 55.955 187.548 60.97 196.306 C 66.369 205.736 76.763 212.685 86.74 216.585 C 89.127 217.518 90.106 214.099 90.037 212.334 C 89.95 210.139 92.202 205.534 92.908 202.905 C 94.012 198.792 95.129 194.685 96.139 190.548 C 97.811 183.706 99.261 176.776 99.963 169.76 C 101.022 159.2 101.049 148.502 100.867 137.901 C 100.684 127.339 100.244 116.742 99.128 106.234 C 98.791 103.059 98.901 92.738 95.167 90.981 C 92.085 89.53 90.509 96.79 93.118 98.019 Z "
                id="Strecke" fill="rgb(2,4,7)" />
        </g>
        <g id="mouth_happy">
            <path d=" M 163.343 166.429 C 158.073 175.284 137.001 177.557 133.736 162.002" id="Strecke"
                fill="rgb(27,31,33)" />
            <path
                d=" M 162.96 166.491 C 155.735 177.586 137.223 174.554 134.122 161.899 C 134.073 161.7 133.298 161.897 133.349 162.106 C 136.623 175.464 156.387 177.635 163.725 166.367 C 163.801 166.251 163.091 166.29 162.96 166.491 Z "
                id="Strecke" fill="rgb(2,4,7)" />
        </g>
        <g id="mouth_shocked">
            <path
                d=" M 131.14 164 C 131.756 160.375 140.432 158.822 150.502 160.534 C 160.573 162.247 168.248 166.581 167.631 170.206 C 167.015 173.831 158.338 175.384 148.268 173.671 C 138.198 171.959 130.523 167.625 131.14 164 Z "
                id="Ellipse" fill="rgb(27,31,33)" />
        </g>

    </g>
    <g id="left-eyelid">
        <ellipse vector-effect="non-scaling-stroke" cx="124" cy="103" rx="18" ry="10" id="Ellipse"
            fill="rgb(27,31,33)" />
    </g>
    <g id="right-eyelid">
        <ellipse vector-effect="non-scaling-stroke" cx="196" cy="100" rx="18" ry="10" id="Ellipse"
            fill="rgb(27,31,33)" />
    </g>
    <g id="left-eye-closed">
        <path
            d=" M 132.962 110.547 C 132.962 117.496 128.043 123.129 121.977 123.129 C 115.91 123.129 110.991 117.496 110.991 110.547 C 110.991 103.598 115.91 97.965 121.977 97.965 C 128.043 97.965 132.962 103.598 132.962 110.547 Z "
            id="Strecke" fill="rgb(27,31,33)" vector-effect="non-scaling-stroke" stroke-width="1" stroke="rgb(0,0,0)"
            stroke-linejoin="miter" stroke-linecap="square" stroke-miterlimit="3" />
        <path
            d=" M 139.186 106.249 C 139.186 112.509 131.793 117.584 122.676 117.584 C 113.557 117.584 106.164 112.509 106.164 106.249 C 106.164 99.988 113.557 94.913 122.676 94.913 C 131.793 94.913 139.186 99.988 139.186 106.249 Z "
            id="Strecke" fill="rgb(27,31,33)" />
    </g>
    <g id="right-eye-closed">
        <path
            d=" M 208.601 107.261 C 208.601 114.21 203.682 119.843 197.616 119.843 C 191.549 119.843 186.63 114.21 186.63 107.261 C 186.63 100.312 191.549 94.679 197.616 94.679 C 203.682 94.679 208.601 100.312 208.601 107.261 Z "
            id="Strecke" fill="rgb(27,31,33)" vector-effect="non-scaling-stroke" stroke-width="1" stroke="rgb(0,0,0)"
            stroke-linejoin="miter" stroke-linecap="square" stroke-miterlimit="3" />
        <path
            d=" M 214.825 102.963 C 214.825 109.223 207.432 114.298 198.315 114.298 C 189.196 114.298 181.803 109.223 181.803 102.963 C 181.803 96.702 189.196 91.627 198.315 91.627 C 207.432 91.627 214.825 96.702 214.825 102.963 Z "
            id="Strecke" fill="rgb(27,31,33)" />
    </g>

</svg>