<?xml version="1.0" encoding="UTF-8" standalone="no"?>
<!-- Generator: Gravit.io --><svg xmlns="http://www.w3.org/2000/svg" xmlns:xlink="http://www.w3.org/1999/xlink"
    style="isolation:isolate" viewBox="0 0 385 461" width="385pt" height="461pt">
    <g id="left_hand">
        <path
            d=" M 80.257 230.316 C 74.191 259.385 77.096 284.014 84.86 312.024 C 84.86 312.024 100.008 267.013 119.645 248.735 L 118.652 230.58 C 104.954 227.215 92.185 227.157 80.257 230.316 L 80.257 230.316 Z "
            id="Strecke" fill="rgb(35,31,32)" />
    </g>
    <g id="right_hand">
        <path
            d=" M 260.592 229.899 L 259.433 248.655 C 278.938 267.073 293.766 312.189 293.766 312.189 C 301.772 284.084 304.841 259.362 298.887 230.162 C 287.354 227.359 274.609 227.292 260.592 229.899 L 260.592 229.899 Z "
            id="Strecke" fill="rgb(35,31,32)" />
    </g>
    <g id="body">
        <path
            d=" M 262.859 243.495 C 252.538 170.171 198.102 178.313 198.102 178.313 L 187.972 178.027 C 187.972 178.027 133.336 166.667 118.478 242.321 L 262.859 243.495 L 262.859 243.495 Z "
            id="Strecke" fill="rgb(255,255,255)" />
        <path
            d=" M 259.401 243.467 L 120.94 242.341 C 125.135 231.38 130.328 220.879 136.853 211.225 C 148.351 194.214 165.834 180.191 186.514 181.747 C 189.889 182.001 193.312 181.949 196.698 182.044 C 199.873 182.133 203.033 174.68 199.504 174.581 C 192.038 174.37 184.3 173.359 176.897 174.798 C 162.844 177.533 150.796 186.579 141.495 197.111 C 129.989 210.139 121.826 225.844 115.717 242.299 L 120.94 242.341 L 259.401 243.467 L 266.623 243.525 C 264.424 236.763 261.877 230.132 258.945 223.669 C 251.352 206.928 240.478 190.279 224.153 180.93 C 217.331 177.023 208.672 173.837 200.642 174.482 C 200.026 174.531 199.405 174.555 198.792 174.645 C 195.777 175.087 193.232 182.594 197.41 181.98 C 198.181 181.867 196.678 181.973 197.944 181.939 C 199.042 181.911 200.131 181.911 201.227 181.982 C 204.934 182.219 208.628 183.027 212.101 184.281 C 225.837 189.232 236.445 200.107 244.29 212.102 C 250.646 221.82 255.557 232.418 259.401 243.467 L 259.401 243.467 Z "
            id="Strecke" fill="rgb(35,31,32)" />
        <path
            d=" M 245.365 243.353 C 261.625 243.375 245.875 243.563 262.017 243.488 C 256.614 227.388 253.936 221.4 251.006 215.805 L 235.613 226.546 C 235.613 226.546 247.31 245.784 245.365 243.353 L 262.017 243.488 L 245.365 243.353 Z "
            id="Strecke" fill="rgb(35,31,32)" />
        <path
            d=" M 259.994 243.471 L 247.915 243.373 C 244.527 237.247 241.011 231.192 237.379 225.213 C 235.595 222.276 232.096 224.999 233.846 227.879 C 236.937 232.968 239.933 238.119 242.82 243.332 L 247.915 243.373 L 259.994 243.471 L 264.778 243.51 C 261.621 233.654 257.79 224.099 253.144 215.097 C 252.465 213.781 250.803 212.633 249.367 213.634 C 244.237 217.214 239.106 220.795 233.975 224.375 C 231.588 226.041 234.849 230.393 237.25 228.717 C 242.381 225.137 247.512 221.557 252.643 217.976 C 251.384 217.488 250.125 217.001 248.867 216.513 C 253.282 225.069 256.942 234.131 259.994 243.471 L 259.994 243.471 Z "
            id="Strecke" fill="rgb(35,31,32)" />
        <path
            d=" M 137.547 242.476 C 127.617 242.547 137.531 242.336 119.117 242.326 L 137.547 242.476 C 134.691 246.505 143.765 232.643 143.765 232.643 L 128.73 221.363 C 126.306 225.64 124.028 230.16 119.117 242.326 L 137.547 242.476 Z "
            id="Strecke" fill="rgb(35,31,32)" />
        <path
            d=" M 134.384 242.45 L 121.784 242.348 C 124.544 235.439 127.69 228.747 131.259 222.361 C 129.738 222 128.217 221.639 126.696 221.278 C 131.708 225.038 136.72 228.798 141.732 232.558 C 142.7 233.284 147.888 234.295 145.799 232.727 C 140.788 228.967 135.776 225.207 130.763 221.447 C 130.054 220.915 126.915 219.086 126.201 220.364 C 122.274 227.39 118.97 234.745 116.152 242.302 L 121.784 242.348 L 134.384 242.45 L 140.629 242.501 C 142.489 239.529 144.377 236.575 146.295 233.642 C 146.888 232.734 142.096 230.33 141.237 231.644 C 138.903 235.213 136.614 238.813 134.384 242.45 L 134.384 242.45 Z "
            id="Strecke" fill="rgb(35,31,32)" />
    </g>
    <g id="head">
        <path
            d=" M 152.438 250.867 C 152.438 250.867 114.378 228.409 99.601 212.415 C 84.824 196.42 97.183 151.592 108.349 120.997 C 119.515 90.403 201.839 28.478 201.839 28.478 C 199.017 41.489 188.792 55.926 184.311 69.708 C 192.694 62.582 201.03 57.091 210.957 53.281 C 206.661 60.522 203.09 71.057 201.223 79.185 C 204.586 76.008 207.949 72.83 212.082 71.311 C 212.807 74.604 214.396 76.285 214.303 79.555 C 215.098 80.396 215.985 77.967 216.802 77.99 C 216.733 80.442 216.525 87.8 217.412 85.37 L 219.07 84.599 C 219.07 84.599 243.547 86.928 258.271 115.978 C 272.995 145.029 290.595 188.069 277.825 205.707 C 265.053 223.345 229.934 250.168 229.934 250.168"
            id="Strecke" fill="rgb(255,255,255)" />
        <path
            d=" M 274.058 151.837 C 252.105 110.611 227.467 111.728 227.467 111.728 C 211.002 115.354 195.373 137.733 194.519 140.164 L 191.353 142.629 C 191.353 142.629 159.518 107.461 139.656 115.488 C 139.656 115.488 114.702 121.235 93.064 175.129 C 93.064 175.129 88.05 101.738 200.502 31.668 L 184.311 69.708 L 207.956 55.683 L 201.223 79.185 L 212.081 71.311 L 217.412 85.37 C 217.412 85.37 238.234 88.094 252.429 106.385 L 274.058 151.837 Z "
            id="Strecke" fill="rgb(35,31,32)" />
        <path
            d=" M 276.588 148.756 C 267.786 132.485 254.987 115.048 236.442 109.349 C 233.976 108.591 231.135 107.762 228.514 108.028 C 218.814 109.015 209.511 118.029 203.21 124.728 C 199.923 128.223 196.869 131.958 194.196 135.945 C 193.496 136.989 192.729 138.052 192.252 139.225 C 191.538 140.985 193.345 137.388 193.543 137.461 C 193.415 137.414 192.595 138.22 192.472 138.295 C 191.795 138.708 191.18 139.301 190.552 139.79 L 193.883 139.548 C 189.15 134.34 183.854 129.537 178.373 125.136 C 169.956 118.377 159.301 110.856 148.063 110.573 C 135.628 110.261 124.567 120.505 116.979 129.11 C 105.258 142.4 97.101 158.582 90.478 174.888 C 92.319 174.424 94.162 173.961 96.004 173.497 C 95.429 164.745 97.776 155.31 100.567 146.621 C 108.724 121.219 124.682 98.828 143.274 79.976 C 160.372 62.637 179.957 47.938 200.559 35.031 C 199.678 33.83 198.797 32.629 197.916 31.427 C 192.519 44.107 187.122 56.787 181.725 69.467 C 180.914 71.373 181.774 74.61 184.367 73.071 C 192.249 68.396 200.131 63.721 208.013 59.046 C 207.132 57.844 206.251 56.643 205.37 55.442 C 203.126 63.276 200.882 71.11 198.638 78.944 C 197.841 81.725 199.208 84.067 202.024 82.025 C 205.644 79.4 209.263 76.776 212.882 74.151 C 211.672 74.015 210.461 73.88 209.251 73.744 C 211.027 78.43 212.804 83.116 214.581 87.802 C 214.842 88.491 215.234 88.995 216.009 89.101 C 223.526 90.132 230.983 93.6 237.239 97.752 C 241.918 100.858 247.123 104.961 250.072 109.831 C 251.213 111.714 252.019 113.921 252.964 115.907 C 259.152 128.911 265.34 141.914 271.528 154.918 C 272.961 157.928 277.958 151.635 276.588 148.756 C 270.202 135.337 263.817 121.919 257.431 108.5 C 250.63 94.208 234.484 83.787 218.815 81.638 C 219.29 82.071 219.767 82.505 220.242 82.938 C 218.466 78.251 216.689 73.565 214.912 68.879 C 214.22 67.052 212.568 67.538 211.281 68.472 C 207.661 71.097 204.042 73.721 200.423 76.346 C 201.552 77.373 202.68 78.4 203.809 79.426 C 206.054 71.592 208.298 63.758 210.542 55.923 C 211.068 54.085 210.666 50.678 207.9 52.319 C 200.018 56.995 192.136 61.67 184.254 66.345 C 185.135 67.547 186.016 68.748 186.897 69.949 C 192.294 57.269 197.691 44.589 203.088 31.909 C 203.877 30.054 203.027 26.688 200.445 28.305 C 166.889 49.328 135.447 75.267 113.608 108.684 C 102.434 125.781 93.521 145.37 90.812 165.777 C 90.334 169.37 89.884 173.126 90.122 176.762 C 90.41 181.151 94.819 177.413 95.65 175.37 C 103.583 155.838 114.863 132.236 134.147 121.313 C 137.02 119.685 139.641 118.395 143.442 118.068 C 153.701 117.185 164.038 124.345 171.777 130.232 C 177.867 134.863 183.672 140.042 188.823 145.71 C 189.83 146.819 191.141 146.257 192.153 145.468 C 193.428 144.476 194.998 143.554 196.021 142.283 C 197.621 140.293 196.494 141.232 197.868 139.237 C 200.489 135.435 203.43 131.835 206.641 128.513 C 211.567 123.415 220.268 114.729 228.097 115.58 C 248.262 117.775 262.821 138.822 271.528 154.918 C 273.156 157.928 278.109 151.569 276.588 148.756 Z "
            id="Strecke" fill="rgb(35,31,32)" />
        <g id="left_eye_closing">
            <path
                d=" M 179.736 160.817 C 179.765 156.216 174.086 137.16 160 140 C 152.016 141.609 144.252 158.575 144.008 161.941 C 143.673 166.59 153.398 173.126 167.282 170.326 C 175.451 168.679 179.267 164.21 179.736 160.817 C 179.666 161.323 179.732 161.323 179.736 160.817 Z "
                id="Strecke" fill="rgb(255,255,255)" />
        </g>
        <g id="left_eye">
            <path
                d=" M 179.769 164.818 C 179.418 177.243 171.444 187.098 161.958 186.83 C 152.473 186.562 145.069 176.272 145.419 163.847 C 145.771 151.422 153.745 141.566 163.23 141.834 C 172.715 142.102 180.121 152.393 179.769 164.818 Z "
                id="Strecke" fill="rgb(255,255,255)" />
            <path
                d=" M 179.08 166.738 C 178.571 176.154 171.583 186.457 160.897 184.733 C 150.568 183.066 145.863 171.23 146.108 161.928 C 146.351 152.675 153.43 142.635 163.716 143.84 C 174.546 145.107 179.104 157.282 179.08 166.738 C 179.083 165.468 180.454 164.19 180.458 162.899 C 180.487 151.154 171.27 134.245 157.184 141.494 C 149.2 145.602 144.974 157.175 144.73 165.767 C 144.395 177.633 154.12 194.316 168.004 187.171 C 176.173 182.967 179.989 171.56 180.458 162.899 C 180.388 164.19 179.151 165.429 179.08 166.738 Z "
                id="Strecke" fill="rgb(35,31,32)" />
            <g id="inner_eye_left">
                <path
                    d=" M 173.961 162.364 C 173.788 168.471 169.892 173.316 165.26 173.185 C 160.626 173.054 157.01 167.997 157.183 161.889 C 157.356 155.782 161.252 150.937 165.885 151.068 C 170.517 151.199 174.134 156.257 173.961 162.364 Z "
                    id="Strecke" fill="rgb(35,31,32)" />
            </g>
        </g>
        <path
            d=" M 197.842 181.048 C 197.842 181.048 211.488 197.702 222.296 196.565 C 222.296 196.565 201.9 219.27 194.494 219.228 L 192.245 219.341 C 184.849 219.695 163.517 197.864 163.517 197.864 C 174.363 198.548 187.299 181.337 187.299 181.337"
            id="Strecke" fill="rgb(246,146,30)" />
        <path
            d=" M 196.689 181.768 C 201.966 188.153 209.776 195.885 218.253 197.274 C 218.597 197.331 221.109 197.094 220.948 197.019 C 221.595 197.32 221.435 196.008 221.03 197.021 C 220.572 198.165 218.738 199.488 217.899 200.365 C 214.274 204.156 210.541 207.869 206.576 211.306 C 203.09 214.327 199.05 218.2 194.224 218.435 C 190.21 218.63 186.793 216.179 183.651 213.927 C 176.818 209.03 170.55 203.146 164.67 197.145 C 164.001 197.668 163.333 198.191 162.664 198.715 C 173.093 198.861 182.49 188.83 188.315 181.149 C 189.153 180.045 186.7 180.976 186.284 181.525 C 181.292 188.108 173.233 197.139 164.371 197.015 C 163.989 197.009 161.81 198.019 162.364 198.584 C 166.825 203.138 171.526 207.499 176.44 211.559 C 181.239 215.524 186.971 220.828 193.641 220.078 C 199.812 219.385 205.204 214.104 209.603 210.147 C 214.342 205.884 218.857 201.33 223.124 196.593 C 223.291 196.407 223.803 195.678 223.15 195.715 C 213.626 196.247 204.636 187.152 198.997 180.329 C 198.475 179.698 196.251 181.237 196.689 181.768 Z "
            id="Strecke" fill="rgb(35,31,32)" />
        <path
            d=" M 164.562 197.876 L 192.583 208.673 L 222.296 196.564 L 197.842 181.048 L 187.299 181.337 L 164.562 197.876 Z "
            id="Strecke" fill="rgb(250,175,64)" />
        <path
            d=" M 164.581 198.439 C 169.708 200.414 174.834 202.389 179.96 204.364 C 183.241 205.629 186.522 206.893 189.804 208.158 C 190.708 208.506 191.973 209.294 192.957 209.24 C 194.319 209.165 196.184 207.925 197.431 207.417 C 200.74 206.068 204.05 204.719 207.359 203.371 C 212.464 201.291 217.567 199.211 222.672 197.132 C 223.079 196.966 222.608 196.209 222.406 196.081 C 216.965 192.628 211.524 189.175 206.083 185.723 C 203.703 184.213 201.144 181.979 198.521 180.925 C 196.937 180.289 195.601 180.495 193.761 180.545 C 191.59 180.605 188.606 180.172 186.607 181.001 C 184.239 181.981 181.89 184.432 179.822 185.936 L 164.186 197.309 C 163.724 197.645 164.481 198.773 164.936 198.442 C 169.643 195.019 174.351 191.595 179.057 188.172 C 181.534 186.37 184.094 183.921 186.823 182.522 C 188.782 181.519 191.062 181.849 193.332 181.787 C 195.986 181.714 197.185 181.312 198.972 182.32 C 201.741 183.882 204.383 185.753 207.067 187.456 C 212.106 190.654 217.146 193.852 222.185 197.049 C 222.098 196.699 222.01 196.348 221.921 195.998 L 207.973 201.682 C 204.681 203.023 201.39 204.364 198.098 205.706 C 196.488 206.361 194.102 207.922 192.352 208.047 C 192.385 208.044 189.683 207 188.844 206.676 C 185.717 205.472 182.591 204.267 179.465 203.063 C 174.49 201.146 169.516 199.229 164.541 197.313 C 163.785 197.021 164.081 198.246 164.581 198.439 Z "
            id="Strecke" fill="rgb(35,31,32)" />
        <path d=" M 187.299 181.337 L 192.582 208.673 L 197.842 181.048 L 187.299 181.337 Z " id="Strecke"
            fill="rgb(248,199,132)" />
        <path
            d=" M 148.063 243 C 132.994 234.093 124.485 228.722 110.999 217.544 C 107.156 214.357 102.902 210.983 100.144 206.76 C 97.316 202.427 96.284 197.052 95.923 191.968 C 94.998 178.899 97.745 165.623 100.945 153.021 C 103.886 141.436 106.959 128.603 112.402 117.893 C 116.153 110.514 121.736 104.024 127.223 97.898 C 141.033 82.48 156.713 68.698 172.546 55.41 C 182.383 47.153 192.376 39.044 202.64 31.318 C 201.419 30.614 200.2 29.909 198.98 29.205 C 195.608 43.459 186.416 55.652 181.725 69.467 C 180.832 72.096 182.433 74.798 185.112 72.548 C 192.748 66.133 200.958 60.634 210.265 56.948 C 209.789 55.318 209.313 53.688 208.836 52.057 C 203.883 60.695 200.658 70.253 198.364 79.912 C 197.755 82.478 200.108 83.829 202.024 82.025 C 205.154 79.08 208.135 76.377 212.138 74.675 C 211.176 74.364 210.213 74.054 209.251 73.744 C 209.943 76.242 211.221 78.565 211.363 81.188 C 211.418 82.21 211.806 83.096 212.901 83.287 C 214.961 83.648 216.012 81.832 216.859 81.353 C 215.86 80.776 214.861 80.199 213.862 79.622 C 213.782 82.537 213.216 86.215 214.524 88.918 C 214.805 89.5 215.824 89.693 216.363 89.505 C 216.75 89.37 219.917 87.476 219.331 87.006 C 219.093 87.261 218.854 87.515 218.615 87.77 C 217.62 88.64 217.647 88.771 218.697 88.162 C 219.279 90.677 217.267 88.149 217.756 88.34 C 218.593 88.667 219.718 88.663 220.602 88.868 C 225.218 89.938 229.637 91.944 233.681 94.386 C 249.54 103.96 257.179 120.887 264.354 137.205 C 271.475 153.4 278.878 171.419 279.276 189.364 C 279.438 196.681 277.79 202.097 273.114 207.676 C 268.019 213.755 262.243 219.251 256.378 224.578 C 247.628 232.526 245.834 235.817 236.442 243 C 241.778 243.111 236.778 243.111 242.688 243 C 251.909 235.947 248.894 238.48 257.499 230.691 C 268.377 220.846 282.678 209.327 284.742 193.869 C 287.187 175.548 279.882 156.144 273.062 139.505 C 265.863 121.942 258.197 102.567 242.688 90.682 C 237.995 87.085 219.81 74.823 215.093 84.559 C 216.03 83.744 216.966 82.929 217.904 82.115 C 217.851 82.133 217.798 82.151 217.746 82.17 C 218.358 82.365 218.971 82.561 219.584 82.757 C 219.043 81.638 219.701 77.885 219.744 76.357 C 219.791 74.612 218.23 73.787 216.746 74.627 C 215.674 75.234 215.002 76 214.114 76.823 L 216.317 75.931 C 216.114 75.895 215.911 75.859 215.706 75.824 C 216.219 76.523 216.732 77.223 217.245 77.923 C 217.067 74.64 215.779 72.006 214.913 68.879 C 214.504 67.404 213.165 67.464 212.026 67.949 C 207.52 69.864 203.953 73.024 200.423 76.346 C 201.643 77.051 202.863 77.755 204.082 78.46 C 206.051 70.169 208.825 61.918 213.076 54.504 C 213.741 53.345 214.623 48.435 211.648 49.613 C 201.231 53.738 192.069 59.68 183.51 66.869 C 184.639 67.896 185.768 68.922 186.897 69.949 C 191.821 55.448 201.149 42.759 204.699 27.752 C 205.358 24.963 203.012 24.153 201.039 25.639 C 174.535 45.59 148.428 67.235 125.987 91.711 C 119.825 98.432 113.792 105.548 109.238 113.486 C 103.56 123.383 100.609 135.178 97.502 146.068 C 93.644 159.593 90.406 173.539 89.93 187.649 C 89.58 198.045 90.851 209.211 98.456 216.945 C 113.261 232.004 113.898 231.301 132 242 C 133.433 242.847 149.511 243.855 148.063 243 Z "
            id="Strecke" fill="rgb(35,31,32)" />
        <g id="right_eye_closing">
            <path
                d=" M 203.478 161.649 C 203.451 166.451 210.263 173.214 223.493 171.813 C 234.383 170.659 237.667 165.205 237.984 160.853 C 238.308 156.392 232.749 140.382 221 140 C 208.585 139.597 204.161 155.743 203.61 160.309 C 203.575 160.602 203.481 161.095 203.478 161.649 Z "
                id="Strecke" fill="rgb(255,255,255)" />
        </g>
        <g id="right_eye">
            <path
                d=" M 203.242 165.159 C 203.215 175.882 210.027 190.985 223.258 187.856 C 234.148 185.28 237.432 173.1 237.749 163.382 C 238.072 153.42 233.589 140.04 221.839 139.188 C 209.424 138.287 203.926 151.97 203.374 162.166 C 203.339 162.821 203.178 166.683 203.309 164.224 C 203.824 154.734 210.171 142.911 221.055 143.22 C 231.555 143.516 237.958 155.479 237.417 164.9 C 236.889 174.117 229.613 184.84 219.393 184.098 C 208.262 183.291 203.419 170.833 203.443 161.231 C 203.439 162.204 203.245 163.923 203.242 165.159 Z "
                id="Strecke" fill="rgb(35,31,32)" />
            <path
                d=" M 203.242 165.159 C 203.215 175.882 210.027 190.985 223.258 187.856 C 234.148 185.28 237.432 173.1 237.749 163.382 C 238.072 153.42 233.589 140.04 221.839 139.188 C 209.424 138.287 203.926 151.97 203.374 162.166 C 203.339 162.821 203.178 166.683 203.309 164.224 C 203.824 154.734 210.171 142.911 221.055 143.22 C 231.555 143.516 237.958 155.479 237.417 164.9 C 236.889 174.117 229.613 184.84 219.393 184.098 C 208.262 183.291 203.419 170.833 203.443 161.231 C 203.439 162.204 203.245 163.923 203.242 165.159 Z "
                id="Strecke" fill="rgb(35,31,32)" />
            <g id="inner_eye_right">
                <path
                    d=" M 209.281 161.073 C 209.107 167.181 212.723 172.238 217.357 172.368 C 221.988 172.499 225.885 167.655 226.059 161.547 C 226.232 155.44 222.613 150.383 217.982 150.252 C 213.348 150.121 209.454 154.966 209.281 161.073 Z "
                    id="Strecke" fill="rgb(35,31,32)" />
            </g>
        </g>
    </g>
    <g id="left_eye_closed">
        <path d=" M 149 185 Q 164.438 190.906 175 185" id="Strecke" fill="none" vector-effect="non-scaling-stroke"
            stroke-width="2" stroke="rgb(35,31,32)" stroke-linejoin="miter" stroke-linecap="square"
            stroke-miterlimit="3" />
    </g>
    <g id="right_eye_closed">
        <path d=" M 208 185 Q 223.438 190.906 234 185" id="Strecke" fill="none" vector-effect="non-scaling-stroke"
            stroke-width="2" stroke="rgb(35,31,32)" stroke-linejoin="miter" stroke-linecap="square"
            stroke-miterlimit="3" />
    </g>
</svg>