<svg xmlns="http://www.w3.org/2000/svg" viewBox="0 0 132.292 132.292"><path fill="#33363a" d="M66.146 0C50.442 0 36 5.506 24.643 14.685l7.378 7.412c9.419-7.299 21.253-11.639 34.125-11.639 30.818 0 55.689 24.87 55.689 55.687 0 12.965-4.405 24.874-11.8 34.325l7.381 7.415c9.294-11.394 14.876-25.927 14.876-41.74C132.292 29.675 102.615 0 66.146 0ZM18.295 20.525C6.965 32.402 0 48.476 0 66.145c0 36.47 29.676 66.147 66.146 66.147 17.56 0 33.543-6.883 45.399-18.09zm48.619.733a11.026 11.026 0 0 0-.723.025 11.026 11.026 0 0 0-10.273 11.013 11.026 11.026 0 1 0 22.052 0 11.026 11.026 0 0 0-11.056-11.038zm-46.48 13.028 26.223 26.223-6.433 10.206c-1.62 2.567-.827 5.961 1.74 7.58 2.567 1.619 5.977.86 7.597-1.723l3.6-5.72v33.111a5.507 5.507 0 0 0 5.514 5.513 5.507 5.507 0 0 0 5.513-5.513V87.425H69.7v16.538a5.506 5.506 0 0 0 5.512 5.513 5.507 5.507 0 0 0 5.513-5.513v-9.386l17.28 17.28c-9.021 6.289-20 9.976-31.86 9.976-30.818 0-55.69-24.87-55.69-55.688 0-11.861 3.688-22.84 9.978-31.86zm46.51 14.55c-2.473 0-4.89.394-7.18 1.13l20.962 21.06v-.174l.298.473 7.793 7.829a5.468 5.468 0 0 0 3.124-.842 5.514 5.514 0 0 0 1.723-7.597L86.79 59.793a23.436 23.436 0 0 0-19.846-10.957Z"/></svg>