<?xml version="1.0" encoding="UTF-8" standalone="no"?>
<!-- Generator: Adobe Illustrator 18.0.0, SVG Export Plug-In . SVG Version: 6.00 Build 0)  -->

<svg
   xmlns:dc="http://purl.org/dc/elements/1.1/"
   xmlns:cc="http://creativecommons.org/ns#"
   xmlns:rdf="http://www.w3.org/1999/02/22-rdf-syntax-ns#"
   xmlns:svg="http://www.w3.org/2000/svg"
   xmlns="http://www.w3.org/2000/svg"
   xmlns:sodipodi="http://sodipodi.sourceforge.net/DTD/sodipodi-0.dtd"
   xmlns:inkscape="http://www.inkscape.org/namespaces/inkscape"
   version="1.1"
   id="Layer_1"
   x="0px"
   y="0px"
   viewBox="0 0 612 750"
   enable-background="new 0 0 612 792"
   xml:space="preserve"
   inkscape:version="0.48.4 r9939"
   width="100%"
   height="100%"
   sodipodi:docname="apk_download.svg"><metadata
     id="metadata3089"><rdf:RDF><cc:Work
         rdf:about=""><dc:format>image/svg+xml</dc:format><dc:type
           rdf:resource="http://purl.org/dc/dcmitype/StillImage" /></cc:Work></rdf:RDF></metadata><defs
     id="defs3087" /><sodipodi:namedview
     pagecolor="#ffffff"
     bordercolor="#666666"
     borderopacity="1"
     objecttolerance="10"
     gridtolerance="10"
     guidetolerance="10"
     inkscape:pageopacity="0"
     inkscape:pageshadow="2"
     inkscape:window-width="1920"
     inkscape:window-height="1004"
     id="namedview3085"
     showgrid="false"
     inkscape:zoom="0.84281414"
     inkscape:cx="259.62118"
     inkscape:cy="406.7594"
     inkscape:window-x="0"
     inkscape:window-y="24"
     inkscape:window-maximized="1"
     inkscape:current-layer="Layer_1" /><path
     clip-rule="evenodd"
     stroke-miterlimit="10"
     d="m 500.38118,261.51341 v 297.56185 c -2.91871,25.97646 -26.70615,43.92649 -46.8452,43.92649 h -33.12729 v 105.65708 c -3.64838,23.78743 -25.97646,37.94315 -43.19681,37.94315 -1.45936,0 -7.15083,-1.45935 -10.79921,-2.18903 -13.71791,-1.45935 -31.66794,-23.78743 -31.66794,-35.02445 V 603.00175 h -60.5631 v 105.65708 c -3.64837,23.78743 -26.70614,37.94315 -43.19682,37.94315 -1.45935,0 -7.15082,-1.45935 -10.7992,-2.18903 C 206.4677,742.9536 188.51768,720.62552 188.51768,709.3885 V 603.00175 h -33.85697 c -23.78744,0 -46.11552,-23.78743 -46.11552,-45.38584 v -296.1025 h 391.83599 z m 103.03023,31.9598 v 196.42877 c -3.64837,28.31143 -24.51711,40.86185 -43.19681,40.86185 -15.90694,0 -30.35452,-6.71301 -41.15372,-29.0411 -1.45936,-2.91871 -2.18903,-8.90204 -2.18903,-10.36139 v -198.6178 c 5.83741,-29.04111 23.05776,-39.4025 43.19682,-39.4025 23.20369,0 43.34274,20.13906 43.34274,40.13217 z M 91.616708,292.74354 v 197.88811 c -3.648376,28.31143 -24.517111,40.13218 -43.19681,40.13218 -23.057761,0 -43.1968208,-20.86873 -43.1968208,-40.13218 V 293.47321 c 3.6483756,-29.77078 24.5171108,-40.13217 43.1968208,-40.13217 22.911817,0 43.19681,20.13906 43.19681,39.4025 z M 410.19323,154.39698 c 0,10.3614 -8.61018,17.07442 -16.63661,17.07442 -10.79921,0 -16.63662,-8.90205 -16.63662,-17.07442 0,-10.3614 7.88051,-16.34474 16.63662,-16.34474 10.21546,0 16.63661,8.17237 16.63661,16.34474 z m -178.77061,0 c 0,11.96668 -10.06953,17.07442 -17.36629,17.07442 -10.06952,0 -15.90693,-8.90205 -15.90693,-17.07442 0,-10.3614 7.8805,-16.34474 16.6366,-16.34474 10.21548,0 16.63662,8.17237 16.63662,16.34474 z M 218.43439,77.78101 c 36.04599,-14.15571 52.6826,-17.80409 85.80989,-17.80409 30.35452,0 50.49357,3.79431 85.80989,17.80409 10.06953,-18.53376 19.40938,-38.672825 30.35452,-57.206591 0.72967,-2.189037 3.64838,-3.79432 5.83741,-3.79432 1.45935,0 5.10773,0.729675 5.10773,5.983345 L 400.41557,82.30501 c 1.45935,1.45935 3.64838,2.9187 7.15082,4.52398 47.57487,26.70613 85.80989,85.51802 90.18795,127.98516 0.72968,5.98334 2.9187,15.61506 2.9187,17.80409 v 11.82075 H 108.10738 v -13.42604 c 1.45936,-8.17237 2.91871,-16.34474 3.64839,-24.51711 6.42114,-41.59153 49.03422,-101.86276 96.60909,-123.46116 L 177.4266,22.763444 c 0,-2.918701 0.72968,-5.983345 5.10773,-5.983345 6.42114,0 29.47891,49.180151 35.90006,61.000911 z"
     id="path3083"
     inkscape:connector-curvature="0"
     style="fill:#ffffff;fill-rule:evenodd;stroke:#000000;stroke-width:1.4593519;stroke-linecap:round;stroke-linejoin:round;stroke-miterlimit:10" /></svg>