<?xml version="1.0" encoding="UTF-8" standalone="no"?>
<!-- Generator: Gravit.io -->
<svg xmlns="http://www.w3.org/2000/svg" xmlns:xlink="http://www.w3.org/1999/xlink" style="isolation:isolate" viewBox="700.103 67.461 448.348 425.969" width="448.348pt" height="425.969pt"><g style="isolation:isolate"><g><defs><filter id="pWpYwrN3e4GC0tXwWzeAmwgUWLwuTNkZ" x="-200%" y="-200%" width="400%" height="400%" filterUnits="objectBoundingBox" color-interpolation-filters="sRGB"><feGaussianBlur xmlns="http://www.w3.org/2000/svg" in="SourceGraphic" stdDeviation="2.146804531419514"/><feOffset xmlns="http://www.w3.org/2000/svg" dx="-11" dy="0" result="pf_100_offsetBlur"/><feFlood xmlns="http://www.w3.org/2000/svg" flood-color="#000000" flood-opacity="0.65"/><feComposite xmlns="http://www.w3.org/2000/svg" in2="pf_100_offsetBlur" operator="in" result="pf_100_dropShadow"/><feBlend xmlns="http://www.w3.org/2000/svg" in="SourceGraphic" in2="pf_100_dropShadow" mode="normal" result="_out_Yd2ydRu88qz9W9ImbNmeQJ5FEWaws7vu"/><feOffset xmlns="http://www.w3.org/2000/svg" in="_out_Yd2ydRu88qz9W9ImbNmeQJ5FEWaws7vu" dx="14" dy="0"/><feGaussianBlur xmlns="http://www.w3.org/2000/svg" stdDeviation="2.146804531419514" result="pf_101_offsetBlur"/><feComposite xmlns="http://www.w3.org/2000/svg" in="_out_Yd2ydRu88qz9W9ImbNmeQJ5FEWaws7vu" in2="pf_101_offsetBlur" result="pf_101_inverse" operator="out"/><feFlood xmlns="http://www.w3.org/2000/svg" flood-color="#000000" flood-opacity="0.5" result="pf_101_color"/><feComposite xmlns="http://www.w3.org/2000/svg" in="pf_101_color" in2="pf_101_inverse" operator="in" result="pf_101_shadow"/><feComposite xmlns="http://www.w3.org/2000/svg" in="pf_101_shadow" in2="_out_Yd2ydRu88qz9W9ImbNmeQJ5FEWaws7vu" operator="over" result="_out_5weFoQYJX1lZlGiSoMOiaDsYVllTPfoP"/><feMerge><feMergeNode in="_out_5weFoQYJX1lZlGiSoMOiaDsYVllTPfoP"/></feMerge></filter></defs><g filter="url(#pWpYwrN3e4GC0tXwWzeAmwgUWLwuTNkZ)"><linearGradient id="_lgradient_64" x1="0.8315230670192626" y1="-0.05388094696866477" x2="0.07631225956771126" y2="1.1373754352537686" gradientTransform="matrix(421.14,86.39,-87.519,426.643,754.129,32.005)" gradientUnits="userSpaceOnUse"><stop offset="0.43478260869565216%" stop-opacity="1" style="stop-color:rgb(255,255,255)"/><stop offset="43.04347826086957%" stop-opacity="1" style="stop-color:rgb(192,192,192)"/><stop offset="98.26086956521739%" stop-opacity="1" style="stop-color:rgb(255,255,255)"/></linearGradient><path d=" M 1051.571 486.43 L 932.211 485.918 L 812.851 485.406 C 803.945 485.368 794.51 478.451 791.794 469.969 L 755.397 356.293 L 718.999 242.617 C 716.283 234.135 719.946 223.024 727.174 217.82 L 824.039 148.076 L 920.904 78.331 C 928.131 73.128 939.83 73.178 947.013 78.443 L 1043.277 149.015 L 1139.54 219.588 C 1146.723 224.853 1150.29 235.995 1147.502 244.454 L 1110.131 357.814 L 1072.76 471.174 C 1069.972 479.632 1060.477 486.468 1051.571 486.43 Z " fill="url(#_lgradient_64)"/><clipPath id="_clipPath_O3XdjxkklsXzUnmgYhoRbOEV6NRlt6vL"><path d=" M 1051.571 486.43 L 932.211 485.918 L 812.851 485.406 C 803.945 485.368 794.51 478.451 791.794 469.969 L 755.397 356.293 L 718.999 242.617 C 716.283 234.135 719.946 223.024 727.174 217.82 L 824.039 148.076 L 920.904 78.331 C 928.131 73.128 939.83 73.178 947.013 78.443 L 1043.277 149.015 L 1139.54 219.588 C 1146.723 224.853 1150.29 235.995 1147.502 244.454 L 1110.131 357.814 L 1072.76 471.174 C 1069.972 479.632 1060.477 486.468 1051.571 486.43 Z " fill="url(#_lgradient_64)"/></clipPath><g clip-path="url(#_clipPath_O3XdjxkklsXzUnmgYhoRbOEV6NRlt6vL)"><defs><linearGradient id="_lgradient_65" x1="0.8315230670192626" y1="-0.05388094696866477" x2="0.07631225956771126" y2="1.1373754352537686"><stop offset="0.43478260869565216%" style="stop-color:#FFFFFF"/><stop offset="43.04347826086957%" style="stop-color:#C0C0C0"/><stop offset="98.26086956521739%" style="stop-color:#FFFFFF"/></linearGradient></defs><path d="M 644.12 339.477 L 1078.948 58 L 1141 162.423 L 706.172 443.9 L 706.172 443.9 L 706.172 443.9 L 706.172 443.9 L 706.172 443.9 L 706.172 443.9 L 706.172 443.9 L 644.12 339.477 Z" style="stroke:none;fill:url(#_lgradient_65);stroke-miterlimit:10;opacity:0.5;"/><defs><linearGradient id="_lgradient_66" x1="0.8315230670192626" y1="-0.05388094696866477" x2="0.07631225956771126" y2="1.1373754352537686"><stop offset="0.43478260869565216%" style="stop-color:#FFFFFF"/><stop offset="43.04347826086957%" style="stop-color:#C0C0C0"/><stop offset="98.26086956521739%" style="stop-color:#FFFFFF"/></linearGradient></defs><path d="M 758.6 458.567 L 1228.948 154.1 L 1291 258.523 L 820.652 562.99 L 820.652 562.99 L 820.652 562.99 L 820.652 562.99 L 820.652 562.99 L 820.652 562.99 L 820.652 562.99 L 758.6 458.567 Z" style="stroke:none;fill:url(#_lgradient_66);stroke-miterlimit:10;opacity:0.5;"/></g></g><defs><filter id="fDM41DMtDGZHGSCObwCyM5U2d2SrLj6t" x="-200%" y="-200%" width="400%" height="400%" filterUnits="objectBoundingBox" color-interpolation-filters="sRGB"><feGaussianBlur xmlns="http://www.w3.org/2000/svg" in="SourceGraphic" stdDeviation="2.146804531419514"/><feOffset xmlns="http://www.w3.org/2000/svg" dx="2" dy="0" result="pf_100_offsetBlur"/><feFlood xmlns="http://www.w3.org/2000/svg" flood-color="#000000" flood-opacity="0.65"/><feComposite xmlns="http://www.w3.org/2000/svg" in2="pf_100_offsetBlur" operator="in" result="pf_100_dropShadow"/><feBlend xmlns="http://www.w3.org/2000/svg" in="SourceGraphic" in2="pf_100_dropShadow" mode="normal"/></filter></defs><g filter="url(#fDM41DMtDGZHGSCObwCyM5U2d2SrLj6t)"><linearGradient id="_lgradient_67" x1="0.8315230670192626" y1="-0.05388094696866477" x2="0.07631225956771126" y2="1.1373754352537686" gradientTransform="matrix(352.21,72.565,-73.513,356.813,789.309,74.967)" gradientUnits="userSpaceOnUse"><stop offset="0.43478260869565216%" stop-opacity="1" style="stop-color:rgb(255,255,255)"/><stop offset="43.04347826086957%" stop-opacity="1" style="stop-color:rgb(192,192,192)"/><stop offset="98.26086956521739%" stop-opacity="1" style="stop-color:rgb(255,255,255)"/></linearGradient><path d=" M 1037.785 455.294 L 937.944 454.78 L 838.103 454.266 C 830.653 454.228 822.766 448.435 820.5 441.339 L 790.136 346.225 L 759.772 251.112 C 757.506 244.015 760.578 234.724 766.628 230.376 L 847.703 172.106 L 928.778 113.837 C 934.827 109.489 944.613 109.539 950.617 113.949 L 1031.089 173.05 L 1111.56 232.15 C 1117.564 236.56 1120.541 245.883 1118.202 252.956 L 1086.861 347.752 L 1055.52 442.548 C 1053.181 449.621 1045.235 455.332 1037.785 455.294 Z " fill="url(#_lgradient_67)"/><clipPath id="_clipPath_bZCCJUj0Uc98DnP8eUGmTt69x2x4bz8t"><path d=" M 1037.785 455.294 L 937.944 454.78 L 838.103 454.266 C 830.653 454.228 822.766 448.435 820.5 441.339 L 790.136 346.225 L 759.772 251.112 C 757.506 244.015 760.578 234.724 766.628 230.376 L 847.703 172.106 L 928.778 113.837 C 934.827 109.489 944.613 109.539 950.617 113.949 L 1031.089 173.05 L 1111.56 232.15 C 1117.564 236.56 1120.541 245.883 1118.202 252.956 L 1086.861 347.752 L 1055.52 442.548 C 1053.181 449.621 1045.235 455.332 1037.785 455.294 Z " fill="url(#_lgradient_67)"/></clipPath><g clip-path="url(#_clipPath_bZCCJUj0Uc98DnP8eUGmTt69x2x4bz8t)"><defs><filter id="NNyll74XsGLFN90eTIG6k82MB1gJDvoc" x="-200%" y="-200%" width="400%" height="400%" filterUnits="objectBoundingBox" color-interpolation-filters="sRGB"><feGaussianBlur xmlns="http://www.w3.org/2000/svg" in="SourceGraphic" stdDeviation="2.146804531419514"/><feOffset xmlns="http://www.w3.org/2000/svg" dx="-3" dy="0" result="pf_100_offsetBlur"/><feFlood xmlns="http://www.w3.org/2000/svg" flood-color="#000000" flood-opacity="0.65"/><feComposite xmlns="http://www.w3.org/2000/svg" in2="pf_100_offsetBlur" operator="in" result="pf_100_dropShadow"/><feBlend xmlns="http://www.w3.org/2000/svg" in="SourceGraphic" in2="pf_100_dropShadow" mode="normal" result="_out_qfyFf3OY33ayKQXnVIwePAfuQcjn77ZX"/><feOffset xmlns="http://www.w3.org/2000/svg" in="_out_qfyFf3OY33ayKQXnVIwePAfuQcjn77ZX" dx="5" dy="0"/><feGaussianBlur xmlns="http://www.w3.org/2000/svg" stdDeviation="2.146804531419514" result="pf_101_offsetBlur"/><feComposite xmlns="http://www.w3.org/2000/svg" in="_out_qfyFf3OY33ayKQXnVIwePAfuQcjn77ZX" in2="pf_101_offsetBlur" result="pf_101_inverse" operator="out"/><feFlood xmlns="http://www.w3.org/2000/svg" flood-color="#000000" flood-opacity="0.5" result="pf_101_color"/><feComposite xmlns="http://www.w3.org/2000/svg" in="pf_101_color" in2="pf_101_inverse" operator="in" result="pf_101_shadow"/><feComposite xmlns="http://www.w3.org/2000/svg" in="pf_101_shadow" in2="_out_qfyFf3OY33ayKQXnVIwePAfuQcjn77ZX" operator="over" result="_out_9rQ9YYWbX8FCmV8etnApmzTYC5WPh8dO"/><feMerge><feMergeNode in="_out_9rQ9YYWbX8FCmV8etnApmzTYC5WPh8dO"/></feMerge></filter></defs><g filter="url(#NNyll74XsGLFN90eTIG6k82MB1gJDvoc)"><clipPath id="_clipPath_cDYC7NiPjhnKlXKaSxbi5YA1qu7CISby"><rect x="783.353" y="232.007" width="258.338" height="317.955" transform="matrix(0.991,-0.136,0.136,0.991,-44.568,127.272)" fill="rgb(255,255,255)"/></clipPath><g clip-path="url(#_clipPath_cDYC7NiPjhnKlXKaSxbi5YA1qu7CISby)"><clipPath id="_clipPath_V4GwvuVBcQ1tbMJ3ZfJ3lBwByOq3Umu9"><path d=" M 763 250.978 L 1018.955 215.968 L 1062.044 530.99 L 806.089 566 L 763 250.978 Z " fill="rgb(255,255,255)"/></clipPath><g clip-path="url(#_clipPath_V4GwvuVBcQ1tbMJ3ZfJ3lBwByOq3Umu9)"><linearGradient id="_lgradient_68" x1="0.25707382761065917" y1="0.8933271024822246" x2="0.6099800821914418" y2="-1.1352448946010663" gradientTransform="matrix(47.817,-6.541,6.668,48.75,800.432,260.454)" gradientUnits="userSpaceOnUse"><stop offset="2.5%" stop-opacity="1" style="stop-color:rgb(170,170,170)"/><stop offset="98.75%" stop-opacity="1" style="stop-color:rgb(255,255,255)"/><stop offset="100%" stop-opacity="1" style="stop-color:rgb(255,255,255)"/></linearGradient><path d=" M 851.228 275.69 C 848.838 267.994 838.012 261.185 830.947 258.407 C 818.534 253.687 806.629 264.408 804.235 276.235 C 803.288 281.044 803.538 286.292 805.036 291.135 C 806.534 295.977 809.281 300.415 813.328 303.606 C 822.913 311.12 832.958 304.397 841.011 298.749" fill="url(#_lgradient_68)"/><linearGradient id="_lgradient_69" x1="0.25707382761065917" y1="0.8933271024822246" x2="0.6099800821914418" y2="-1.1352448946010663" gradientTransform="matrix(49.969,-6.835,7.01,51.247,799.137,259.247)" gradientUnits="userSpaceOnUse"><stop offset="2.5%" stop-opacity="1" style="stop-color:rgb(170,170,170)"/><stop offset="98.75%" stop-opacity="1" style="stop-color:rgb(255,255,255)"/><stop offset="100%" stop-opacity="1" style="stop-color:rgb(255,255,255)"/></linearGradient><path d=" M 852.132 274.669 C 850.331 269.599 846.277 265.818 841.982 262.768 C 837.589 259.648 832.27 256.441 826.794 255.925 C 816.016 254.911 806.938 264.111 803.945 273.761 C 800.762 284.022 803.396 296.877 811.654 304.089 C 821.348 312.556 832.318 306.172 841.198 299.964 C 842.132 299.311 842.268 296.524 840.824 297.534 C 832.783 303.156 822.687 309.405 813.636 301.986 C 805.644 295.436 802.608 283.066 805.945 273.385 C 809.185 263.984 819.062 256.319 829.256 259.4 C 837.406 261.863 847.379 268.421 850.324 276.71 C 850.816 278.096 852.504 275.715 852.132 274.669 Z " fill="url(#_lgradient_69)"/><linearGradient id="_lgradient_70" x1="0.25707382761065917" y1="0.8933271024822246" x2="0.6099800821914418" y2="-1.1352448946010663" gradientTransform="matrix(45.038,-6.16,6.127,44.797,925.342,231.518)" gradientUnits="userSpaceOnUse"><stop offset="2.5%" stop-opacity="1" style="stop-color:rgb(170,170,170)"/><stop offset="98.75%" stop-opacity="1" style="stop-color:rgb(255,255,255)"/><stop offset="100%" stop-opacity="1" style="stop-color:rgb(255,255,255)"/></linearGradient><path d=" M 928.583 255.206 C 931.048 243.905 935.506 231.528 948.715 228.384 C 949.738 228.15 950.772 228.022 951.806 227.99 C 958.402 227.788 965.023 231.514 969.153 236.845 C 970.011 237.952 970.761 239.128 971.382 240.353 C 972.648 242.852 973.373 245.553 973.365 248.279 C 973.387 250.109 973.276 252.056 973.011 254.02 C 972.036 261.221 968.97 268.65 962.623 271.41 C 955.787 274.217 948.864 272.489 942.122 272.075" fill="url(#_lgradient_70)"/><linearGradient id="_lgradient_71" x1="0.25707382761065917" y1="0.8933271024822246" x2="0.6099800821914418" y2="-1.1352448946010663" gradientTransform="matrix(47.042,-6.434,6.481,47.379,924.104,230.468)" gradientUnits="userSpaceOnUse"><stop offset="2.5%" stop-opacity="1" style="stop-color:rgb(170,170,170)"/><stop offset="98.75%" stop-opacity="1" style="stop-color:rgb(255,255,255)"/><stop offset="100%" stop-opacity="1" style="stop-color:rgb(255,255,255)"/></linearGradient><path d=" M 929.531 255.165 C 931.366 246.935 934.101 237.981 941.37 232.921 C 949.606 227.188 959.912 229.138 966.698 236.133 C 973.306 242.946 973.659 252.882 970.232 261.393 C 965.307 273.63 953.236 271.443 942.445 270.654 C 941.311 270.571 940.44 273.396 941.798 273.495 C 948.615 273.993 956.021 275.638 962.555 272.771 C 966.761 270.927 969.664 267.155 971.48 263.045 C 975.373 254.232 975.934 243.117 969.68 235.304 C 962.966 226.915 951.702 224.042 942.316 229.639 C 933.329 234.999 929.786 245.595 927.635 255.247 C 927.203 257.182 929.197 256.662 929.531 255.165 Z " fill="url(#_lgradient_71)"/><linearGradient id="_lgradient_72" x1="0.07648670397449171" y1="0.8257657529366609" x2="1.1190218492718" y2="-0.19665096818852312" gradientTransform="matrix(145.783,-19.941,20.008,146.276,816.751,246.702)" gradientUnits="userSpaceOnUse"><stop offset="0.8695652173913043%" stop-opacity="1" style="stop-color:rgb(230,230,230)"/><stop offset="65%" stop-opacity="1" style="stop-color:rgb(254,252,251)"/></linearGradient><path d=" M 914.827 381.443 C 988.405 346.507 975.282 322.896 975.282 322.896 C 971.849 301.704 935.648 257.984 935.648 257.984 C 925.286 248.705 896.55 247.821 896.55 247.821 L 899.66 235.362 L 886.075 250.057 C 886.075 250.057 858.632 258.624 851.142 270.345 C 851.142 270.345 828.012 322.181 830.396 343.517 C 830.396 343.517 824.095 369.784 904.352 383.678 C 904.352 383.678 911.429 383.078 914.827 381.443 Z " fill="url(#_lgradient_72)"/><linearGradient id="_lgradient_73" x1="0.25707382761065917" y1="0.8933271024822246" x2="0.6099800821914418" y2="-1.1352448946010663" gradientTransform="matrix(149.979,-20.515,20.742,151.645,814.323,244.348)" gradientUnits="userSpaceOnUse"><stop offset="2.5%" stop-opacity="1" style="stop-color:rgb(160,160,160)"/><stop offset="98.33333333333333%" stop-opacity="1" style="stop-color:rgb(220,220,220)"/><stop offset="98.75%" stop-opacity="1" style="stop-color:rgb(255,255,255)"/></linearGradient><path d=" M 914.69 384.167 C 934.012 374.942 955.226 364.106 969.139 347.258 C 974.25 341.068 979.139 332.812 978.06 324.425 C 976.891 315.344 972.193 306.444 967.666 298.605 C 959.256 284.043 949.179 270.362 938.628 257.288 C 934.068 251.638 926.459 249.439 919.624 247.879 C 912.303 246.209 904.706 245.225 897.197 244.98 C 897.613 245.9 898.03 246.82 898.447 247.739 L 901.556 235.28 C 902.066 233.233 900.473 231.574 898.798 233.385 C 896.535 235.834 894.27 238.283 892.006 240.732 C 890.518 242.342 889.029 243.952 887.541 245.562 C 887.028 246.118 886.47 246.655 885.99 247.24 C 885.07 248.359 885.037 247.617 886.188 247.34 C 878.638 249.156 870.895 253.042 864.202 256.842 C 857.638 260.57 851.468 265.03 848.427 272.103 C 845.092 279.863 841.992 287.729 839.135 295.676 C 835.22 306.57 831.555 317.718 829.492 329.13 C 828.673 333.657 827.85 338.528 828.288 343.144 C 828.327 343.559 828.461 345.487 828.497 343.612 C 828.496 343.659 828.471 343.708 828.47 343.756 C 828.456 344.196 828.308 344.632 828.302 345.076 C 828.175 353.035 833.532 359.51 839.552 364.159 C 848.267 370.89 858.781 375.105 869.189 378.419 C 877.65 381.114 886.302 383.186 895.007 384.913 C 898.316 385.569 901.806 386.685 905.188 386.362 C 908.374 386.057 911.741 385.431 914.69 384.167 C 916.725 383.294 917.723 377.536 914.965 378.718 C 908.616 381.441 903.081 380.563 896.542 379.251 C 889.166 377.771 881.833 376.033 874.622 373.88 C 864.827 370.956 854.995 367.327 846.334 361.805 C 841.858 358.952 837.388 355.353 834.587 350.762 C 833.852 349.556 832.95 347.537 832.701 346.628 C 832.552 346.083 832.454 345.53 832.363 344.975 C 832.184 343.882 832.325 344.627 832.279 344.058 C 832.201 343.104 832.297 343.09 832.288 343.457 C 832.376 339.978 832.215 336.545 832.648 333.052 C 833.969 322.398 837.297 311.911 840.772 301.793 C 843.728 293.186 847.009 284.687 850.533 276.296 C 851.219 274.659 851.777 272.697 852.726 271.185 C 854.635 268.141 858.865 265.403 862.051 263.417 C 867.095 260.274 872.575 257.801 878.091 255.615 C 880.569 254.633 883.613 254.065 885.938 252.781 C 888.739 251.233 891.064 247.567 893.192 245.265 C 895.635 242.623 898.078 239.98 900.521 237.338 L 897.763 235.443 L 894.654 247.903 C 894.401 248.919 894.538 250.617 895.904 250.662 C 901.722 250.851 907.583 251.519 913.305 252.567 C 920.085 253.809 929.307 255.488 934.307 260.691 C 937.578 264.094 940.334 268.236 943.18 271.986 C 948.497 278.995 953.636 286.151 958.424 293.533 C 965.115 303.848 970.384 314.184 973.864 325.927 C 973.878 325.974 973.837 325.69 973.966 326.379 C 974.052 326.833 974.119 327.285 974.163 327.744 C 974.195 328.07 974.127 329.967 974.069 330.348 C 973.528 333.941 971.83 337.209 969.659 340.359 C 965.147 346.904 958.891 352.228 952.562 356.94 C 940.919 365.604 928.033 372.48 914.965 378.718 C 912.976 379.668 912.016 385.443 914.69 384.167 Z " fill="url(#_lgradient_73)"/><linearGradient id="_lgradient_74" x1="0.25707382761065917" y1="0.8933271024822246" x2="0.6099800821914418" y2="-1.1352448946010663" gradientTransform="matrix(16.276,-2.226,0.707,5.168,896.52,349.264)" gradientUnits="userSpaceOnUse"><stop offset="2.5%" stop-opacity="1" style="stop-color:rgb(170,170,170)"/><stop offset="98.75%" stop-opacity="1" style="stop-color:rgb(255,255,255)"/><stop offset="100%" stop-opacity="1" style="stop-color:rgb(255,255,255)"/></linearGradient><path d=" M 896.688 350.495 C 900.971 348.572 907.761 347.376 912.857 347.481 C 911.008 349.606 908.299 351.314 906.677 353.14 C 904.135 352.151 899.982 351.114 897.058 351.247" fill="url(#_lgradient_74)"/><linearGradient id="_lgradient_75" x1="0.25707382761065917" y1="0.8933271024822246" x2="0.6099800821914418" y2="-1.1352448946010663" gradientTransform="matrix(18.357,-2.511,1.08,7.896,895.33,348.027)" gradientUnits="userSpaceOnUse"><stop offset="2.5%" stop-opacity="1" style="stop-color:rgb(170,170,170)"/><stop offset="98.75%" stop-opacity="1" style="stop-color:rgb(255,255,255)"/><stop offset="100%" stop-opacity="1" style="stop-color:rgb(255,255,255)"/></linearGradient><path d=" M 896.619 351.857 C 901.607 349.739 907.133 348.871 912.534 348.901 C 912.498 348.098 912.462 347.296 912.427 346.493 C 910.509 348.537 908.19 350.134 906.247 352.152 C 906.578 352.022 906.909 351.891 907.241 351.76 C 904.088 350.601 900.754 349.804 897.382 349.827 C 896.229 349.834 895.399 352.676 896.735 352.667 C 899.957 352.646 903.104 353.413 906.114 354.52 C 906.503 354.663 906.854 354.392 907.108 354.128 C 909.051 352.11 911.367 350.517 913.287 348.469 C 913.736 347.991 914.353 346.068 913.18 346.061 C 907.632 346.03 901.881 346.957 896.757 349.133 C 895.737 349.566 895.237 352.444 896.619 351.857 Z " fill="url(#_lgradient_75)"/><defs><filter id="2mE8TO2YO3F6ZxO5YhAJrXbuf5OGRwit" x="-200%" y="-200%" width="400%" height="400%" filterUnits="objectBoundingBox" color-interpolation-filters="sRGB"><feOffset xmlns="http://www.w3.org/2000/svg" in="SourceGraphic" dx="0" dy="0"/><feGaussianBlur xmlns="http://www.w3.org/2000/svg" stdDeviation="2.146804531419514" result="pf_100_offsetBlur"/><feComposite xmlns="http://www.w3.org/2000/svg" in="SourceGraphic" in2="pf_100_offsetBlur" result="pf_100_inverse" operator="out"/><feFlood xmlns="http://www.w3.org/2000/svg" flood-color="#000000" flood-opacity="0.5" result="pf_100_color"/><feComposite xmlns="http://www.w3.org/2000/svg" in="pf_100_color" in2="pf_100_inverse" operator="in" result="pf_100_shadow"/><feComposite xmlns="http://www.w3.org/2000/svg" in="pf_100_shadow" in2="SourceGraphic" operator="over"/></filter></defs><g filter="url(#2mE8TO2YO3F6ZxO5YhAJrXbuf5OGRwit)"><linearGradient id="_lgradient_76" x1="0.25707382761065917" y1="0.8933271024822246" x2="0.6099800821914418" y2="-1.1352448946010663" gradientTransform="matrix(45.907,-6.279,7.25,53.003,909.76,288.413)" gradientUnits="userSpaceOnUse"><stop offset="2.5%" stop-opacity="1" style="stop-color:rgb(170,170,170)"/><stop offset="98.75%" stop-opacity="1" style="stop-color:rgb(255,255,255)"/><stop offset="100%" stop-opacity="1" style="stop-color:rgb(255,255,255)"/></linearGradient><path d=" M 921.948 286.868 C 902.621 298.069 915.526 339.628 937.567 338.485 C 949.786 337.883 960.773 330.229 960.327 317.187 C 959.689 304.704 953.182 296.235 942.726 290.177 C 934.884 285.633 929.49 285.302 921.686 286.904" fill="url(#_lgradient_76)"/></g><linearGradient id="_lgradient_77" x1="0.25707382761065917" y1="0.8933271024822246" x2="0.6099800821914418" y2="-1.1352448946010663" gradientTransform="matrix(48.113,-6.581,7.616,55.681,908.418,287.278)" gradientUnits="userSpaceOnUse"><stop offset="2.5%" stop-opacity="1" style="stop-color:rgb(170,170,170)"/><stop offset="98.75%" stop-opacity="1" style="stop-color:rgb(255,255,255)"/><stop offset="100%" stop-opacity="1" style="stop-color:rgb(255,255,255)"/></linearGradient><path d=" M 921.761 285.654 C 905.332 295.634 910.558 322.244 922.347 333.718 C 929.847 341.018 940.423 341.491 949.527 336.648 C 960.836 330.633 963.55 317.975 959.314 306.49 C 956.735 299.493 951.529 294.026 945.328 290.041 C 937.848 285.235 930.701 283.788 922.009 285.484 C 920.872 285.705 920.145 288.562 921.363 288.324 C 927.357 287.156 932.95 287.156 938.612 289.711 C 944.151 292.21 949.394 295.992 953.174 300.782 C 960.945 310.629 962.395 326.417 950.4 333.49 C 942.453 338.176 932.421 338.551 925.214 332.454 C 919.196 327.363 915.494 319.616 914.103 311.953 C 912.506 303.151 913.9 293.085 922.135 288.083 C 923.119 287.486 923.277 284.733 921.761 285.654 Z " fill="url(#_lgradient_77)"/><linearGradient id="_lgradient_78" x1="0" y1="0.5" x2="1" y2="0.5" gradientTransform="matrix(17.153,-2.346,2.687,19.647,920.778,304.639)" gradientUnits="userSpaceOnUse"><stop offset="0%" stop-opacity="1" style="stop-color:rgb(220,220,220)"/><stop offset="100%" stop-opacity="1" style="stop-color:rgb(254,252,251)"/><stop offset="100%" stop-opacity="1" style="stop-color:rgb(12,10,9)"/><stop offset="100%" stop-opacity="1" style="stop-color:rgb(255,255,255)"/></linearGradient><path d=" M 939.275 312.116 C 940.017 317.541 936.778 322.465 932.043 323.113 C 927.306 323.761 922.864 319.887 922.122 314.462 C 921.38 309.036 924.618 304.114 929.355 303.466 C 934.091 302.818 938.533 306.69 939.275 312.116 Z " fill="url(#_lgradient_78)"/><linearGradient id="_lgradient_79" x1="0.25707382761065917" y1="0.8933271024822246" x2="0.6099800821914418" y2="-1.1352448946010663" gradientTransform="matrix(16.275,-2.226,2.55,18.642,921.656,304.519)" gradientUnits="userSpaceOnUse"><stop offset="2.5%" stop-opacity="1" style="stop-color:rgb(170,170,170)"/><stop offset="98.75%" stop-opacity="1" style="stop-color:rgb(255,255,255)"/><stop offset="100%" stop-opacity="1" style="stop-color:rgb(255,255,255)"/></linearGradient><path d=" M 939.206 311.613 C 939.91 316.761 936.838 321.433 932.344 322.048 C 927.849 322.663 923.635 318.988 922.931 313.839 C 922.227 308.692 925.3 304.02 929.794 303.406 C 934.288 302.791 938.502 306.466 939.206 311.613 Z " fill="url(#_lgradient_79)"/><linearGradient id="_lgradient_80" x1="0.25707382761065917" y1="0.8933271024822246" x2="0.6099800821914418" y2="-1.1352448946010663"><stop offset="2.5%" stop-opacity="1" style="stop-color:rgb(170,170,170)"/><stop offset="98.75%" stop-opacity="1" style="stop-color:rgb(255,255,255)"/><stop offset="100%" stop-opacity="1" style="stop-color:rgb(255,255,255)"/></linearGradient><path d=" M 939.206 311.613 C 939.91 316.761 936.838 321.433 932.344 322.048 C 927.849 322.663 923.635 318.988 922.931 313.839 C 922.227 308.692 925.3 304.02 929.794 303.406 C 934.288 302.791 938.502 306.466 939.206 311.613 Z " fill="none" vector-effect="non-scaling-stroke" stroke-width="0.65" stroke="url(#_lgradient_80)" stroke-linejoin="miter" stroke-linecap="square" stroke-miterlimit="3"/><linearGradient id="_lgradient_81" x1="0" y1="0.5" x2="1" y2="0.5" gradientTransform="matrix(4.482,-0.613,0.693,5.07,929.039,305.957)" gradientUnits="userSpaceOnUse"><stop offset="0%" stop-opacity="1" style="stop-color:rgb(220,220,220)"/><stop offset="100%" stop-opacity="1" style="stop-color:rgb(254,252,251)"/><stop offset="100%" stop-opacity="1" style="stop-color:rgb(12,10,9)"/><stop offset="100%" stop-opacity="1" style="stop-color:rgb(255,255,255)"/></linearGradient><path d=" M 932.728 305.465 C 932.128 305.638 931.626 306.402 931.267 306.873 C 930.71 307.607 930.206 308.35 929.792 309.175 C 929.561 309.637 929.456 310.648 930.057 310.893 C 930.709 311.159 931.224 310.299 931.448 309.852 C 931.218 310.311 931.436 309.895 931.492 309.801 C 931.567 309.675 931.646 309.552 931.727 309.428 C 931.813 309.297 931.903 309.166 931.993 309.037 C 932.04 308.972 932.087 308.906 932.133 308.841 C 932.034 308.976 932.033 308.978 932.129 308.849 C 932.302 308.628 932.473 308.404 932.661 308.194 C 932.735 308.111 933.014 307.884 932.679 308.152 C 932.89 307.982 932.506 308.214 932.591 308.189 C 933.661 307.882 934.212 305.039 932.728 305.465 Z " fill="url(#_lgradient_81)"/><linearGradient id="_lgradient_82" x1="0" y1="0.5" x2="1" y2="0.5" gradientTransform="matrix(4.26,-0.583,0.655,4.789,930.187,306.605)" gradientUnits="userSpaceOnUse"><stop offset="0%" stop-opacity="1" style="stop-color:rgb(220,220,220)"/><stop offset="100%" stop-opacity="1" style="stop-color:rgb(254,252,251)"/><stop offset="100%" stop-opacity="1" style="stop-color:rgb(12,10,9)"/><stop offset="100%" stop-opacity="1" style="stop-color:rgb(255,255,255)"/></linearGradient><path d=" M 933.124 306.519 C 932.438 307.404 931.607 308.192 931.094 309.202 C 930.825 309.731 930.48 310.622 930.979 311.135 C 931.444 311.612 932.168 311.027 932.391 310.587 C 932.506 310.36 932.641 310.145 932.786 309.935 C 932.671 310.101 932.797 309.923 932.852 309.853 C 932.936 309.747 933.022 309.643 933.109 309.539 C 933.4 309.19 933.707 308.855 933.985 308.496 C 934.394 307.967 934.763 307.152 934.459 306.486 C 934.181 305.878 933.467 306.076 933.124 306.519 Z " fill="url(#_lgradient_82)"/><linearGradient id="_lgradient_83" x1="0" y1="0.5" x2="1" y2="0.5" gradientTransform="matrix(3.988,-0.545,0.697,5.096,931.542,306.658)" gradientUnits="userSpaceOnUse"><stop offset="0%" stop-opacity="1" style="stop-color:rgb(220,220,220)"/><stop offset="100%" stop-opacity="1" style="stop-color:rgb(254,252,251)"/><stop offset="100%" stop-opacity="1" style="stop-color:rgb(12,10,9)"/><stop offset="100%" stop-opacity="1" style="stop-color:rgb(255,255,255)"/></linearGradient><path d=" M 933.813 307.288 C 933.887 307.142 933.791 307.32 933.765 307.365 C 933.694 307.487 933.624 307.608 933.551 307.729 C 933.418 307.95 933.28 308.167 933.144 308.386 C 932.837 308.88 932.559 309.382 932.298 309.902 C 932.067 310.363 931.962 311.374 932.563 311.619 C 933.215 311.886 933.73 311.026 933.955 310.578 C 933.881 310.723 933.977 310.545 934.003 310.5 C 934.073 310.379 934.144 310.257 934.217 310.137 C 934.349 309.916 934.487 309.699 934.623 309.479 C 934.931 308.986 935.209 308.484 935.47 307.964 C 935.701 307.502 935.806 306.491 935.205 306.246 C 934.553 305.98 934.038 306.84 933.813 307.288 Z " fill="url(#_lgradient_83)"/><defs><filter id="PfQl09VpFAQE3l3HaKnrbX5iLXvykxUE" x="-200%" y="-200%" width="400%" height="400%" filterUnits="objectBoundingBox" color-interpolation-filters="sRGB"><feOffset xmlns="http://www.w3.org/2000/svg" in="SourceGraphic" dx="0" dy="0"/><feGaussianBlur xmlns="http://www.w3.org/2000/svg" stdDeviation="2.146804531419514" result="pf_100_offsetBlur"/><feComposite xmlns="http://www.w3.org/2000/svg" in="SourceGraphic" in2="pf_100_offsetBlur" result="pf_100_inverse" operator="out"/><feFlood xmlns="http://www.w3.org/2000/svg" flood-color="#000000" flood-opacity="0.5" result="pf_100_color"/><feComposite xmlns="http://www.w3.org/2000/svg" in="pf_100_color" in2="pf_100_inverse" operator="in" result="pf_100_shadow"/><feComposite xmlns="http://www.w3.org/2000/svg" in="pf_100_shadow" in2="SourceGraphic" operator="over"/></filter></defs><g filter="url(#PfQl09VpFAQE3l3HaKnrbX5iLXvykxUE)"><linearGradient id="_lgradient_84" x1="0.25707382761065917" y1="0.8933271024822246" x2="0.6099800821914418" y2="-1.1352448946010663" gradientTransform="matrix(45.907,-6.279,7.25,53.003,841.157,298.934)" gradientUnits="userSpaceOnUse"><stop offset="2.5%" stop-opacity="1" style="stop-color:rgb(170,170,170)"/><stop offset="98.75%" stop-opacity="1" style="stop-color:rgb(255,255,255)"/><stop offset="100%" stop-opacity="1" style="stop-color:rgb(255,255,255)"/></linearGradient><path d=" M 874.909 294.44 C 896.534 300.04 895.263 343.537 873.725 348.355 C 861.793 351.056 849.154 346.635 846.082 333.951 C 843.344 321.756 847.337 311.85 855.783 303.207 C 862.117 296.725 867.223 294.956 875.171 294.404" fill="url(#_lgradient_84)"/></g><linearGradient id="_lgradient_85" x1="0.25707382761065917" y1="0.8933271024822246" x2="0.6099800821914418" y2="-1.1352448946010663" gradientTransform="matrix(48.06,-6.574,7.623,55.73,839.884,297.781)" gradientUnits="userSpaceOnUse"><stop offset="2.5%" stop-opacity="1" style="stop-color:rgb(170,170,170)"/><stop offset="98.75%" stop-opacity="1" style="stop-color:rgb(255,255,255)"/><stop offset="100%" stop-opacity="1" style="stop-color:rgb(255,255,255)"/></linearGradient><path d=" M 874.345 295.82 C 890.352 300.319 892.428 322.79 886.557 335.717 C 882.652 344.312 874.965 348.218 865.642 347.643 C 852.63 346.841 845.265 336.321 846.329 323.71 C 846.933 316.54 850.549 310.249 855.384 305.063 C 860.864 299.186 866.899 296.455 874.848 295.825 C 876.004 295.732 876.794 292.88 875.494 292.984 C 868.56 293.534 862.673 295.5 857.438 300.211 C 852.4 304.743 848.114 310.454 845.911 316.909 C 842.086 328.119 844.362 342.842 856.017 348.302 C 865.449 352.721 877.817 350.918 884.45 342.647 C 890.103 335.599 892.051 325.838 891.395 316.992 C 890.652 306.951 885.943 296.003 875.472 293.06 C 874.271 292.722 873.207 295.499 874.345 295.82 Z " fill="url(#_lgradient_85)"/><linearGradient id="_lgradient_86" x1="0" y1="0.5" x2="1" y2="0.5" gradientTransform="matrix(17.303,-2.367,2.711,19.819,861.62,314.166)" gradientUnits="userSpaceOnUse"><stop offset="0%" stop-opacity="1" style="stop-color:rgb(220,220,220)"/><stop offset="100%" stop-opacity="1" style="stop-color:rgb(254,252,251)"/><stop offset="100%" stop-opacity="1" style="stop-color:rgb(12,10,9)"/><stop offset="100%" stop-opacity="1" style="stop-color:rgb(255,255,255)"/></linearGradient><path d=" M 880.279 321.708 C 881.027 327.18 877.76 332.147 872.983 332.801 C 868.205 333.454 863.724 329.547 862.975 324.075 C 862.227 318.602 865.494 313.636 870.272 312.982 C 875.049 312.329 879.53 316.235 880.279 321.708 Z " fill="url(#_lgradient_86)"/><linearGradient id="_lgradient_87" x1="0.25707382761065917" y1="0.8933271024822246" x2="0.6099800821914418" y2="-1.1352448946010663" gradientTransform="matrix(16.276,-2.226,2.55,18.641,862.648,314.025)" gradientUnits="userSpaceOnUse"><stop offset="2.5%" stop-opacity="1" style="stop-color:rgb(170,170,170)"/><stop offset="98.75%" stop-opacity="1" style="stop-color:rgb(255,255,255)"/><stop offset="100%" stop-opacity="1" style="stop-color:rgb(255,255,255)"/></linearGradient><path d=" M 880.198 321.119 C 880.902 326.268 877.83 330.938 873.335 331.553 C 868.841 332.168 864.627 328.494 863.923 323.346 C 863.219 318.198 866.291 313.527 870.785 312.912 C 875.28 312.297 879.494 315.972 880.198 321.119 Z " fill="url(#_lgradient_87)"/><linearGradient id="_lgradient_88" x1="0.25707382761065917" y1="0.8933271024822246" x2="0.6099800821914418" y2="-1.1352448946010663"><stop offset="2.5%" stop-opacity="1" style="stop-color:rgb(170,170,170)"/><stop offset="98.75%" stop-opacity="1" style="stop-color:rgb(255,255,255)"/><stop offset="100%" stop-opacity="1" style="stop-color:rgb(255,255,255)"/></linearGradient><path d=" M 880.198 321.119 C 880.902 326.268 877.83 330.938 873.335 331.553 C 868.841 332.168 864.627 328.494 863.923 323.346 C 863.219 318.198 866.291 313.527 870.785 312.912 C 875.28 312.297 879.494 315.972 880.198 321.119 Z " fill="none" vector-effect="non-scaling-stroke" stroke-width="0.65" stroke="url(#_lgradient_88)" stroke-linejoin="miter" stroke-linecap="square" stroke-miterlimit="3"/><linearGradient id="_lgradient_89" x1="0" y1="0.5" x2="1" y2="0.5" gradientTransform="matrix(3.988,-0.546,0.693,5.068,872.005,314.911)" gradientUnits="userSpaceOnUse"><stop offset="0%" stop-opacity="1" style="stop-color:rgb(220,220,220)"/><stop offset="100%" stop-opacity="1" style="stop-color:rgb(254,252,251)"/><stop offset="100%" stop-opacity="1" style="stop-color:rgb(12,10,9)"/><stop offset="100%" stop-opacity="1" style="stop-color:rgb(255,255,255)"/></linearGradient><path d=" M 874.277 315.54 C 874.184 315.732 874.093 315.924 873.996 316.114 C 874.086 315.937 873.826 316.428 873.797 316.479 C 873.603 316.828 873.398 317.184 873.16 317.504 C 872.759 318.041 872.379 318.839 872.687 319.513 C 872.961 320.114 873.685 319.932 874.021 319.481 C 874.786 318.453 875.373 317.367 875.933 316.216 C 876.159 315.751 876.273 314.745 875.669 314.498 C 875.021 314.234 874.496 315.09 874.277 315.54 Z " fill="url(#_lgradient_89)"/><linearGradient id="_lgradient_90" x1="0" y1="0.5" x2="1" y2="0.5" gradientTransform="matrix(3.462,-0.474,0.549,4.013,873.467,315.809)" gradientUnits="userSpaceOnUse"><stop offset="0%" stop-opacity="1" style="stop-color:rgb(220,220,220)"/><stop offset="100%" stop-opacity="1" style="stop-color:rgb(254,252,251)"/><stop offset="100%" stop-opacity="1" style="stop-color:rgb(12,10,9)"/><stop offset="100%" stop-opacity="1" style="stop-color:rgb(255,255,255)"/></linearGradient><path d=" M 875.606 315.832 C 875.048 316.531 874.406 317.116 874.075 317.974 C 873.889 318.457 873.708 319.434 874.34 319.693 C 874.959 319.945 875.551 319.117 875.731 318.65 C 875.811 318.442 875.717 318.719 875.677 318.736 C 875.71 318.722 875.773 318.588 875.793 318.555 C 875.733 318.653 875.671 318.706 875.778 318.585 C 875.84 318.515 875.898 318.443 875.96 318.374 C 876.128 318.185 876.309 318.007 876.467 317.809 C 876.882 317.288 877.243 316.46 876.94 315.8 C 876.66 315.185 875.953 315.396 875.606 315.832 Z " fill="url(#_lgradient_90)"/><linearGradient id="_lgradient_91" x1="6.97059395335566" y1="-32.25455797399424" x2="0.9709391527959346" y2="74.90372646231945" gradientTransform="matrix(3.191,-0.437,0.617,4.514,874.026,316)" gradientUnits="userSpaceOnUse"><stop offset="0%" stop-opacity="1" style="stop-color:rgb(220,220,220)"/><stop offset="100%" stop-opacity="1" style="stop-color:rgb(254,252,251)"/><stop offset="100%" stop-opacity="1" style="stop-color:rgb(12,10,9)"/><stop offset="100%" stop-opacity="1" style="stop-color:rgb(255,255,255)"/></linearGradient><path d=" M 875.351 317.784 C 875.352 317.655 875.351 317.664 875.346 317.811 C 875.375 317.637 875.372 317.627 875.339 317.783 C 875.354 317.728 875.37 317.672 875.386 317.617 C 875.318 317.771 875.328 317.755 875.418 317.567 C 875.426 317.573 875.242 317.849 875.235 317.861 C 875.142 317.992 875.146 317.989 875.248 317.851 C 875.201 317.914 875.153 317.977 875.106 318.04 C 874.701 318.574 874.325 319.378 874.632 320.049 C 874.908 320.654 875.627 320.464 875.967 320.016 C 876.809 318.906 877.465 317.756 877.319 316.31 C 877.254 315.684 876.628 315.453 876.148 315.833 C 875.572 316.286 875.278 317.063 875.351 317.784 Z " fill="url(#_lgradient_91)"/><linearGradient id="_lgradient_92" x1="0.25707382761065917" y1="0.8933271024822246" x2="0.6099800821914418" y2="-1.1352448946010663" gradientTransform="matrix(23.317,-3.189,1.226,8.966,885.776,364.157)" gradientUnits="userSpaceOnUse"><stop offset="2.5%" stop-opacity="1" style="stop-color:rgb(170,170,170)"/><stop offset="98.75%" stop-opacity="1" style="stop-color:rgb(255,255,255)"/><stop offset="100%" stop-opacity="1" style="stop-color:rgb(255,255,255)"/></linearGradient><path d=" M 909.57 364.454 C 906.373 371.996 890.023 376.056 885.776 364.157" fill="url(#_lgradient_92)"/><linearGradient id="_lgradient_93" x1="0.25707382761065917" y1="0.8933271024822246" x2="0.6099800821914418" y2="-1.1352448946010663" gradientTransform="matrix(23.929,-3.273,1.272,9.302,885.449,364.053)" gradientUnits="userSpaceOnUse"><stop offset="2.5%" stop-opacity="1" style="stop-color:rgb(170,170,170)"/><stop offset="98.75%" stop-opacity="1" style="stop-color:rgb(255,255,255)"/><stop offset="100%" stop-opacity="1" style="stop-color:rgb(255,255,255)"/></linearGradient><path d=" M 909.275 364.545 C 904.78 374.061 889.874 373.667 886.069 364.035 C 886.009 363.883 885.42 364.122 885.482 364.281 C 889.5 374.448 905.299 374.029 909.864 364.365 C 909.912 364.265 909.357 364.372 909.275 364.545 Z " fill="url(#_lgradient_93)"/></g></g></g><g filter="url(#eCcat2md2B6z2tYaN35TwNAiQyixjbW0)"><path d=" M 1017.43 181.571 L 953.9 172.429 C 948.448 171.644 943.432 175.398 942.647 180.85 L 933.505 244.38 C 932.72 249.832 936.474 254.849 941.926 255.634 L 947.734 256.469 L 944.579 278.397 C 957.261 280.222 969.225 271.902 973.573 260.188 L 1005.456 264.776 C 1010.908 265.561 1015.925 261.806 1016.709 256.354 L 1025.852 192.825 C 1026.637 187.372 1022.882 182.356 1017.43 181.571 Z " fill="rgb(240,240,240)" vector-effect="non-scaling-stroke" stroke-width="6" stroke="rgb(160,160,160)" stroke-linejoin="round" stroke-linecap="round" stroke-miterlimit="10"/><g><path d=" M 990.088 239.578 L 988.52 232.82 L 967.779 229.835 L 964.351 235.995 C 963.045 238.348 961.959 240.006 961.112 240.852 C 960.264 241.698 959.146 241.9 957.605 241.679 C 956.302 241.491 955.185 240.846 954.373 239.762 C 953.561 238.677 953.122 237.525 953.293 236.34 C 953.395 235.628 953.616 234.934 953.955 234.257 C 954.295 233.58 954.804 232.565 955.584 231.346 L 973.381 200.154 C 973.873 199.257 974.517 198.14 975.179 196.904 C 975.841 195.669 976.604 194.569 977.316 193.824 C 978.028 193.08 978.96 192.488 979.994 192.032 C 981.027 191.576 982.246 191.509 983.669 191.714 C 985.091 191.919 986.242 192.326 987.105 193.055 C 987.968 193.785 988.695 194.615 989.169 195.53 C 989.642 196.445 989.98 197.461 990.317 198.478 C 990.536 199.477 990.941 200.866 991.295 202.611 L 999.964 237.37 C 1000.672 240.013 1000.89 241.859 1000.72 243.044 C 1000.549 244.229 999.922 245.228 998.837 246.039 C 997.752 246.851 996.499 247.155 995.077 246.95 C 994.247 246.831 993.553 246.61 993.011 246.169 C 992.453 245.847 992.047 245.304 991.76 244.779 C 991.472 244.254 991.118 243.356 990.78 242.339 C 990.561 241.34 990.206 240.442 990.088 239.578 Z  M 971.613 222.523 L 986.785 224.706 L 982.1 202.618 L 971.613 222.523 Z " fill="rgb(160,160,160)"/></g><g><path d=" M 1073.53 268.403 L 1017.882 236.44 C 1013.075 233.692 1007.028 235.362 1004.279 240.169 L 972.317 295.817 C 969.568 300.624 971.239 306.671 976.045 309.42 L 981.072 312.321 L 970.078 331.547 C 981.147 337.858 995.392 334.706 1003.751 325.384 L 1031.677 341.501 C 1036.483 344.249 1042.531 342.579 1045.279 337.772 L 1077.241 282.124 C 1079.99 277.317 1078.337 271.151 1073.53 268.403 Z " fill="rgb(240,240,240)" vector-effect="non-scaling-stroke" stroke-width="6" stroke="rgb(160,160,160)" stroke-linejoin="round" stroke-linecap="round" stroke-miterlimit="10"/><g><path d=" M 1028.97 289.694 L 1028.85 290.524 L 1025.282 301.867 L 1026.619 302.664 L 1036.505 306.264 L 1044.966 296.231 C 1045.543 295.588 1045.137 295.046 1043.749 294.604 L 1028.97 289.694 Z  M 1052.16 299.202 C 1052.329 299.71 1052.177 299.93 1051.668 300.099 C 1050.466 300.047 1049.45 300.385 1048.585 301.349 L 1039.771 308.791 L 1040.176 310.18 C 1040.327 311.654 1039.785 312.06 1038.549 311.398 L 1034.454 308.752 C 1031.797 307.039 1028.597 305.731 1024.873 304.711 C 1024.179 304.491 1023.671 304.659 1023.331 305.336 C 1022.501 306.064 1021.908 305.978 1021.435 305.063 C 1020.759 303.877 1020.743 302.302 1021.507 300.356 L 1025.313 288.2 C 1025.551 287.388 1025.569 286.423 1025.333 285.542 C 1025.198 284.796 1025.385 284.339 1026.13 284.205 C 1026.994 284.087 1027.553 284.409 1027.687 285.155 C 1028.431 286.713 1029.023 287.645 1029.497 287.714 L 1045.698 292.828 C 1047.256 292.931 1048.204 293.067 1048.644 293.373 L 1052.16 299.202 Z  M 1032.854 266.904 C 1032.871 267.633 1032.345 267.92 1031.313 267.529 C 1028.078 267.306 1025.234 266.896 1022.863 266.555 C 1023.827 268.267 1023.859 269.723 1023.096 270.823 L 1020.06 275.104 C 1021.516 275.919 1023.022 276.378 1024.496 276.227 C 1025.241 276.092 1025.851 276.059 1026.392 276.5 C 1027.729 277.297 1028.812 278.179 1029.624 279.263 C 1030.47 280.111 1030.706 280.992 1030.231 281.77 C 1029.909 282.329 1028.046 281.819 1024.898 280.156 C 1021.852 278.629 1019.685 277.712 1018.601 277.677 L 1015.158 283.11 C 1016.985 284.703 1018.931 286.314 1020.928 287.569 C 1021.333 288.958 1021.399 290.178 1021.11 291.346 C 1020.889 292.04 1020.669 292.734 1020.346 293.293 C 1020.024 293.851 1019.499 294.139 1018.804 293.918 C 1017.907 293.426 1017.13 292.104 1016.59 289.97 C 1015.999 288.191 1015.307 286.276 1014.666 284.007 L 1001.875 305.636 C 1000.161 308.293 998.993 308.004 998.471 304.904 C 998.489 303.939 998.524 302.855 998.796 301.806 C 999.017 301.111 999.221 300.536 999.526 300.096 C 1000.001 299.317 1000.612 298.437 1001.612 297.372 C 1002.494 296.289 1005.275 292.092 1009.94 284.899 L 1011.229 282.665 C 1003.352 285.282 995.933 287.239 988.887 288.281 C 988.158 288.298 988.074 288.043 988.752 287.536 C 993.97 285.746 998.307 284.193 1001.661 282.74 C 1005.067 280.931 1009.371 278.768 1014.471 276.115 C 1007.716 274.296 1003.991 273.276 1003.043 273.139 C 1001.993 272.867 1001.18 272.629 1000.723 272.443 C 1000.283 272.137 999.539 271.425 998.609 270.324 C 998.694 269.731 998.847 269.511 998.948 269.647 L 1016.081 274.169 L 1019.797 267.687 C 1020.289 266.79 1020.12 266.282 1019.172 266.145 C 1015.752 265.532 1012.247 264.665 1008.794 263.442 C 1007.642 263.034 1007.795 262.814 1009.133 262.765 C 1011.859 263.157 1014.975 263.363 1018.379 263.248 C 1022.985 263.185 1026.559 262.732 1028.829 262.091 C 1029.354 261.803 1029.541 261.346 1029.406 260.601 C 1029.424 259.636 1029.695 259.433 1030.338 260.009 C 1030.88 260.45 1031.37 261.247 1031.708 262.263 C 1032.924 264.737 1033.177 266.346 1032.854 266.904 L 1032.854 266.904 Z " fill="rgb(160,160,160)"/></g></g></g><defs><filter id="eCcat2md2B6z2tYaN35TwNAiQyixjbW0" x="-200%" y="-200%" width="400%" height="400%" filterUnits="objectBoundingBox" color-interpolation-filters="sRGB"><feGaussianBlur xmlns="http://www.w3.org/2000/svg" in="SourceGraphic" stdDeviation="2.146804531419514"/><feOffset xmlns="http://www.w3.org/2000/svg" dx="0" dy="0" result="pf_100_offsetBlur"/><feFlood xmlns="http://www.w3.org/2000/svg" flood-color="#000000" flood-opacity="0.65"/><feComposite xmlns="http://www.w3.org/2000/svg" in2="pf_100_offsetBlur" operator="in" result="pf_100_dropShadow"/><feBlend xmlns="http://www.w3.org/2000/svg" in="SourceGraphic" in2="pf_100_dropShadow" mode="normal" result="_out_BpB2xOWwzCK1nyHyCxQsyrZDoAHnxtfx"/><feOffset xmlns="http://www.w3.org/2000/svg" in="_out_BpB2xOWwzCK1nyHyCxQsyrZDoAHnxtfx" dx="0" dy="0"/><feGaussianBlur xmlns="http://www.w3.org/2000/svg" stdDeviation="2.146804531419514" result="pf_101_offsetBlur"/><feComposite xmlns="http://www.w3.org/2000/svg" in="_out_BpB2xOWwzCK1nyHyCxQsyrZDoAHnxtfx" in2="pf_101_offsetBlur" result="pf_101_inverse" operator="out"/><feFlood xmlns="http://www.w3.org/2000/svg" flood-color="#000000" flood-opacity="0.5" result="pf_101_color"/><feComposite xmlns="http://www.w3.org/2000/svg" in="pf_101_color" in2="pf_101_inverse" operator="in" result="pf_101_shadow"/><feComposite xmlns="http://www.w3.org/2000/svg" in="pf_101_shadow" in2="_out_BpB2xOWwzCK1nyHyCxQsyrZDoAHnxtfx" operator="over" result="_out_Uasm146iniyb2yR5wcIdJla5O4FXDh2P"/><feMerge><feMergeNode in="_out_Uasm146iniyb2yR5wcIdJla5O4FXDh2P"/></feMerge></filter></defs><defs><linearGradient id="_lgradient_94" x1="0.8315230670192626" y1="-0.05388094696866477" x2="0.07631225956771126" y2="1.1373754352537686"><stop offset="0.43478260869565216%" style="stop-color:#FFFFFF"/><stop offset="43.04347826086957%" style="stop-color:#C0C0C0"/><stop offset="98.26086956521739%" style="stop-color:#FFFFFF"/></linearGradient></defs><path d="M 719.07 294.809 L 1030.829 93 L 1091.62 195.301 L 779.861 397.11 L 779.861 397.11 L 779.861 397.11 L 779.861 397.11 L 779.861 397.11 L 779.861 397.11 L 779.861 397.11 L 719.07 294.809 Z" style="stroke:none;fill:url(#_lgradient_94);stroke-miterlimit:10;opacity:0.4;"/><defs><linearGradient id="_lgradient_95" x1="0.8315230670192626" y1="-0.05388094696866477" x2="0.07631225956771126" y2="1.1373754352537686"><stop offset="0.43478260869565216%" style="stop-color:#FFFFFF"/><stop offset="43.04347826086957%" style="stop-color:#C0C0C0"/><stop offset="98.26086956521739%" style="stop-color:#FFFFFF"/></linearGradient></defs><path d="M 812.34 425.859 L 1124.099 224.05 L 1184.89 326.351 L 873.131 528.16 L 873.131 528.16 L 873.131 528.16 L 873.131 528.16 L 873.131 528.16 L 873.131 528.16 L 873.131 528.16 L 812.34 425.859 Z" style="stroke:none;fill:url(#_lgradient_95);stroke-miterlimit:10;opacity:0.4;"/></g></g></g><g><path d=" M 988 141.748 L 971.206 151.055 L 966.579 169 L 957.272 152.206 L 939.327 147.579 L 956.121 138.272 L 960.748 120.327 L 970.055 137.121 L 988 141.748 Z " fill="rgb(249,249,249)"/></g><g><path d=" M 1081.92 162.251 L 1060.555 174.091 L 1054.669 196.92 L 1042.829 175.555 L 1020 169.669 L 1041.365 157.829 L 1047.251 135 L 1059.091 156.365 L 1081.92 162.251 Z " fill="rgb(255,250,249)"/></g><g><path d=" M 806 234.748 L 789.206 244.055 L 784.579 262 L 775.272 245.206 L 757.327 240.579 L 774.121 231.272 L 778.748 213.327 L 788.055 230.121 L 806 234.748 Z " fill="rgb(255,255,255)"/></g><g><path d=" M 1116.673 264.748 L 1099.879 274.055 L 1095.252 292 L 1085.945 275.206 L 1068 270.579 L 1084.794 261.272 L 1089.421 243.327 L 1098.728 260.121 L 1116.673 264.748 Z " fill="rgb(255,255,255)"/></g></g></svg>