<?xml version="1.0" encoding="UTF-8" standalone="no"?>

<svg xmlns="http://www.w3.org/2000/svg"
     style="isolation:isolate" viewBox="-5250 0 4000 4000"
     width="1000" height="2000">

    <path class="svg-new-achievement-popup-color-1"
          fill="#ff0000"
          d=" M 3252 -2727.15 L 3252 8129 L -10034.7 8129 L -10034.7 -2727.15 L 3252 -2727.15 Z "
    />

    <g class="svg-new-achievement-popup-color-2">
        <path
                d=" M -7072.341 -2839.034 L -3313.036 2093.271 L -4646.45 -2839.034 L -7072.341 -2839.034 L -7072.341 -2839.034 Z"/>
        <path
                d=" M -10047.997 7635.98 L -10047.997 4186.789 L -10047.997 4186.789 L -3313.036 2093.271 L -10047.997 7635.98"/>
        <line x1="-10047.997" y1="7635.98" x2="-10047.997" y2="7635.98"/>
        <path
                d=" M -5910.776 8200.285 L -3313.036 2093.271 L -8760.7 8190.149 L -5910.776 8200.285 L -5910.776 8200.285 Z "/>
        <path
                d=" M 3353.524 3148.475 L -3313 2093.216 L 3347.054 13.4 L 3353.524 3148.475 L 3353.524 3148.475 Z "/>
        <path
                d=" M -1263.744 -2839.034 L -3450.452 -2839.034 L -3450.452 -2839.034 L -3313.036 2093.271 L -1263.744 -2839.034"/>
        <path
                d=" M 3358.866 5754.074 L -3313.036 2093.271 L 3356.039 4384.374 L 3358.866 5754.074 L 3358.866 5754.074 Z "/>
        <path
                d=" M -64.938 8182.32 L -3313.036 2093.271 L -2867.117 8173.304 L -64.938 8182.32 L -64.938 8182.32 Z "/>
        <path
                d=" M 2715.617 8180.639 L -3313 2093.304 L 398.921 8173.186 L 2715.617 8180.639 L 2715.617 8180.639 Z "/>
        <path
                d=" M -10047.997 2428.198 L -3313.036 2093.271 L -10047.997 3603.694 L -10047.997 2428.198 L -10047.997 2428.198 Z "/>
        <path
                d=" M 425.842 -2983.017 L -3313.036 2093.271 L 3535.816 -2770.939"/>
        <path
                d=" M -10047.997 -2839.034 L -9148.219 -2839.034 L -3313.036 2093.271 L -10047.997 -1860.23 L -10047.997 -2839.034 L -10047.997 -2839.034 Z "/>
        <line x1="3631.694" y1="-2839.034" x2="3989.3" y2="-3127"/>
        <path
                d=" M -10047.997 -1310.003 L -3313.036 2093.271 L -10047.997 1078.982 L -10047.997 -1310.003 L -10047.997 -1310.003 Z "/>
    </g>
</svg>
