<svg height="48" viewBox="0 0 192 64" fill="none" xmlns="http://www.w3.org/2000/svg"><g clip-path="url(#clip0)"><path d="M176.71 -0.00012207H15.2983C14.7099 -0.00012207 14.1286 -0.00012207 13.5418 0.00328593C13.0506 0.00648593 12.5633 0.0157819 12.0674 0.0236059C10.99 0.0362488 9.91513 0.130768 8.85214 0.306342C7.79065 0.485738 6.76241 0.823951 5.80219 1.30954C4.84316 1.79924 3.96686 2.43555 3.20508 3.1954C2.43931 3.9531 1.80098 4.82891 1.31464 5.78914C0.826955 6.74746 0.488793 7.77439 0.311833 8.83445C0.13319 9.89318 0.0370612 10.9641 0.024308 12.0377C0.00941837 12.5282 0.00784596 13.0204 0 13.511V50.4938C0.00784596 50.9906 0.00941837 51.4719 0.024308 51.9689C0.0370651 53.0424 0.133194 54.1132 0.311833 55.1719C0.488304 56.2326 0.826487 57.2601 1.31464 58.2188C1.80076 59.1759 2.43918 60.0482 3.20508 60.8017C3.96397 61.5649 4.84084 62.2016 5.80219 62.6876C6.7624 63.1745 7.79053 63.5147 8.85214 63.6969C9.91531 63.8711 10.9901 63.9656 12.0674 63.9798C12.5633 63.9906 13.0506 63.9969 13.5418 63.9969C14.1286 64.0001 14.71 64.0001 15.2983 64.0001H176.71C177.287 64.0001 177.873 64.0001 178.45 63.9969C178.938 63.9969 179.44 63.9906 179.929 63.9798C181.004 63.9664 182.077 63.8718 183.138 63.6969C184.203 63.5134 185.235 63.1733 186.199 62.6876C187.16 62.2014 188.036 61.5646 188.794 60.8017C189.558 60.0452 190.198 59.1736 190.69 58.2188C191.175 57.2594 191.51 56.232 191.683 55.1719C191.862 54.1131 191.962 53.0425 191.981 51.9689C191.987 51.4719 191.987 50.9906 191.987 50.4938C192 49.9126 192 49.3345 192 48.7438V15.2579C192 14.672 192 14.0907 191.987 13.511C191.987 13.0204 191.987 12.5282 191.981 12.0376C191.962 10.964 191.862 9.89326 191.683 8.83439C191.509 7.77494 191.174 6.74809 190.69 5.78908C189.7 3.8644 188.129 2.29773 186.199 1.3094C185.235 0.824994 184.203 0.486871 183.138 0.306198C182.077 0.12985 181.004 0.0352984 179.929 0.0233819C179.44 0.0155739 178.938 0.00619793 178.45 0.00307793C177.873 -0.00012207 177.287 -0.00012207 176.71 -0.00012207Z" fill="black"></path><path d="M39.6302 32.4811C39.6652 29.7668 41.0882 27.2595 43.4007 25.8378C41.9352 23.7448 39.5686 22.4654 37.0148 22.3855C34.3281 22.1035 31.7233 23.9933 30.3542 23.9933C28.9586 23.9933 26.8506 22.4135 24.5806 22.4602C21.5939 22.5567 18.877 24.2137 17.4239 26.8248C14.3295 32.1823 16.6377 40.056 19.6018 44.3865C21.0849 46.5071 22.8181 48.8758 25.0861 48.7918C27.3054 48.6998 28.1342 47.3767 30.8131 47.3767C33.4671 47.3767 34.2448 48.7918 36.5587 48.7384C38.9401 48.6998 40.4405 46.6084 41.8715 44.4678C42.9371 42.9568 43.757 41.2869 44.301 39.5198C41.4726 38.3235 39.6335 35.5521 39.6302 32.4811ZM35.2596 19.5374C36.558 17.9787 37.1977 15.9752 37.0428 13.9525C35.0591 14.1608 33.2267 15.1089 31.9107 16.6078C30.6112 18.0867 29.9529 20.0215 30.0808 21.9861C32.0911 22.0068 33.9999 21.1043 35.2596 19.5374ZM67.6836 43.4235H60.1102L58.2914 48.7938H55.0836L62.2571 28.925H65.5899L72.7633 48.7938H69.5008L67.6836 43.4235ZM60.8946 40.9453H66.8978L63.9384 32.2297H63.8556L60.8946 40.9453ZM88.2555 41.5516C88.2555 46.0532 85.8461 48.9453 82.2102 48.9453C80.3308 49.0436 78.5605 48.0593 77.6524 46.4109H77.5836V53.5859H74.6101V34.3078H77.4883V36.7172H77.543C78.4915 35.0792 80.2637 34.0953 82.1555 34.1563C85.832 34.1563 88.2555 37.0625 88.2555 41.5516ZM85.1992 41.5516C85.1992 38.6188 83.6836 36.6906 81.3711 36.6906C79.0992 36.6906 77.5711 38.6594 77.5711 41.5516C77.5711 44.4703 79.0992 46.425 81.3711 46.425C83.6836 46.425 85.1992 44.511 85.1992 41.5516ZM104.199 41.5516C104.199 46.0532 101.79 48.9453 98.1539 48.9453C96.2746 49.0436 94.5043 48.0593 93.5961 46.4109H93.5273V53.5859H90.5539V34.3078H93.432V36.7172H93.4867C94.4352 35.0792 96.2074 34.0953 98.0992 34.1563C101.776 34.1563 104.199 37.0625 104.199 41.5516ZM101.143 41.5516C101.143 38.6188 99.6273 36.6906 97.3149 36.6906C95.043 36.6906 93.5149 38.6594 93.5149 41.5516C93.5149 44.4703 95.043 46.425 97.3149 46.425C99.6274 46.425 101.143 44.511 101.143 41.5516ZM114.737 43.2578C114.957 45.2282 116.871 46.5218 119.487 46.5218C121.993 46.5218 123.796 45.2281 123.796 43.4515C123.796 41.9093 122.709 40.9859 120.134 40.3531L117.559 39.7328C113.91 38.8515 112.216 37.1453 112.216 34.3765C112.216 30.9484 115.204 28.5937 119.446 28.5937C123.645 28.5937 126.523 30.9484 126.62 34.3765H123.618C123.438 32.3937 121.799 31.1968 119.404 31.1968C117.009 31.1968 115.37 32.4078 115.37 34.1703C115.37 35.5749 116.416 36.4015 118.977 37.0343L121.166 37.5718C125.243 38.5358 126.937 40.1734 126.937 43.0796C126.937 46.7968 123.976 49.1249 119.266 49.1249C114.86 49.1249 111.885 46.8514 111.693 43.2577L114.737 43.2578ZM133.354 30.8797V34.3078H136.109V36.6625H133.354V44.6485C133.354 45.8891 133.906 46.4672 135.116 46.4672C135.443 46.4615 135.77 46.4385 136.095 46.3984V48.739C135.55 48.8408 134.997 48.8868 134.443 48.8765C131.51 48.8765 130.366 47.775 130.366 44.9656V36.6625H128.26V34.3078H130.366V30.8797H133.354ZM137.704 41.5516C137.704 36.9938 140.388 34.1297 144.574 34.1297C148.774 34.1297 151.446 36.9937 151.446 41.5516C151.446 46.1219 148.788 48.9735 144.574 48.9735C140.362 48.9735 137.704 46.1219 137.704 41.5516ZM148.417 41.5516C148.417 38.425 146.984 36.5797 144.574 36.5797C142.165 36.5797 140.734 38.4391 140.734 41.5516C140.734 44.6906 142.165 46.5219 144.574 46.5219C146.984 46.5219 148.417 44.6906 148.417 41.5516ZM153.898 34.3078H156.734V36.7734H156.802C157.198 35.1862 158.652 34.0938 160.287 34.1562C160.629 34.155 160.971 34.1923 161.306 34.2672V37.0484C160.873 36.9163 160.422 36.8556 159.97 36.8688C159.095 36.8333 158.249 37.1817 157.654 37.8224C157.058 38.4632 156.772 39.3323 156.871 40.2016V48.7938H153.898V34.3078ZM175.015 44.5391C174.615 47.1688 172.054 48.9734 168.777 48.9734C164.563 48.9734 161.948 46.15 161.948 41.6203C161.948 37.0766 164.577 34.1297 168.652 34.1297C172.66 34.1297 175.181 36.8828 175.181 41.275V42.2938H164.949V42.4734C164.854 43.5519 165.226 44.6194 165.972 45.4045C166.717 46.1895 167.764 46.6164 168.846 46.5766C170.289 46.7118 171.65 45.8832 172.191 44.5391L175.015 44.5391ZM164.963 40.2157H172.206C172.259 39.2466 171.907 38.2989 171.232 37.601C170.558 36.9031 169.623 36.5182 168.652 36.5391C167.674 36.5332 166.735 36.9183 166.042 37.6087C165.349 38.2991 164.961 39.2376 164.963 40.2157ZM60.5219 13.9696C61.7842 13.879 63.0206 14.3593 63.8908 15.2782C64.761 16.1971 65.1732 17.4579 65.0141 18.7134C65.0141 21.7634 63.3657 23.5166 60.5219 23.5166H57.0735V13.9696H60.5219ZM58.5563 22.1664H60.3563C61.2584 22.2203 62.1368 21.8649 62.7475 21.1988C63.3583 20.5327 63.6364 19.6269 63.5047 18.7328C63.6269 17.8425 63.3447 16.9441 62.7355 16.2834C62.1262 15.6228 61.2536 15.269 60.3563 15.3188H58.5563V22.1664ZM66.6891 19.911C66.5655 18.6196 67.1848 17.3698 68.2871 16.6858C69.3894 16.0018 70.7841 16.0018 71.8864 16.6858C72.9887 17.3698 73.6079 18.6196 73.4844 19.911C73.6103 21.2037 72.9916 22.4559 71.8884 23.1414C70.7851 23.8269 69.3884 23.8269 68.2851 23.1414C67.1819 22.4559 66.5632 21.2037 66.6891 19.911ZM72.0219 19.911C72.0219 18.3493 71.3203 17.436 70.0891 17.436C68.8531 17.436 68.1579 18.3493 68.1579 19.911C68.1579 21.4852 68.8532 22.3914 70.0891 22.3914C71.3203 22.3914 72.0219 21.4789 72.0219 19.911Z" fill="white"></path><path d="M82.5168 23.5168H81.0416L79.5536 18.2096H79.44L77.9584 23.5168H76.4976L74.5104 16.312H75.9536L77.2432 21.8096H77.3504L78.832 16.312H80.1952L81.6768 21.8096H81.7888L83.0736 16.312H84.496L82.5168 23.5168Z" fill="white"></path><path d="M86.1656 16.3117H87.5344V17.4563H87.6406C88.0101 16.6136 88.8735 16.0981 89.7906 16.1727C90.5008 16.1193 91.1966 16.3917 91.6817 16.913C92.1669 17.4343 92.3886 18.1479 92.2844 18.8523V23.5163H90.8625V19.2094C90.8625 18.0516 90.3594 17.4758 89.3078 17.4758C88.8262 17.4534 88.3587 17.6424 88.0281 17.9933C87.6974 18.3443 87.5365 18.8221 87.5875 19.3016V23.5164H86.1656V16.3117Z" fill="white"></path><path d="M94.5504 13.4992H95.9712V23.5168H94.5504V13.4992Z" fill="white"></path><path d="M97.9485 19.9109C97.825 18.6195 98.4444 17.3697 99.5467 16.6856C100.649 16.0016 102.044 16.0016 103.146 16.6856C104.249 17.3697 104.868 18.6195 104.745 19.9109C104.87 21.2038 104.252 22.4559 103.148 23.1414C102.045 23.8269 100.648 23.8269 99.5449 23.1414C98.4415 22.4559 97.8228 21.2038 97.9485 19.9109ZM103.281 19.9109C103.281 18.3492 102.58 17.436 101.348 17.436C100.113 17.436 99.4173 18.3492 99.4173 19.911C99.4173 21.4852 100.113 22.3914 101.348 22.3914C102.58 22.3914 103.281 21.4789 103.281 19.9109ZM106.241 21.4789C106.241 20.182 107.207 19.4344 108.921 19.3281L110.873 19.2156V18.5938C110.873 17.8328 110.37 17.4031 109.398 17.4031C108.604 17.4031 108.054 17.6946 107.896 18.2039H106.52C106.665 16.9664 107.829 16.1727 109.463 16.1727C111.27 16.1727 112.288 17.0719 112.288 18.5938V23.5164H110.92V22.5039H110.807C110.342 23.2433 109.516 23.6755 108.643 23.6351C108.031 23.6987 107.421 23.5007 106.964 23.0898C106.506 22.679 106.244 22.0938 106.241 21.4789ZM110.873 20.8633V20.2609L109.113 20.3734C108.121 20.4398 107.671 20.7773 107.671 21.4125C107.671 22.0609 108.234 22.4383 109.007 22.4383C109.465 22.4846 109.922 22.3432 110.274 22.0463C110.625 21.7494 110.842 21.3225 110.873 20.8633ZM114.157 19.9109C114.157 17.6344 115.327 16.1922 117.148 16.1922C118.067 16.1498 118.928 16.6424 119.357 17.4562H119.463V13.4992H120.885V23.5164H119.523V22.3781H119.41C118.948 23.1852 118.077 23.6694 117.148 23.6351C115.315 23.6352 114.157 22.193 114.157 19.9109ZM115.626 19.9109C115.626 21.4391 116.346 22.3586 117.551 22.3586C118.749 22.3586 119.49 21.4258 119.49 19.9172C119.49 18.4156 118.742 17.4695 117.551 17.4695C116.354 17.4695 115.626 18.3953 115.626 19.9109H115.626ZM126.768 19.9109C126.644 18.6196 127.264 17.3698 128.366 16.6858C129.468 16.0017 130.863 16.0017 131.965 16.6858C133.068 17.3698 133.687 18.6196 133.563 19.9109C133.689 21.2037 133.071 22.4559 131.967 23.1414C130.864 23.8269 129.467 23.8269 128.364 23.1414C127.261 22.4559 126.642 21.2037 126.768 19.9109ZM132.101 19.9109C132.101 18.3492 131.399 17.436 130.168 17.436C128.932 17.436 128.237 18.3492 128.237 19.911C128.237 21.4852 128.932 22.3914 130.168 22.3914C131.399 22.3914 132.101 21.4789 132.101 19.9109ZM135.471 16.3117H136.84V17.4562H136.946C137.316 16.6136 138.179 16.0981 139.096 16.1726C139.806 16.1193 140.502 16.3917 140.987 16.913C141.472 17.4343 141.694 18.1479 141.59 18.8523V23.5163H140.168V19.2094C140.168 18.0516 139.665 17.4758 138.613 17.4758C138.132 17.4533 137.664 17.6424 137.334 17.9933C137.003 18.3442 136.842 18.8221 136.893 19.3016V23.5164H135.471V16.3117ZM149.624 14.518V16.3445H151.185V17.5422H149.624V21.2469C149.624 22.0016 149.935 22.332 150.643 22.332C150.824 22.3315 151.005 22.3205 151.185 22.2992V23.4836C150.93 23.5293 150.671 23.5536 150.412 23.5562C148.831 23.5562 148.201 23 148.201 21.6109V17.5421H147.057V16.3445H148.201V14.518H149.624ZM153.127 13.4992H154.537V17.4695H154.649C155.037 16.6195 155.915 16.1033 156.846 16.1789C157.552 16.1405 158.239 16.4189 158.718 16.9383C159.198 17.4577 159.421 18.164 159.327 18.8648V23.5164H157.904V19.2156C157.904 18.0648 157.368 17.482 156.363 17.482C155.869 17.4414 155.381 17.6213 155.032 17.9734C154.682 18.3256 154.505 18.8142 154.549 19.3086V23.5164H153.127L153.127 13.4992ZM167.618 21.5711C167.219 22.9301 165.904 23.8082 164.496 23.6555C163.535 23.6808 162.612 23.2826 161.971 22.5665C161.33 21.8504 161.037 20.8887 161.168 19.9367C161.04 18.9821 161.333 18.0189 161.97 17.2967C162.607 16.5745 163.527 16.1644 164.49 16.1727C166.495 16.1727 167.704 17.5423 167.704 19.8047V20.3008H162.616V20.3805C162.571 20.9151 162.754 21.4439 163.119 21.8369C163.485 22.2298 163.999 22.4504 164.535 22.4445C165.231 22.528 165.908 22.1829 166.249 21.571L167.618 21.5711ZM162.616 19.2492H166.255C166.292 18.7603 166.12 18.2787 165.782 17.9233C165.444 17.5679 164.972 17.3716 164.482 17.3828C163.985 17.3766 163.507 17.5712 163.156 17.9226C162.804 18.274 162.61 18.7524 162.616 19.2492H162.616Z" fill="white"></path></g><defs><clipPath id="clip0"><path d="M0 0H192V64H0V0Z" fill="white"></path></clipPath></defs></svg>