<svg height="48" viewBox="0 0 218 64" fill="none" xmlns="http://www.w3.org/2000/svg"><path d="M12.7679 63.6052C12.2702 63.6052 11.7857 63.6052 11.2924 63.6052C10.2714 63.592 9.25271 63.5037 8.24464 63.341C7.30631 63.1815 6.3966 62.8847 5.5448 62.4601C3.85249 61.5927 2.4741 60.2174 1.60295 58.5271C1.17424 57.6754 0.877235 56.7636 0.72209 55.8228C0.553684 54.8124 0.46386 53.7905 0.453428 52.7662C0.453428 52.4227 0.427002 51.2776 0.427002 51.2776V12.7355C0.427002 12.7355 0.427002 11.608 0.453428 11.2777C0.461045 10.252 0.549404 9.22852 0.717686 8.21671C0.870823 7.27263 1.1679 6.35763 1.59855 5.50366C2.02664 4.66334 2.5873 3.89745 3.25897 3.23544C3.92979 2.56392 4.70094 2.00078 5.5448 1.56621C6.3947 1.14074 7.30309 0.843876 8.24023 0.685349C9.2509 0.519143 10.2727 0.429335 11.2968 0.416687H12.7679H205.438H206.927C207.942 0.425374 208.956 0.513731 209.957 0.680945C210.904 0.836212 211.821 1.13316 212.679 1.56181C214.375 2.43676 215.753 3.82364 216.617 5.52568C217.044 6.37316 217.341 7.28043 217.497 8.21671C217.667 9.23611 217.761 10.2665 217.779 11.2997C217.779 11.7622 217.779 12.2599 217.779 12.7531C217.779 13.3653 217.779 13.9467 217.779 14.5149V49.485C217.779 50.0796 217.779 50.6566 217.779 51.2467C217.779 51.8369 217.779 52.2641 217.779 52.7662C217.763 53.7789 217.671 54.7889 217.502 55.7876C217.351 56.7351 217.054 57.6533 216.621 58.5094C215.746 60.1934 214.37 61.5645 212.683 62.4337C211.827 62.8628 210.911 63.1598 209.966 63.3145C208.958 63.4782 207.939 63.5665 206.918 63.5788C206.443 63.5788 205.94 63.5788 205.456 63.5788H12.7679V63.6052Z" fill="black"></path><path d="M80.7394 43.5656H72.9922L71.1116 48.7363H67.707L75.2824 29.419H78.4976L86.2448 48.7363H82.6817L80.7394 43.5656ZM73.9788 40.923H79.7484L77.6828 35.3912C77.4009 34.6293 77.119 33.7837 76.846 32.8588C76.5949 33.678 76.3218 34.5104 76.0312 35.3648L73.9788 40.923Z" fill="white"></path><path d="M87.6145 37.8708C87.6145 36.805 87.5793 35.6305 87.5088 34.3474H90.5918C90.7076 34.9514 90.7871 35.5617 90.8296 36.1752C91.3691 35.5287 92.042 35.0066 92.8022 34.6447C93.5625 34.2829 94.392 34.0898 95.2339 34.0787C96.2211 34.0631 97.1905 34.3423 98.0182 34.8805C98.8459 35.4187 99.4943 36.1915 99.8805 37.1001C100.422 38.3492 100.68 39.7032 100.634 41.064C100.667 42.5477 100.366 44.0199 99.7528 45.3714C99.2397 46.493 98.402 47.435 97.348 48.0756C96.2635 48.7023 95.0284 49.0206 93.7761 48.9961C92.7907 48.9955 91.8124 48.8287 90.8825 48.5028V54.4618L87.5881 54.7437L87.6145 37.8708ZM96.2734 45.2128C96.9428 44.332 97.2819 43.0107 97.2819 41.2489C97.2819 39.6428 97.003 38.4684 96.4451 37.7255C96.1931 37.3803 95.861 37.1013 95.4775 36.9126C95.0939 36.7239 94.6703 36.6311 94.243 36.642C93.6275 36.6338 93.0204 36.7856 92.4812 37.0825C91.9085 37.4069 91.3874 37.8152 90.9353 38.2937V46.0012C91.3003 46.1733 91.6848 46.3005 92.0805 46.38C92.506 46.472 92.94 46.5193 93.3753 46.5209C93.9282 46.554 94.4809 46.4522 94.9857 46.2244C95.4906 45.9965 95.9325 45.6494 96.2734 45.2128Z" fill="white"></path><path d="M102.638 37.8708C102.638 36.805 102.602 35.6305 102.532 34.3474H105.615C105.734 34.9509 105.815 35.5614 105.857 36.1752C107.14 34.7776 108.608 34.0787 110.262 34.0787C111.249 34.0631 112.218 34.3423 113.046 34.8805C113.873 35.4187 114.522 36.1915 114.908 37.1001C115.45 38.3492 115.707 39.7032 115.661 41.064C115.702 42.546 115.408 44.0182 114.802 45.3714C114.288 46.4936 113.449 47.4357 112.393 48.0756C111.309 48.7029 110.074 49.0213 108.821 48.9961C107.836 48.9955 106.858 48.8287 105.928 48.5028V54.4618L102.633 54.7437L102.638 37.8708ZM111.31 45.2128C111.979 44.3114 112.314 42.9901 112.314 41.2489C112.314 39.6428 112.036 38.4684 111.482 37.7255C111.229 37.3803 110.897 37.1013 110.514 36.9126C110.13 36.7239 109.707 36.6311 109.279 36.642C108.664 36.6346 108.057 36.7863 107.518 37.0825C106.945 37.4069 106.424 37.8152 105.972 38.2937V46.0012C106.337 46.172 106.722 46.2991 107.117 46.38C107.542 46.472 107.976 46.5193 108.412 46.5209C108.965 46.5532 109.517 46.4511 110.022 46.2233C110.526 45.9955 110.968 45.6488 111.31 45.2128Z" fill="white"></path><path d="M121.717 47.8246C120.31 47.0527 119.166 45.8758 118.436 44.4465C117.637 42.8314 117.244 41.0461 117.291 39.245C117.234 37.318 117.69 35.4105 118.612 33.7176C119.445 32.2486 120.696 31.0605 122.206 30.3043C123.793 29.5289 125.54 29.1381 127.306 29.1636C128.377 29.1589 129.445 29.2832 130.486 29.5335C131.46 29.7628 132.405 30.0996 133.305 30.5377L132.45 33.0702C130.892 32.2843 129.178 31.8569 127.434 31.8194C126.202 31.7989 124.987 32.1026 123.91 32.7002C122.889 33.2868 122.067 34.1678 121.554 35.2283C120.964 36.4861 120.677 37.865 120.717 39.2538C120.695 40.5052 120.914 41.7491 121.36 42.9182C121.766 43.953 122.479 44.8385 123.404 45.4551C124.457 46.1143 125.686 46.4398 126.927 46.3888C127.571 46.3872 128.213 46.3327 128.848 46.2258C129.462 46.1282 130.065 45.9719 130.649 45.759V41.8304H126.183V39.2715H133.851V47.415C132.738 47.9334 131.573 48.3307 130.376 48.5998C129.188 48.8733 127.974 49.0122 126.756 49.0138C125.002 49.0559 123.267 48.6464 121.717 47.8246Z" fill="white"></path><path d="M145.553 48.7363C145.429 48.1073 145.352 47.4698 145.324 46.8292C144.774 47.4694 144.102 47.9934 143.347 48.3707C142.494 48.8025 141.549 49.0202 140.594 49.0049C139.812 49.0148 139.038 48.8477 138.33 48.5161C137.656 48.2002 137.093 47.6892 136.714 47.0494C136.293 46.3243 136.084 45.4958 136.11 44.6579C136.086 44.0223 136.209 43.3898 136.471 42.8103C136.734 42.2308 137.127 41.7204 137.621 41.3194C138.625 40.4855 140.3 40.0701 142.646 40.073C143.52 40.0726 144.393 40.1344 145.258 40.258V39.9761C145.258 38.7077 144.988 37.8121 144.448 37.2895C143.802 36.7337 142.964 36.4538 142.113 36.5099C141.352 36.5192 140.594 36.6228 139.858 36.8182C139.129 36.9941 138.418 37.2389 137.735 37.5493L137.216 35.1534C137.963 34.8346 138.738 34.5883 139.532 34.4179C140.531 34.1921 141.552 34.0798 142.576 34.0832C143.661 34.0535 144.74 34.2469 145.747 34.6513C146.633 35.0429 147.354 35.7314 147.786 36.598C148.327 37.7584 148.579 39.0321 148.522 40.3108V46.0364C148.522 46.6237 148.557 47.5251 148.627 48.7407L145.553 48.7363ZM143.58 46.0937C144.215 45.7987 144.785 45.3811 145.258 44.8649V42.2223C144.527 42.1359 143.792 42.0874 143.056 42.077C141.696 42.077 140.755 42.2972 140.233 42.7376C139.978 42.953 139.775 43.2235 139.64 43.5287C139.505 43.8339 139.441 44.1658 139.453 44.4993C139.429 44.7875 139.468 45.0775 139.566 45.3495C139.664 45.6216 139.819 45.8693 140.021 46.0761C140.451 46.4381 141.002 46.6225 141.563 46.5914C142.264 46.5808 142.954 46.4106 143.58 46.0937Z" fill="white"></path><path d="M151.067 45.2833V28.2827L154.344 28.0184V44.6975C154.298 45.1605 154.408 45.6258 154.657 46.0188C154.783 46.1542 154.938 46.259 155.11 46.3254C155.283 46.3918 155.468 46.418 155.652 46.402C155.951 46.389 156.247 46.3387 156.533 46.2522L156.921 48.6129C156.552 48.7522 156.17 48.8525 155.78 48.9124C155.36 48.9854 154.934 49.0237 154.507 49.027C152.214 49.0123 151.067 47.7644 151.067 45.2833Z" fill="white"></path><path d="M159.264 45.2833V28.2827L162.545 28.0184V44.6975C162.498 45.1605 162.608 45.6258 162.858 46.0188C162.983 46.1542 163.139 46.259 163.311 46.3254C163.483 46.3918 163.669 46.418 163.853 46.402C164.152 46.389 164.448 46.3387 164.734 46.2522L165.117 48.6129C164.75 48.7522 164.369 48.8526 163.981 48.9124C163.559 48.9856 163.132 49.0239 162.703 49.027C160.413 49.0123 159.267 47.7644 159.264 45.2833Z" fill="white"></path><path d="M178.594 41.9625H169.182C169.332 44.9779 170.768 46.4857 173.49 46.4857C174.188 46.4821 174.884 46.3993 175.564 46.239C176.258 46.0774 176.938 45.8564 177.594 45.5784L178.317 47.8334C176.621 48.6325 174.765 49.0333 172.891 49.0049C171.548 49.0437 170.217 48.7406 169.024 48.1241C167.99 47.5653 167.16 46.6923 166.654 45.6312C166.095 44.402 165.824 43.0613 165.861 41.7114C165.825 40.2969 166.113 38.8927 166.703 37.6066C167.206 36.5151 168.019 35.596 169.041 34.964C170.089 34.3469 171.287 34.0328 172.503 34.0567C173.71 34.0141 174.899 34.3481 175.908 35.0125C176.817 35.6435 177.521 36.5269 177.934 37.5537C178.387 38.6722 178.612 39.8703 178.594 41.0772V41.9625ZM175.383 39.8704C175.39 38.9353 175.079 38.0256 174.503 37.2895C174.244 37 173.925 36.771 173.568 36.6187C173.211 36.4665 172.825 36.3948 172.437 36.4086C172.047 36.4006 171.659 36.4749 171.299 36.6266C170.94 36.7784 170.616 37.0043 170.349 37.2895C169.728 38.013 169.348 38.912 169.261 39.8616L175.383 39.8704Z" fill="white"></path><path d="M181.087 37.9633C181.087 37.175 181.047 35.9682 180.977 34.3518H184.06C184.113 34.7526 184.161 35.2327 184.214 35.7832C184.267 36.3337 184.293 36.7918 184.311 37.1397C184.643 36.5784 185.02 36.0451 185.438 35.5454C185.802 35.1182 186.241 34.7615 186.733 34.4927C187.251 34.2133 187.832 34.0722 188.42 34.0831C188.866 34.0723 189.311 34.1272 189.741 34.2461L189.327 37.1001C188.812 36.9508 188.27 36.9128 187.739 36.9888C187.207 37.0647 186.698 37.2528 186.244 37.5405C185.515 38.0823 184.88 38.74 184.364 39.4872V48.7362H181.087V37.9633Z" fill="white"></path><path d="M191.574 54.6249C191.172 54.5599 190.776 54.4642 190.389 54.3386L190.988 51.9382C191.265 52.0128 191.546 52.0731 191.829 52.1188C192.146 52.1751 192.467 52.2046 192.789 52.2069C194.257 52.2069 195.35 51.2688 196.066 49.3925L196.282 48.8596L190.975 34.3519H194.498L197.194 42.4602C197.539 43.5032 197.818 44.5667 198.03 45.6445C198.281 44.6051 198.572 43.5657 198.911 42.5262L201.598 34.3519H204.914L199.629 48.9257C199.23 50.0996 198.687 51.2195 198.013 52.2597C197.498 53.0455 196.796 53.6904 195.969 54.136C195.083 54.5687 194.105 54.7802 193.12 54.7526C192.602 54.7546 192.084 54.7119 191.574 54.6249Z" fill="white"></path><path d="M67.707 11.0267H73.5648L73.4018 12.4449H69.4159V15.1887H73.1728V16.51H69.4159V19.549H73.6132L73.4679 20.9892H67.707V11.0267Z" fill="white"></path><path d="M77.6124 15.9066L74.5294 11.0267H76.4849L78.5814 14.6118L80.7835 11.0267H82.6818L79.5988 15.845L82.9328 20.9892H80.9509L78.577 17.0694L76.159 20.9892H74.2607L77.6124 15.9066Z" fill="white"></path><path d="M84.1968 11.0267H86.8834C88.143 11.0267 89.109 11.2836 89.7814 11.7974C90.1159 12.0606 90.3818 12.4006 90.5567 12.7886C90.7315 13.1766 90.81 13.6011 90.7856 14.026C90.8042 14.6329 90.6516 15.2327 90.3452 15.7569C90.0461 16.2497 89.6099 16.6445 89.0899 16.8932C88.5122 17.1663 87.8791 17.302 87.2401 17.2896C86.7965 17.2833 86.3544 17.2376 85.9189 17.1531V20.9892H84.1968V11.0267ZM88.513 15.475C88.7009 15.2946 88.8474 15.0755 88.9425 14.833C89.0375 14.5904 89.0788 14.3301 89.0635 14.07C89.0859 13.8208 89.0466 13.5699 88.9491 13.3395C88.8515 13.109 88.6987 12.9061 88.5042 12.7488C88.0085 12.4469 87.4317 12.3054 86.8526 12.3436H85.9189V15.867C86.2461 15.926 86.5774 15.9598 86.9098 15.9683C87.4873 16.0116 88.0598 15.8355 88.513 15.475Z" fill="white"></path><path d="M92.4856 11.0267H94.2033V19.5182H98.3257L98.1804 20.9892H92.4856V11.0267Z" fill="white"></path><path d="M100.942 20.5003C100.22 20.0941 99.6369 19.4803 99.2682 18.7386C98.8676 17.9164 98.6698 17.0103 98.6913 16.096C98.6702 15.1405 98.8818 14.1943 99.3079 13.3389C99.6984 12.5678 100.312 11.9324 101.07 11.5155C101.917 11.0715 102.866 10.856 103.822 10.8901C104.727 10.8658 105.621 11.08 106.416 11.5111C107.134 11.9187 107.712 12.5325 108.077 13.2728C108.47 14.0864 108.664 14.9814 108.645 15.8846C108.669 16.8507 108.456 17.8079 108.024 18.6725C107.63 19.4409 107.017 20.0754 106.262 20.4959C105.429 20.9389 104.497 21.1604 103.554 21.1389C102.642 21.162 101.74 20.9415 100.942 20.5003ZM105.399 19.2803C105.885 18.9586 106.262 18.4982 106.482 17.959C106.73 17.3418 106.851 16.6814 106.839 16.0167C106.85 15.3642 106.743 14.715 106.522 14.1008C106.324 13.5689 105.972 13.1085 105.509 12.7795C104.973 12.4514 104.356 12.2777 103.728 12.2777C103.099 12.2777 102.482 12.4514 101.946 12.7795C101.459 13.1173 101.08 13.5883 100.854 14.1361C100.603 14.7278 100.479 15.3653 100.488 16.0079C100.478 16.6699 100.594 17.3278 100.832 17.9458C101.043 18.5112 101.429 18.9946 101.933 19.3257C102.438 19.6568 103.035 19.8183 103.637 19.7868C104.263 19.8022 104.877 19.6254 105.399 19.2803Z" fill="white"></path><path d="M110.561 11.0266H113.679C114.593 10.962 115.502 11.2021 116.264 11.7093C116.557 11.939 116.79 12.2359 116.943 12.5748C117.096 12.9137 117.166 13.2846 117.145 13.656C117.156 14.1389 117.047 14.617 116.828 15.0478C116.637 15.4255 116.37 15.7598 116.044 16.0299C115.753 16.2652 115.426 16.4526 115.075 16.5849L118.158 20.9892H116.154L113.56 17.0253H112.296V20.9892H110.561V11.0266ZM113.261 15.7392C113.643 15.7476 114.022 15.6645 114.366 15.497C114.676 15.3482 114.937 15.1145 115.119 14.8231C115.301 14.5121 115.394 14.1571 115.388 13.7969C115.406 13.589 115.371 13.38 115.288 13.1886C115.205 12.9972 115.076 12.8294 114.912 12.7003C114.499 12.4418 114.015 12.32 113.529 12.3523H112.283V15.7569L113.261 15.7392Z" fill="white"></path><path d="M119.502 11.0267H125.373L125.205 12.4449H121.241V15.1887H124.963V16.51H121.206V19.549H125.403L125.276 20.9892H119.502V11.0267Z" fill="white"></path><path d="M131.759 11.0267H133.476V20.9892H131.759V11.0267Z" fill="white"></path><path d="M138.026 12.4625H134.943L135.093 11.0267H142.844L142.686 12.4625H139.748V20.9892H138.026V12.4625Z" fill="white"></path><path d="M150.31 20.5003C149.589 20.0939 149.007 19.48 148.64 18.7386C148.236 17.9176 148.037 17.0109 148.059 16.096C148.038 15.1406 148.25 14.1944 148.676 13.3389C149.067 12.5686 149.681 11.9335 150.437 11.5156C151.279 11.0694 152.221 10.8479 153.172 10.8725C154.087 10.8479 154.992 11.0684 155.793 11.5111C156.512 11.9175 157.09 12.5316 157.453 13.2729C157.848 14.0861 158.044 14.9811 158.026 15.8846C158.05 16.8513 157.836 17.809 157.401 18.6725C157.008 19.4419 156.394 20.0767 155.639 20.4959C154.806 20.9401 153.873 21.1616 152.93 21.139C152.015 21.1636 151.111 20.9431 150.31 20.5003ZM154.771 19.2803C155.254 18.9571 155.63 18.4971 155.85 17.959C156.097 17.3418 156.219 16.6815 156.207 16.0167C156.218 15.3642 156.111 14.7151 155.89 14.1009C155.694 13.5692 155.343 13.1088 154.881 12.7796C154.344 12.451 153.727 12.2772 153.098 12.2772C152.468 12.2772 151.851 12.451 151.314 12.7796C150.827 13.1174 150.448 13.5884 150.222 14.1361C149.973 14.7285 149.849 15.3656 149.856 16.0079C149.845 16.6699 149.962 17.3278 150.2 17.9458C150.41 18.4891 150.776 18.9581 151.252 19.2936C151.774 19.6377 152.39 19.8102 153.014 19.7868C153.637 19.7996 154.25 19.623 154.771 19.2803Z" fill="white"></path><path d="M159.933 11.0267H161.906L166.835 18.7474C166.791 18.0119 166.773 17.338 166.773 16.717V11.0267H168.367V20.9892H166.456L161.453 13.1451C161.501 14.026 161.527 14.8232 161.527 15.5147V20.9892H159.933V11.0267Z" fill="white"></path><path fill-rule="evenodd" clip-rule="evenodd" d="M43.4834 11.0795H25.2012C16.5819 11.0795 13.4285 14.2329 13.4285 22.8522V41.1476C13.4285 49.7669 16.5819 52.9203 25.2012 52.9203H43.4834C52.1026 52.9203 55.2605 49.7669 55.2605 41.1476V22.8522C55.2693 14.2329 52.1158 11.0795 43.4834 11.0795Z" fill="#C8102E"></path><path d="M21.7129 31.9999H22.8227V37.4745H21.7129V35.2503H19.2068V37.4745H18.0969V31.9999H19.2068V34.2021H21.7129V31.9999ZM27.967 35.1314C27.967 36.0123 27.5265 36.4967 26.7249 36.4967C25.9234 36.4967 25.4741 36.0123 25.4741 35.0829V31.9999H24.3642V35.127C24.3642 36.6641 25.2187 37.545 26.7073 37.545C28.196 37.545 29.0768 36.6641 29.0768 35.0785V31.9999H27.967V35.1314ZM40.7923 35.7612L39.5503 31.9999H38.6386L37.4054 35.7656L36.1942 31.9999H35.0138L36.9209 37.4745H37.8414L39.079 33.8806L40.321 37.4745H41.2503L43.1574 31.9999H42.0035L40.7923 35.7612ZM45.1437 35.1138H47.1653V34.1228H45.1437V33.0041H48.077V31.9999H44.0515V37.4613H48.1827V36.4747H45.1437V35.1138ZM49.504 37.4613H50.6007V31.9999H49.504V37.4613ZM31.2702 36.3294L30.7725 37.4657H29.6406L32.0321 31.9999H33.0099L35.4102 37.4657H34.2651L33.7938 36.3338L31.2702 36.3294ZM31.6842 35.3428H33.3534L32.5166 33.3873L31.6842 35.3428Z" fill="white"></path><path d="M34.3489 25.0367C32.5025 25.0356 30.7321 24.3016 29.4265 22.996C28.1209 21.6904 27.3869 19.9199 27.3857 18.0735H28.3679C28.3679 19.6598 28.998 21.1811 30.1197 22.3028C31.2414 23.4244 32.7627 24.0546 34.3489 24.0546C35.9352 24.0546 37.4565 23.4244 38.5782 22.3028C39.6998 21.1811 40.33 19.6598 40.33 18.0735H41.3121C41.311 19.9199 40.577 21.6904 39.2714 22.996C37.9658 24.3016 36.1953 25.0356 34.3489 25.0367Z" fill="white"></path></svg>