<svg xmlns="http://www.w3.org/2000/svg" fill-rule="evenodd" stroke-linejoin="round" stroke-miterlimit="1.414" clip-rule="evenodd" viewBox="0 0 512 512"><path fill="#eb7826" d="M427.026 73.065c2.026-10.833-5.113-21.258-15.946-23.284L197.728 9.873a20.033 20.033 0 0 0-23.374 16.008l-44.683 238.878 252.658 47.261 44.697-238.955z"/><path fill="#fce6d4" d="M391.842 108.765a4 4 0 0 0-3.196-4.667l-187.967-35.16a3.965 3.965 0 0 0-4.626 3.168l-27.649 147.812L364.2 256.542l27.642-147.777z"/><path fill="#28a6b8" d="M251.317 510.489c3.065.979 6.359.979 9.424 0 20.948-6.838 107.439-36.357 171.984-77.629a14.045 14.045 0 0 0 5.987-8.263c11.086-43.146 24.317-280.587 24.317-280.587h-414S62.26 381.451 73.348 424.596a14.041 14.041 0 0 0 5.986 8.262c64.544 41.274 151.035 70.793 171.983 77.631z"/><path fill="#298c95" d="M463.029 144.01c-.007.119-13.234 237.452-24.317 280.587a14.045 14.045 0 0 1-5.987 8.263c-64.545 41.272-151.036 70.791-171.984 77.629a15.472 15.472 0 0 1-4.741.734V144.01h207.029z"/><path fill="#fff" d="M167.744 442.171c27.692 13.066 54.119 23.082 70.707 28.965l-5.827 15.859c-18.049-6.495-44.582-16.703-72.519-29.732l7.639-15.092zm176.548-.043l7.661 15.135c-27.937 13.029-54.47 23.237-72.519 29.732l-5.84-15.894c16.612-5.894 43.028-15.912 70.698-28.973zm-240.433-74.559c1.764 16.534 3.56 29.849 5.297 37.376a14.046 14.046 0 0 0 6.062 8.641 376.133 376.133 0 0 0 16.985 10.238l-7.813 15.436c-9.15-5.012-18.128-10.286-26.683-15.793a14.04 14.04 0 0 1-5.998-8.444c-2.115-8.693-4.313-25.205-6.463-45.809l18.613-1.645zm304.229-.01l18.724 1.655c-2.15 20.604-4.348 37.116-6.463 45.809a14.038 14.038 0 0 1-5.999 8.444c-8.554 5.507-17.532 10.781-26.682 15.793l-7.839-15.487a374.97 374.97 0 0 0 16.899-10.19 14.043 14.043 0 0 0 6.06-8.639c1.738-7.528 3.535-20.847 5.3-37.385zm9.438-116.518l18.831 1.117c-1.71 25.013-3.702 52.151-5.831 77.232l-18.703-1.653c2.117-25.116 4.08-52.42 5.703-76.696zm-323.104.007c1.623 24.277 3.585 51.582 5.703 76.699l-18.593 1.643c-2.129-25.081-4.121-52.219-5.831-77.232l18.721-1.11zm347.62-90.035c-.002.034-1.164 21.096-3.065 51.234l-18.896-1.12a5861.828 5861.828 0 0 0 1.888-32.093H392.14v-18.021h49.902zm-322.124 0v18.021h-29.94c.003.043.702 12.704 1.889 32.099l-18.786 1.114c-1.901-30.138-3.063-51.2-3.065-51.234h49.902zm232.226 18.021h-76.117v-18.021h76.117v18.021zm-192.23-18.021h76.117v18.021h-76.117v-18.021z"/><circle cx="256.895" cy="314" r="88.491" fill="#28a6b8"/><path fill="#fff" d="M256.029 207c59.055 0 107 47.945 107 107s-47.945 107-107 107-107-47.945-107-107 47.945-107 107-107zm0 30c42.497 0 77 34.503 77 77s-34.503 77-77 77-77-34.503-77-77 34.503-77 77-77z"/><path fill="#fff" d="M297.004 314l-67.992-55v110l67.992-55z"/></svg>